<?xml version="1.0" encoding="utf-8"?>
<!-- Generator: Adobe Illustrator 27.3.1, SVG Export Plug-In . SVG Version: 6.00 Build 0)  -->
<svg version="1.1" xmlns="http://www.w3.org/2000/svg" xmlns:xlink="http://www.w3.org/1999/xlink" x="0px" y="0px"
	 viewBox="0 0 1000 1000" style="enable-background:new 0 0 1000 1000;" xml:space="preserve">
<style type="text/css">
	.st0{display:none;}
	.st1{display:inline;}
	.st2{fill:#002C2B;}
	.st3{fill:#FFFFFF;}
	.st4{fill:#FFD770;}
	.st5{fill:#009490;}
	.st6{opacity:0.6;}
	.st7{opacity:0.4;fill:#003130;}
</style>
<g id="Text" class="st0">
	<g class="st1">
		<g>
			<path class="st2" d="M235.12,419.26l-7.91,49.77h37.07c1.38,0,2.47,0.48,3.27,1.43c0.8,0.95,1.09,2.12,0.87,3.5l-2.8,17.63
				c-0.22,1.38-0.88,2.55-1.98,3.5c-1.1,0.95-2.35,1.43-3.73,1.43h-37.07l-7.91,49.77h46.92c1.38,0,2.47,0.48,3.27,1.43
				c0.8,0.95,1.1,2.03,0.91,3.24l-2.8,17.63c-0.22,1.39-0.88,2.55-1.98,3.5c-1.1,0.95-2.35,1.43-3.73,1.43h-46.92h-12.7h-9.59
				c-1.38,0-2.48-0.47-3.27-1.43c-0.8-0.95-1.09-2.11-0.87-3.5l27.28-171.59c0.22-1.38,0.88-2.55,1.98-3.5
				c1.1-0.95,2.34-1.42,3.73-1.42h9.59h12.7h46.92c1.38,0,2.47,0.48,3.27,1.42c0.8,0.95,1.09,2.12,0.87,3.5l-2.8,17.63
				c-0.19,1.21-0.84,2.29-1.94,3.24c-1.1,0.95-2.34,1.43-3.73,1.43H235.12z"/>
			<path class="st2" d="M365.79,397.87c5.43,3.89,9.3,9.16,11.61,15.81c2.31,6.65,2.82,14.04,1.53,22.16l-0.58,3.63l-0.21,1.3
				l-1.73,10.89c-0.19,1.21-0.84,2.29-1.94,3.24c-1.1,0.95-2.35,1.43-3.72,1.43h-17.63c-1.39,0-2.48-0.47-3.27-1.43
				c-0.8-0.95-1.1-2.03-0.91-3.24l1.73-10.89l0.21-1.3c0.93-5.87,0.36-10.71-1.71-14.52c-2.08-3.8-5.79-5.7-11.15-5.7
				c-5.18,0-9.46,1.9-12.83,5.7c-3.37,3.8-5.52,8.64-6.45,14.52l-13.76,86.57c-0.93,5.88-0.32,10.72,1.84,14.52
				c2.16,3.8,5.83,5.7,11.02,5.7c5.35,0,9.67-1.9,12.96-5.7c3.28-3.8,5.39-8.64,6.32-14.52l0.04-0.26l3.26-20.48h-12.7
				c-1.21,0-2.22-0.47-3.01-1.43c-0.8-0.95-1.09-2.11-0.87-3.5l2.8-17.63c0.22-1.38,0.88-2.55,1.98-3.5
				c1.1-0.95,2.25-1.43,3.47-1.43h29.29h5.96c1.38,0,2.47,0.48,3.27,1.43c0.8,0.95,1.09,2.12,0.87,3.5l-6.84,43.03l-0.29,1.81
				l-0.33,2.07c-1.29,8.12-4.15,15.51-8.58,22.16c-4.43,6.65-9.98,11.92-16.64,15.81c-6.67,3.89-13.98,5.83-21.92,5.83h-6.74
				c-7.78,0-14.38-1.94-19.81-5.83c-5.43-3.89-9.3-9.16-11.61-15.81c-2.31-6.65-2.82-14.04-1.53-22.16l14.92-93.83
				c1.29-8.12,4.15-15.51,8.58-22.16c4.43-6.65,9.97-11.92,16.64-15.81c6.67-3.89,13.89-5.83,21.66-5.83h6.74
				C353.67,392.04,360.36,393.99,365.79,397.87z"/>
			<path class="st2" d="M498.68,393.46c-0.54-0.94-1.51-1.42-2.88-1.42h-17.63c-1.39,0-2.76,0.48-4.12,1.42
				c-1.36,0.95-2.23,2.12-2.63,3.51l-8.48,16.97l-6.96,13.92c11.92-4.1,22.87-7.69,32.83-10.76l6.43-12.83l3.66-7.29
				C499.3,395.58,499.23,394.41,498.68,393.46z M417.77,396.97c0.05-1.39-0.46-2.55-1.52-3.51c-1.06-0.94-2.28-1.42-3.66-1.42
				h-17.62c-2.59,0-4.1,1.3-4.51,3.89l-0.17,1.04l7.22,39.26l2.18,11.88c3.52-1.2,7.29-2.54,11.33-4.01
				c5.42-1.33,10.45-2.1,15.06-2.3l-2.72-14.69L417.77,396.97z"/>
		</g>
		<path class="st2" d="M488.82,417.09l-19.06,37.99l-6.62,13.17l-23.41,46.66h-0.27l-8.52,53.66c-0.23,1.39-0.89,2.54-1.99,3.49
			c-1.1,0.95-2.35,1.42-3.72,1.42h-17.36c-1.39,0-2.48-0.47-3.28-1.42c-0.81-0.95-1.08-2.11-0.87-3.49l8.53-53.66h-0.27l-12.29-66.8
			c3.52-1.2,7.29-2.54,11.33-4.01c5.42-1.33,10.45-2.1,15.06-2.3l6.21,33.45l14.64-29.29l4.76-9.51l4.29-8.59
			C467.9,423.75,478.85,420.16,488.82,417.09z"/>
		<g>
			<path class="st3" d="M663.32,382.68c-0.34-1.55-1.16-2.42-2.47-2.58c-5.41-0.82-11.57-1.19-18.46-1.11s-12.35,0.29-16.36,0.61
				c-4.02,0.33-10.22,0.9-18.58,1.72c-17.4,1.81-35.53,4.68-54.4,8.62c-17.85,3.69-37.11,8.46-57.79,14.31
				c-10.4,2.95-21.17,6.18-32.3,9.68c-5.17,1.63-10.41,3.3-15.74,5.05c-8.86,2.99-16.8,5.69-23.85,8.12
				c-10.7,3.68-19.32,6.72-25.85,9.12c-3.35,1.23-6.15,2.3-8.4,3.19c-0.16,0.16-0.28,0.24-0.36,0.24c-0.08,0-0.2,0.04-0.37,0.12
				c-0.16,0.08-0.33,0.12-0.49,0.12h0.25c-2.96,1.65-3.94,4.11-2.96,7.39c0.99,3.29,3.21,4.43,6.65,3.45
				c2.46-0.8,5.08-1.67,7.87-2.63c3.52-1.2,7.29-2.54,11.33-4.01c5.42-1.33,10.45-2.1,15.06-2.3c8.24-0.39,15.18,1,20.85,4.16
				l4.76-9.51c-3.07-1.53-6.46-2.75-10.15-3.68c0.17,0,0.61-0.16,1.35-0.49c0.75-0.33,1.36-0.49,1.86-0.49
				c3.83-1.36,7.58-2.66,11.23-3.93c11.92-4.1,22.87-7.69,32.83-10.76c1.75-0.53,3.47-1.05,5.16-1.55c6.72-2.13,13.37-4.1,19.94-5.9
				c-1.81,2.46-3.78,5.66-5.92,9.6c-3.28,6.07-7.39,14.84-12.3,26.33c-5.9,13.46-12.15,28.88-18.7,46.27
				c-0.17-3.11-0.42-6.31-0.75-9.59c-0.9-10.9-3.07-19.95-6.49-27.16l-6.62,13.17c0.46,1.53,0.84,3.12,1.18,4.76
				c1.23,6.15,1.84,11.6,1.84,16.36s-0.2,10.87-0.61,18.34c-0.41,7.47-0.54,13-0.37,16.62c-4.76,12.8-8.45,22.81-11.07,30.03
				c-3.94,10.5-7.63,19.85-11.07,28.05c-1.81,4.6-3.61,8.94-5.42,13.05c-0.49,0.99-1.19,2.83-2.08,5.54
				c-0.9,2.7-1.81,5.08-2.71,7.13c-0.9,2.05-1.84,3.82-2.83,5.29c-1.47,0.49-2.13,1.55-1.96,3.21c0.16,1.64,0.89,2.78,2.2,3.45
				c1.16,0.82,2.3,1.11,3.46,0.86c1.14-0.24,2.12-0.58,2.95-0.99c0.82-0.41,1.67-1.14,2.58-2.21c0.9-1.07,1.69-2.1,2.34-3.08
				c0.65-0.98,1.31-2.22,1.98-3.69c0.65-1.48,1.18-2.75,1.59-3.82c0.41-1.06,0.87-2.25,1.36-3.57c0.49-1.31,0.82-2.3,0.98-2.95
				c3.61-8.04,7.3-17.23,11.09-27.57c1.47-3.6,2.9-7.25,4.3-10.95c1.4-3.69,2.92-7.83,4.55-12.42c1.64-4.59,2.92-8.17,3.82-10.71
				c0.89-2.54,2.37-6.69,4.42-12.42c2.05-5.75,3.41-9.43,4.06-11.09c8.37-23.29,15.34-42,20.92-56.11
				c2.8-7.22,6.89-17.06,12.31-29.53c2.78-6.23,6.06-12.22,9.84-17.97c-0.33,0.82-0.12,1.43,0.61,1.84c0.73,0.41,1.43,0.2,2.1-0.61
				c1.14-1.81,2.21-4.27,3.19-7.39c24.77-6.4,48.49-11.24,71.13-14.52c16.25-2.13,33.23-3.6,50.96-4.43
				c-6.89,5.25-14.69,10.83-23.39,16.74c-0.65,0.34-0.9,0.83-0.73,1.48c0.33,0.99,0.9,1.23,1.72,0.73
				c10.83-7.05,22.06-13.62,33.71-19.69C663.22,385.35,663.64,384.24,663.32,382.68z"/>
			<path class="st3" d="M571.75,509.81c0.98-1.15,2.05-1.23,3.2-0.25c1.15,0.98,1.48,2.13,0.98,3.45c-1.31,3.28-3.78,4.43-7.38,3.45
				c-1.32-0.49-2.3-1.15-2.95-1.97c-0.66-0.82-1.19-2.01-1.6-3.57c-0.41-1.56-0.7-2.67-0.86-3.32c0.16-1.64-0.25-1.97-1.23-0.98
				c-0.82,0.66-1.56,1.23-2.22,1.72c-1.15,0.98-2.3,2.05-3.45,3.2c-1.64,1.81-3.61,4.35-5.91,7.63
				c-3.61,5.41-7.55,11.98-11.81,19.69c-2.3,4.27-5.5,10.58-9.6,18.95c-4.1,8.37-6.56,13.37-7.38,15.01
				c-2.63,5.25-5.33,9.76-8.12,13.54c-3.94,5.25-7.22,8.37-9.84,9.35c-3.12,0.98-5.37,0.82-6.77-0.49c-1.39-1.32-1.93-3.57-1.6-6.77
				c0.33-3.2,0.7-5.87,1.11-8c0.41-2.13,0.95-4.27,1.6-6.4c1.97-6.4,6.48-16.49,13.54-30.27c3.45-6.73,5.91-11.89,7.38-15.51
				c0.16-0.16,0.45-0.65,0.86-1.48c0.41-0.82,0.74-1.52,0.98-2.09c0.25-0.57,0.45-1.23,0.62-1.97c0.16-0.74,0.16-1.35,0-1.85
				c-0.17-0.65-0.9-0.82-2.22-0.49c-0.49,0.17-0.9,0.33-1.23,0.49c-0.82,0.17-2.05,0.49-3.69,0.98c-0.66,0.17-2.18,0.82-4.55,1.97
				c-2.38,1.15-4.55,2.13-6.52,2.95c-1.97,0.82-4.1,1.15-6.4,0.98c-2.3-0.16-3.94-1.15-4.92-2.95c-1.64-2.62-0.82-5.91,2.46-9.84
				c7.38-8.86,16.33-18.13,26.83-27.81c3.94-3.45,7.05-6.15,9.35-8.12c2.3-1.97,5.42-4.14,9.35-6.52c3.94-2.38,7.63-3.9,11.08-4.55
				c1.31-0.33,2.09,0.12,2.34,1.35c0.25,1.23-0.04,2.18-0.86,2.83h0.25c-1.15,0.82-2.79,1.89-4.92,3.2
				c-1.64,1.31-4.02,3.53-7.14,6.65c-3.12,3.12-4.84,4.84-5.17,5.17c-1.64,1.48-3.98,3.65-7.01,6.52c-3.04,2.87-5.38,4.96-7.01,6.28
				c-0.66,0.82-1.32,0.9-1.97,0.25c-2.95,3.12-5.58,5.91-7.88,8.37c-1.81,2.13-3.78,4.51-5.91,7.14c2.62-0.98,5.25-1.8,7.88-2.46
				c5.91-1.64,10.09-1.64,12.55,0c1.8,1.15,3.03,2.55,3.69,4.18c0.65,1.64,0.65,3.73,0,6.28c-0.66,2.55-1.15,4.31-1.48,5.29
				c-0.33,0.98-1.07,2.79-2.22,5.42c-1.48,3.45-3.73,8.21-6.77,14.28c-3.04,6.07-5.13,10.34-6.28,12.8
				c-2.46,5.08-4.35,9.68-5.66,13.78c-1.32,3.94-2.13,6.65-2.46,8.12c0.16,0,0.37-0.17,0.61-0.49c0.25-0.33,0.45-0.58,0.62-0.74
				c1.48-1.64,3.03-3.69,4.68-6.15c1.8-2.79,4.43-7.47,7.88-14.03c5.74-10.83,12.06-21.49,18.95-32c0.65-1.15,1.97-3.24,3.94-6.28
				c1.97-3.03,3.45-5.33,4.43-6.89c0.98-1.56,2.38-3.48,4.18-5.78c1.8-2.3,3.53-4.18,5.17-5.66c4.1-3.94,7.3-5.5,9.6-4.68
				c1.15,0.33,2.05,1.15,2.71,2.46l0.25,0.25C569.45,508.82,570.76,510.96,571.75,509.81z"/>
			<path class="st3" d="M639.19,505.87c1.15-1.48,2.3-1.6,3.45-0.37c1.15,1.23,1.15,2.42,0,3.57c-3.78,3.78-11,12.39-21.66,25.84
				c-0.33,0.49-1.56,2.13-3.69,4.92c-2.13,2.79-3.65,4.68-4.55,5.66c-0.9,0.98-2.42,1.97-4.55,2.95c-2.13,0.98-4.27,1.32-6.4,0.98
				c-2.3-0.49-3.69-1.8-4.18-3.94c-1.48-7.05-0.58-14.85,2.71-23.38c-0.16,0.17-0.41,0.45-0.74,0.86c-0.33,0.41-0.58,0.7-0.74,0.86
				c-0.66,0.82-1.81,2.42-3.45,4.8c-1.64,2.38-2.92,4.15-3.81,5.29c-0.9,1.15-2.13,2.58-3.69,4.31c-1.56,1.72-3.08,3.16-4.55,4.31
				c-3.12,2.46-6.28,3.98-9.48,4.55c-3.2,0.58-6.44-0.2-9.72-2.34c-5.41-4.1-6.64-10.58-3.69-19.44c2.3-6.73,6.31-13.37,12.06-19.94
				c7.38-8.2,13.7-13.54,18.95-16c6.56-3.12,12.14-2.46,16.74,1.97c2.46,2.3,3.45,5.01,2.95,8.12l1.72-2.46
				c0.65-0.82,1.35-1.11,2.09-0.86c0.74,0.25,1.27,0.82,1.6,1.72c0.33,0.9,0.41,1.68,0.25,2.34c-3.61,8.53-6.32,16.49-8.12,23.87
				c-0.98,4.1-1.56,9.68-1.72,16.74c1.31-0.49,2.87-1.6,4.68-3.32c1.8-1.72,3.45-3.4,4.92-5.05c1.48-1.64,2.99-3.45,4.55-5.42
				c1.56-1.97,2.58-3.11,3.08-3.45C630.73,516.21,635.74,510.3,639.19,505.87z M592.18,523.1c3.94-4.43,8.28-9.68,13.04-15.75
				c-0.33-0.49-0.41-0.98-0.25-1.48c0.16-0.49,0.53-1.35,1.11-2.58c0.57-1.23,0.94-2.17,1.11-2.83c0.16-2.13-0.58-3.61-2.22-4.43
				c-1.64-0.82-3.45-0.9-5.41-0.25c-3.28,1.15-7.8,4.68-13.54,10.58c-7.38,7.38-12.22,14.36-14.52,20.92
				c-1.31,3.45-1.72,5.91-1.23,7.38c1.31,3.45,4.35,3.53,9.11,0.25C582.66,532.78,586.92,528.84,592.18,523.1z"/>
			<path class="st3" d="M682.25,485.69c1.97,4.6,1.15,11.08-2.46,19.44c-1.97,4.6-5.25,9.85-9.84,15.75
				c-9.85,12.14-16.9,22.24-21.17,30.27c-0.16,0.33-0.49,0.95-0.98,1.85c-0.49,0.9-0.82,1.56-0.98,1.97
				c-0.17,0.41-0.49,1.07-0.98,1.97c-0.49,0.9-0.95,1.6-1.35,2.09c-0.41,0.49-0.86,1.11-1.35,1.85c-0.49,0.74-0.98,1.35-1.48,1.85
				c-0.49,0.49-1.07,0.94-1.72,1.35c-0.66,0.41-1.27,0.74-1.85,0.98c-0.58,0.25-1.27,0.45-2.09,0.61
				c-9.35,1.15-11.81-9.84-7.38-32.98c3.45-17.56,8.86-32.08,16.24-43.57c0.98-0.98,2.01-1.39,3.08-1.23
				c1.06,0.17,1.97,0.86,2.71,2.09c0.74,1.23,0.86,2.34,0.37,3.32c-4.76,12.64-7.88,22.07-9.35,28.31
				c-1.48,5.75-2.55,11.57-3.2,17.48c-0.82,6.89-1.23,10.83-1.23,11.81c0.49-0.82,1.07-1.72,1.72-2.71c0.16-0.16,1.8-2.87,4.92-8.12
				c3.28-5.58,7.46-11.16,12.55-16.74c7.38-8.2,11.98-13.54,13.78-16c2.13-3.11,3.94-6.07,5.42-8.86c0.49-1.15,0.94-2.46,1.35-3.94
				c0.41-1.48,0.78-2.99,1.11-4.55c0.33-1.56,0.74-2.83,1.23-3.82c0.33-0.65,0.82-1.06,1.48-1.23
				C681.43,484.79,681.92,485.03,682.25,485.69z"/>
			<path class="st3" d="M752.4,503.9c0.98-0.65,1.97-0.65,2.95,0c0.98,0.66,1.48,1.52,1.48,2.58c0,1.07-0.41,2.01-1.23,2.83
				c-8.86,6.4-16.74,13.54-23.63,21.41c-1.97,2.46-4.8,6.28-8.49,11.45c-3.69,5.17-6.61,8.9-8.74,11.2
				c-6.07,6.73-11.82,9.93-17.23,9.6c-4.1-0.16-7.26-1.72-9.48-4.68c-2.22-2.95-3.57-6.56-4.06-10.83
				c-2.13-15.59,2.3-30.6,13.29-45.04c6.73-8.86,13.29-14.28,19.69-16.25c2.46-1.15,5.42-1.23,8.86-0.25
				c3.45,0.98,5.42,2.95,5.91,5.91c0.16,0.98,0.12,1.93-0.12,2.83c-0.25,0.9-0.66,1.77-1.23,2.58c-0.58,0.82-1.15,1.56-1.72,2.22
				c-0.58,0.66-1.35,1.4-2.34,2.22c-0.98,0.82-1.77,1.44-2.34,1.85c-0.58,0.41-1.44,0.98-2.58,1.72c-1.15,0.74-1.81,1.19-1.97,1.35
				c-6.24,4.27-12.55,7.55-18.95,9.85c-3.28,6.73-5.17,13.46-5.66,20.18c-0.17,1.15-0.21,2.67-0.12,4.55
				c0.08,1.89,0.25,3.78,0.49,5.66c0.25,1.89,0.86,3.45,1.85,4.68c0.98,1.23,2.3,1.68,3.94,1.35c2.79-0.49,6.73-3.36,11.81-8.61
				c1.97-2.13,4.59-5.25,7.88-9.35C730.66,522.44,741.24,512.11,752.4,503.9z M704.4,509.31c-0.82,1.32-1.64,2.71-2.46,4.18
				c5.41-2.95,10.17-5.91,14.28-8.86c2.95-2.3,5.58-4.51,7.88-6.65c2.95-2.79,3.45-4.84,1.48-6.15c-0.98-0.82-2.95-0.57-5.91,0.74
				C715.4,494.88,710.31,500.45,704.4,509.31z"/>
			<path class="st3" d="M760.52,506.36c-0.49,1.15-1.48,3.45-2.95,6.89c-1.48,3.45-2.59,6.07-3.32,7.88
				c-0.74,1.81-1.48,4.1-2.22,6.89c-0.74,2.79-1.19,5.33-1.35,7.63c0,0.49,0,1.07,0,1.72l0.25,0.74l0.49,0.74
				c0.82,0.66,1.72,1.15,2.71,1.48c1.97,0.82,4.68,0.08,8.12-2.22c4.43-2.79,8.9-6.15,13.41-10.09c4.51-3.94,9.31-8.37,14.4-13.29
				c5.08-4.92,9.19-8.78,12.31-11.57c0.98-0.65,1.89-0.62,2.71,0.12c0.82,0.74,0.9,1.6,0.25,2.58c-4.6,6.89-12.96,16.9-25.1,30.03
				c-0.49,0.49-1.35,1.48-2.58,2.95c-1.23,1.48-2.18,2.5-2.83,3.08c-0.66,0.58-1.6,1.48-2.83,2.71c-1.23,1.23-2.3,2.18-3.2,2.83
				c-0.9,0.66-1.97,1.35-3.2,2.09c-1.23,0.74-2.5,1.35-3.81,1.85c-5.25,1.97-10.38,1.64-15.38-0.98c-5-2.62-7.67-6.73-8-12.31
				c-0.16-2.3-0.04-4.68,0.37-7.14c0.41-2.46,1.11-5.13,2.09-8c0.98-2.87,1.89-5.21,2.71-7.01c0.82-1.8,1.97-4.31,3.45-7.51
				c1.48-3.2,2.46-5.37,2.95-6.52c1.31-2.95,2.91-6.68,4.8-11.2c1.89-4.51,3.53-8.41,4.92-11.69c1.39-3.28,3.03-6.97,4.92-11.08
				c1.88-4.1,3.73-7.88,5.54-11.32c-1.81,0.66-3.61,0.9-5.41,0.74c-0.98,0-1.44-0.62-1.35-1.85c0.08-1.23,0.62-1.85,1.6-1.85
				c2.62-0.16,5.5-1.48,8.61-3.94c2.13-3.77,4.26-7.3,6.4-10.58c4.59-7.38,9.68-13.86,15.26-19.44c0.33-0.33,1.15-1.23,2.46-2.71
				c1.31-1.48,2.3-2.5,2.95-3.08c0.65-0.57,1.64-1.43,2.95-2.58c1.31-1.15,2.42-1.97,3.32-2.46c0.9-0.49,2.01-0.94,3.32-1.35
				c1.31-0.41,2.62-0.62,3.94-0.62c0.65,0,1.15,0.37,1.48,1.11c0.33,0.74,0.33,1.52,0,2.34c-0.66,2.46-1.64,4.88-2.95,7.26
				c-1.31,2.38-3.12,4.84-5.41,7.38c-2.3,2.55-4.06,4.39-5.29,5.54c-1.23,1.15-3.41,3.2-6.52,6.15c-2.63,2.46-5.33,4.84-8.12,7.14
				c-0.98,1.97-2.05,4.1-3.2,6.4c-2.63,5.41-5.21,11.04-7.75,16.86c-2.55,5.83-5.54,13.17-8.98,22.03
				C763.97,497.99,761.67,503.74,760.52,506.36z M795.47,430.55l-0.25,0.49l-0.25,0.25c7.05-6.56,11.81-12.22,14.28-16.98
				c-0.33,0.33-2.21,2.38-5.66,6.15C800.64,423.75,797.93,427.11,795.47,430.55z"/>
		</g>
	</g>
</g>
<g id="Bus">
	<g>
		<g>
			<g>
				<g>
					<path class="st4" d="M435.07,600.96h-1.47c0.19,0.45,0.38,0.88,0.6,1.43C434.53,601.84,434.78,601.43,435.07,600.96z"/>
					<path class="st4" d="M398.64,574.62c0.42,0.17,0.63-0.03,0.79-0.38c0.27-0.57,0.55-1.14,0.82-1.72
						c0.07-0.15,0.13-0.31,0.24-0.61c-0.37,0.18-0.69,0.23-0.8,0.42C399.27,573.05,398.79,573.76,398.64,574.62z"/>
					<path class="st4" d="M397.61,574.37c0.26-0.58,0.51-1.14,0.85-1.87c-0.45,0.19-0.85,0.24-1.06,0.46
						c-0.47,0.54-0.79,1.2-1.06,1.95C396.9,574.88,397.37,574.9,397.61,574.37z"/>
					<path class="st4" d="M401.51,572.16c-0.14,0.25-0.29,0.49-0.41,0.75c-0.27,0.54-0.52,1.09-0.82,1.73
						c0.47,0.05,0.86,0.08,1.13,0.11c0.5-1.21,0.95-2.31,1.4-3.4C401.95,571.44,401.91,571.46,401.51,572.16z"/>
					<path class="st4" d="M406.1,570.75c-1.07,0.03-2.08-0.01-2.45,1.23c-0.03,0.11-0.13,0.21-0.18,0.31
						c-0.48,0.85-0.78,1.76-1.01,2.72c0.39,0.18,0.74,0.34,1.2,0.54C404.48,573.95,405.27,572.38,406.1,570.75z"/>
					<path class="st4" d="M404.29,579.02c0.34-0.1,0.47-0.26,0.37-0.62c-0.09-0.29-0.15-0.59-0.18-0.9
						c-0.04-0.39-0.25-0.58-0.65-0.64c-0.7,0.82-1.11,1.81-1.73,2.86C402.96,579.44,403.62,579.21,404.29,579.02z"/>
					<path class="st4" d="M409.45,571.27c-0.62-0.43-1.33-0.64-2.21-0.53c-0.85,1.66-1.73,3.38-2.63,5.14
						c0.61,0.26,1.18,0.51,1.77,0.76C407.42,574.82,408.43,573.06,409.45,571.27z"/>
					<path class="st4" d="M435.76,601.33c-0.37,0.61-0.67,1.08-0.95,1.56c-0.06,0.11-0.09,0.29-0.03,0.39
						c0.36,0.7,0.75,1.38,1.17,2.15C436.21,604.51,436.13,602.48,435.76,601.33z"/>
					<path class="st4" d="M407.01,587.58c0.05,0.2,0.21,0.38,0.31,0.58c0.11-0.07,0.16-0.09,0.18-0.13c0.64-1.39,1.29-2.78,1.9-4.18
						c0.1-0.21,0.05-0.49,0.08-0.84c-0.94,0.29-1.77,0.53-2.6,0.81c-0.61,0.2-0.64,0.25-0.51,0.85
						C406.58,585.65,406.78,586.62,407.01,587.58z"/>
					<path class="st4" d="M432.71,604.91c0.03,0.01,0.06,0.02,0.1,0.04c0.34-0.59,0.68-1.17,1.04-1.79
						c-0.23-0.48-0.47-0.95-0.76-1.54C432.94,602.82,432.82,603.86,432.71,604.91z"/>
					<path class="st4" d="M410.41,571.77c-1.3,1.72-2.26,3.51-3.06,5.41c0.57,0.43,1.12,0.86,1.72,1.32
						c0.96-1.73,1.9-3.45,2.88-5.24C411.48,572.79,410.97,572.31,410.41,571.77z"/>
					<path class="st4" d="M408.32,580.2c-0.48,0.91-0.95,1.8-1.41,2.69c0.03,0.04,0.06,0.07,0.09,0.11
						c0.78-0.24,1.55-0.49,2.33-0.74C409.43,581.3,409.16,580.64,408.32,580.2z"/>
					<path class="st4" d="M395.29,578.95c0.27-0.14,0.55-0.29,0.82-0.45c-0.04-0.31-0.07-0.56-0.1-0.81
						c-0.06-0.02-0.11-0.05-0.17-0.07c-0.22,0.41-0.45,0.82-0.67,1.22C395.21,578.88,395.24,578.92,395.29,578.95z"/>
					<path class="st4" d="M400.96,576.44c0.29-0.14,0.55-0.26,0.81-0.39C401.14,575.83,401.14,575.83,400.96,576.44z"/>
					<path class="st4" d="M403.52,584.01c0.63-0.15,1.26-0.35,1.92-0.55c-0.18-1.17-0.35-2.29-0.52-3.39
						c-0.05-0.02-0.1-0.03-0.14-0.05c-0.63,1.24-1.27,2.48-1.94,3.83C403.11,583.92,403.34,584.05,403.52,584.01z"/>
					<path class="st4" d="M401.37,579.46c0.42-0.41,1.44-2.2,1.72-3.03c-0.7,0.25-1.38,0.48-2.14,0.75
						c0.09,0.66,0.17,1.24,0.26,1.81C401.23,579.15,401.31,579.3,401.37,579.46z"/>
					<path class="st4" d="M404.02,580.01c-0.03-0.05-0.07-0.09-0.1-0.14c-0.75,0.26-1.5,0.53-2.26,0.8c0,1.2,0.23,2.19,0.62,2.58
						C403.02,582.24,403.44,581.08,404.02,580.01z"/>
					<path class="st4" d="M405.52,584.25c-0.57,0.18-0.97,0.31-1.47,0.47c0.3,0.25,0.53,0.44,0.8,0.66
						C405.07,585.03,405.25,584.72,405.52,584.25z"/>
					<path class="st4" d="M405.94,586.26c-0.06-0.3-0.1-0.56-0.17-0.9C405.35,585.94,405.35,585.94,405.94,586.26z"/>
					<path class="st4" d="M394.59,575.09c0.29-0.02,0.6,0.09,0.75-0.23c0.25-0.5,0.45-1.01,0.71-1.58
						C395.59,573.47,394.91,574.34,394.59,575.09z"/>
					<path class="st4" d="M406.21,582.73c0.51-1.04,1.02-2.06,1.57-3.12c-0.29-0.23-0.54-0.43-0.81-0.65
						c-0.48,0.17-0.94,0.34-1.44,0.52c0.18,1.1,0.35,2.14,0.52,3.19C406.1,582.69,406.15,582.72,406.21,582.73z"/>
					<path class="st4" d="M396.27,579.22c-0.55,0.26-1.06,0.5-1.57,0.73c0.66,0.21,1.17,0.71,1.92,0.7
						C396.51,580.17,396.4,579.74,396.27,579.22z"/>
					<path class="st4" d="M401.06,582.45c-0.02-0.23-0.04-0.46-0.06-0.71C400.58,582.19,400.58,582.19,401.06,582.45z"/>
					<path class="st4" d="M394.75,576.25c-0.3-0.23-0.58-0.08-0.82-0.06c-0.46,0.05-0.47,0.1-0.28,0.69
						C394,576.67,394.35,576.48,394.75,576.25z"/>
					<path class="st4" d="M395.41,576.67c-0.58,0.33-1.16,0.64-1.8,1c0.09,0.61,0.17,1.18,0.25,1.78
						C394.35,579.14,395.36,577.29,395.41,576.67z"/>
					<path class="st4" d="M398.85,578.17c-0.76,0.29-1.38,0.46-1.89,0.92c0.14,0.49,0.27,0.96,0.44,1.54
						C397.9,579.78,398.33,579.05,398.85,578.17z"/>
					<path class="st4" d="M399.42,577.09c0.49-0.23,0.67-0.79,0.46-1.43c-0.54-0.05-1.06-0.14-1.57-0.15
						c-0.52-0.01-1.05,0.09-1.46,0.44c-0.18,0.14-0.35,0.43-0.33,0.64c0.05,0.52,0.21,1.03,0.34,1.6
						C397.78,577.8,398.61,577.47,399.42,577.09z"/>
					<path class="st4" d="M405.71,578.58c0.13-0.07,0.27-0.15,0.49-0.27C405.81,578.08,405.74,578.32,405.71,578.58z"/>
					<path class="st4" d="M427.25,599.05c-0.43,1.94-0.83,3.75-1.27,5.71c1.02-0.86,1.93-1.62,2.82-2.37
						c-0.35-1.01-0.64-1.9-0.98-2.78C427.74,599.41,427.49,599.28,427.25,599.05z"/>
					<path class="st4" d="M424.25,598.85c0.43-0.25,0.84-0.48,1.3-0.75c-0.6-0.4-1.13-0.75-1.65-1.1
						C423.97,597.66,423.87,598.3,424.25,598.85z"/>
					<path class="st4" d="M426.29,597.11c0.78,0.34,1.56,0.67,2.47,1.06c0.58-2.69,0.55-5.37,0.9-7.97
						c-0.72-0.37-1.37-0.71-2.08-1.08C427.16,591.83,426.49,594.41,426.29,597.11z"/>
					<path class="st4" d="M426.62,588.44c-0.69-0.51-1.38-1.01-2.11-1.54c-0.55,2.61-1.08,5.12-1.61,7.69
						c0.82,0.65,1.64,1.31,2.55,2.04c0.08-0.33,0.13-0.51,0.17-0.7c0.24-1.42,0.47-2.84,0.71-4.25c0.14-0.79,0.3-1.58,0.43-2.37
						C426.81,589,426.92,588.67,426.62,588.44z"/>
					<path class="st4" d="M422.76,585.26c-0.29-0.22-0.53-0.49-0.86-0.8c-0.33,0.98-0.65,1.84-0.92,2.72
						c-0.37,1.25-0.67,2.51-1.05,3.75c-0.09,0.3-0.01,0.5,0.17,0.7c0.65,0.71,1.3,1.42,2.04,2.22c0.1-0.29,0.17-0.45,0.21-0.6
						c0.4-1.85,0.72-3.72,1.2-5.54C423.84,586.65,423.59,585.9,422.76,585.26z"/>
					<path class="st4" d="M423.12,599.57c0.15-0.1,0.35-0.33,0.32-0.47c-0.12-0.78-0.3-1.56-0.46-2.34
						c-0.71,1.34-1.45,2.59-1.92,4.12C421.85,600.38,422.5,600,423.12,599.57z"/>
					<path class="st4" d="M432.42,598.08c0.02-1.92,0.03-3.84,0.03-5.75c-0.01-1.03-0.02-1.03-0.96-1.4
						c-0.22-0.08-0.43-0.19-0.65-0.28c-0.14-0.05-0.29-0.08-0.49-0.13c-0.22,2.67-0.43,5.27-0.65,7.85c0.77,0.43,1.54,0.66,2.6,0.73
						C432.34,598.72,432.42,598.4,432.42,598.08z"/>
					<path class="st4" d="M400.15,581.26c-0.19,0.15-0.34,0.27-0.53,0.43C400.07,581.78,400.07,581.78,400.15,581.26z"/>
					<path class="st4" d="M400.24,577.5c-0.74,0.73-1.98,2.87-2.16,3.69c1-0.1,1.82-0.57,2.64-0.98
						C400.56,579.3,400.41,578.45,400.24,577.5z"/>
					<path class="st4" d="M393.12,579.63c-0.06-0.49-0.13-0.98-0.21-1.6c-0.76,0.48-1.61,0.67-2.1,1.46l-0.02,0.19
						C391.74,579.83,392.6,579.81,393.12,579.63z"/>
					<path class="st4" d="M419.72,582c-0.19,0.46-0.31,0.74-0.43,1.01c-0.69,1.5-1.37,3-2.05,4.5c-0.11,0.24-0.24,0.48-0.02,0.73
						c0.65,0.74,1.29,1.49,2,2.3c0.07-0.24,0.14-0.39,0.18-0.54c0.19-0.73,0.35-1.47,0.57-2.19c0.37-1.2,0.76-2.39,1.17-3.56
						c0.13-0.37,0.08-0.63-0.17-0.89C420.57,582.93,420.19,582.51,419.72,582z"/>
					<path class="st4" d="M429.4,601.72c0.52-0.4,0.99-0.75,1.46-1.11c0.05-0.03,0.07-0.1,0.15-0.22c-0.81-0.21-1.54-0.41-2.42-0.64
						C428.88,600.46,429.13,601.07,429.4,601.72z"/>
					<path class="st4" d="M408.34,552.97c-1.06,2.17-2.24,4.28-3.43,6.37c-1.02,1.78-2.14,3.51-3.24,5.24
						c-0.87,1.38-1.76,2.76-2.67,4.11c-0.59,0.88-1.23,1.72-1.92,2.66c1.99-0.19,3.77-0.84,5.65-1.01c1.01-0.09,2.01-0.3,3-0.51
						c2.22-0.46,4.12,0.26,5.79,1.64c2.11,1.73,3.85,3.84,5.55,5.96c0.67,0.82,1.3,1.69,2.04,2.45c1.46,1.48,2.97,2.9,4.5,4.32
						c0.57,0.53,1.22,0.98,1.81,1.48c1.64,1.37,3.35,2.62,5.39,3.33c0.8,0.27,1.6,0.54,2.54,0.54c-0.13-1.13-0.21-2.23-0.38-3.32
						c-0.18-1.09-0.41-2.18-0.69-3.26c-0.49-1.85-0.82-3.73-1.07-5.63c-0.27-2.12-0.15-4.22,0.42-6.24c0.43-1.55,1.06-3.04,1.72-4.5
						c0.73-1.61,1.59-3.17,2.42-4.74c1.08-2.05,2.21-4.06,3.61-5.92c0.9-1.21,1.82-2.41,2.75-3.61c1.11-1.45,2.51-2.51,4.27-3.01
						c1.85-0.52,3.73-0.97,5.57-1.45c-0.02-0.01-0.1-0.06-0.18-0.09c-0.95-0.29-1.9-0.57-2.85-0.86c-3.16-0.96-6.38-1.75-9.49-2.87
						c-1.58-0.57-3.2-1-4.82-1.49c-1.47-0.45-2.95-0.86-4.4-1.36c-0.91-0.31-1.78-0.74-2.45-1.49c-0.73-0.81-1.33-1.7-1.88-2.65
						c-1-1.75-1.94-3.52-2.58-5.43c-0.09-0.24-0.22-0.5-0.42-0.65c-0.42-0.33-0.88-0.62-1.34-0.89c-1.77-1.01-3.52-2.04-5.06-3.38
						c-1.05-0.92-2.17-1.75-3.21-2.68c-1.59-1.45-2.53-3.32-3.05-5.35c-0.29-1.16-0.42-2.39-0.1-3.62c-0.45,0.37-0.82,0.8-1.26,1.16
						c-1.92,1.59-2.81,3.76-3.39,6.09c-0.57,2.31-0.34,4.66-0.33,7c0.01,0.16,0.11,0.37,0.24,0.47c1.17,0.97,2.08,2.14,2.81,3.44
						c0.5,0.89,0.91,1.82,1.33,2.73c0.17,0.34,0.29,0.7,0.41,1.05c0.53,1.57,0.82,3.21,1.1,4.83c0.14,0.88,0.2,1.79,0.19,2.68
						c-0.01,1.32-0.51,2.53-1,3.74C409.63,549.84,409.09,551.45,408.34,552.97z"/>
					<path class="st4" d="M418.44,580.63c-0.21-0.18-0.36-0.43-0.54-0.66c-0.66,0.57-2.69,4.28-3.05,5.61
						c0.5,0.54,1.03,1.12,1.61,1.75c0.27-0.6,0.51-1.13,0.75-1.66c0.49-1.09,1-2.18,1.5-3.28
						C419,581.75,419.05,581.15,418.44,580.63z"/>
					<path class="st4" d="M425.28,604.51c0.48-1.93,1.04-3.84,1.25-6.03c-0.8,0.42-1.45,0.71-2.04,1.13
						c-0.09,0.06-0.11,0.29-0.09,0.44c0.23,1.48,0.49,2.96,0.74,4.44C425.18,604.5,425.23,604.51,425.28,604.51z"/>
					<path class="st4" d="M429.22,603.11c-0.15,0.06-0.23,0.07-0.28,0.11c-1.09,0.94-2.19,1.87-3.35,2.87
						c1.77,1.18,3.61,1.79,5.69,2.21C430.56,606.49,429.89,604.8,429.22,603.11z"/>
					<path class="st4" d="M420.69,602.89c1.22,0.93,2.47,1.81,3.69,2.72c0.05-0.04,0.1-0.09,0.15-0.13
						c-0.27-1.76-0.55-3.52-0.85-5.42c-1.07,0.7-2.04,1.32-2.99,1.97C420.31,602.3,420.3,602.59,420.69,602.89z"/>
					<path class="st4" d="M432.05,603.81c0.11-1.01,0.3-2.02,0.25-3.19c-1.04,0.54-1.84,1.16-2.57,1.88
						c0.64,1.48,1.27,2.91,1.9,4.36C431.83,605.82,431.94,604.82,432.05,603.81z"/>
					<path class="st4" d="M434.24,603.9c-0.77,1.3-1.46,2.49-2.02,3.94c1.28-0.43,2.39-0.8,3.55-1.2
						C435.26,605.72,434.78,604.86,434.24,603.9z"/>
					<path class="st4" d="M420.17,600.92c0.69-1.59,1.38-3.18,2.1-4.82c-0.94,0.15-2.04,0.63-2.71,1.17
						c0.16,1.18,0.33,2.41,0.5,3.64C420.09,600.91,420.13,600.91,420.17,600.92z"/>
					<path class="st4" d="M418.7,596.14c-0.09-0.79-0.13-1.6-0.2-2.4c-0.02-0.16-0.08-0.32-0.14-0.54c-1,1.57-2.17,2.92-2.67,4.78
						c0.99-0.23,1.78-0.65,2.58-1.06C418.61,596.75,418.74,596.54,418.7,596.14z"/>
					<path class="st4" d="M414.71,591.34c0.03,0.44,0.09,0.87,0.13,1.34c1.1-0.36,2.13-0.69,3.23-1.06
						c-1.09-1.33-2.12-2.6-3.15-3.87c-0.33,0.27-0.39,0.59-0.36,0.97C414.64,589.6,414.66,590.47,414.71,591.34z"/>
					<path class="st4" d="M415.08,576.77c-1.15,1.78-1.98,3.69-2.95,5.62c0.66,0.77,1.3,1.51,1.96,2.25
						c1.05-1.84,2.06-3.64,3.09-5.46C416.51,578.43,416.05,577.41,415.08,576.77z"/>
					<path class="st4" d="M417.77,592.62c-1.1,0.15-1.97,0.58-2.85,0.89c-0.14,1.08,0.15,2.05,0.39,3.07
						C416.13,595.25,416.92,593.99,417.77,592.62z"/>
					<path class="st4" d="M421.68,595.32c-0.46-0.43-0.88-0.8-1.28-1.2c-0.4-0.4-0.78-0.82-1.17-1.24
						c-0.03,0.02-0.07,0.06-0.11,0.08c0.1,1.09,0.19,2.2,0.3,3.37C420.25,595.96,420.93,595.65,421.68,595.32z"/>
					<path class="st4" d="M419.39,601.68c-0.19-1.42-0.38-2.78-0.58-4.19c-0.88,0.41-1.68,0.78-2.46,1.14
						C417.37,599.65,418.34,600.62,419.39,601.68z"/>
					<path class="st4" d="M435.08,597.42c-0.38-1.73-0.8-3.45-1.2-5.17c-0.06-0.25-0.09-0.51-0.17-0.76
						c-0.07-0.24-0.25-0.31-0.47-0.21v8.02c0.7,0.05,1.35,0.09,2.09,0.14C435.25,598.71,435.22,598.05,435.08,597.42z"/>
					<path class="st4" d="M447.15,466.33c0.63,0.08,0.84,0.54,1,1.04c0.23,0.67,0.46,1.33,0.68,2.01c0.06,0.17,0.12,0.35,0.17,0.53
						c0.18,0.69,0.31,1.38,0.54,2.05c0.23,0.68,0.58,1.33,0.86,2c0.19,0.46,0.34,0.94,0.54,1.39c0.55,1.18,1.22,2.29,2.1,3.27
						c0.08,0.09,0.17,0.15,0.31,0.27c0-0.15,0.03-0.23,0-0.29c-0.59-1.33-1.2-2.67-1.8-4c-0.37-0.8-0.81-1.56-1.12-2.37
						c-0.37-0.99-0.62-2.02-0.94-3.03c-0.38-1.14-0.78-2.28-1.18-3.41c-0.22-0.65-0.47-1.29-0.69-1.89
						c-0.31-0.03-0.5-0.03-0.69-0.07c-0.26-0.06-0.53-0.15-0.8-0.23c-0.18-0.05-0.35-0.11-0.52-0.17c-0.79-0.26-1.36-0.84-1.99-1.33
						c-1.56-1.21-2.58-2.8-3.27-4.63c-0.05-0.13-0.09-0.28-0.08-0.41c0.02-0.16,0.05-0.37,0.15-0.45c0.39-0.29,0.81-0.67,1.25-0.74
						c0.73-0.11,1.49,0.1,2.02,0.65c0.59,0.6,1.25,1.17,1.61,1.97c0.06,0.14,0.18,0.25,0.28,0.38c-0.23-1.02-0.54-2.01-0.88-2.98
						c-0.29-0.82-0.7-1.53-1.64-1.74c-0.13-0.03-0.24-0.15-0.38-0.21c-0.14-0.07-0.3-0.14-0.46-0.15c-1.46-0.21-2.24,0.14-2.88,1.42
						c-0.49,0.98-0.67,2.05-0.32,3.11c0.5,1.48,1.4,2.75,2.53,3.81c0.34,0.31,0.67,0.63,1.01,0.95c0.45,0.42,0.89,0.89,1.42,1.14
						c1.04,0.5,1.98,1.08,2.8,1.89C446.91,466.18,447.03,466.32,447.15,466.33z"/>
					<path class="st4" d="M440.48,466.25c0.66-0.22,1.33-0.26,2.02-0.21c0.48,0.03,0.97,0,1.46,0c0.02-0.06,0.05-0.13,0.06-0.19
						c-0.26-0.19-0.28-0.63-0.77-0.61c-1.37,0.07-2.72,0.25-4.06,0.5c0.05,0.26,0.09,0.47,0.14,0.71
						C439.73,466.38,440.12,466.36,440.48,466.25z"/>
					<path class="st4" d="M442.61,464.34c-0.27-0.21-0.54-0.42-0.94-0.73c0.1,0.41,0.16,0.66,0.23,0.93
						c0.25-0.02,0.47-0.04,0.68-0.07C442.59,464.43,442.6,464.38,442.61,464.34z"/>
					<path class="st4" d="M441.29,464.61c-0.17-0.92-0.24-1.78-1.06-2.36c-0.31-0.23-0.54-0.58-0.81-0.88
						c-0.2-0.23-0.39-0.46-0.58-0.69c-0.03,0.02-0.07,0.03-0.1,0.05c0.43,1.35,0.87,2.7,1.32,4.08
						C440.45,464.75,440.81,464.69,441.29,464.61z"/>
					<path class="st4" d="M409.82,587.56c-0.06-0.74-0.1-1.49-0.15-2.25c-0.05-0.01-0.1-0.03-0.14-0.05
						c-0.47,1.08-0.95,2.14-1.49,3.37c0.58-0.19,0.97-0.34,1.37-0.45C409.73,588.09,409.84,587.88,409.82,587.56z"/>
					<path class="st4" d="M439.5,464.89c-0.35-1.11-0.68-2.16-1-3.22c-0.31-1.04-0.33-2.16-0.78-3.27
						c-0.45,0.06-0.92,0.13-1.45,0.21c0.78,2.18,1.56,4.3,2.33,6.44C438.93,465,439.17,464.96,439.5,464.89z"/>
					<path class="st4" d="M441.93,457.07c-0.11,0.09-0.23,0.27-0.21,0.38c0.05,0.25,0.13,0.51,0.29,0.7
						c0.67,0.78,1.37,1.53,2.06,2.29c-0.31-1.27-1.05-2.26-1.81-3.24C442.21,457.11,441.99,457.03,441.93,457.07z"/>
					<path class="st4" d="M427.6,467.11c-0.67-2.25-1.32-4.45-1.97-6.67c-0.34,0.07-0.63,0.13-0.98,0.21
						c0.62,2.26,1.2,4.48,2.16,6.64C427.09,467.23,427.36,467.16,427.6,467.11z"/>
					<path class="st4" d="M435.51,462.55c-0.13-0.42-0.23-0.74-0.34-1.13c-1.38,0.31-2.72,0.61-4.11,0.93
						c0.12,0.33,0.23,0.63,0.37,1.01C432.79,463.08,434.09,462.83,435.51,462.55z"/>
					<path class="st4" d="M430.43,466.5c0.23-0.05,0.46-0.1,0.69-0.15c0.04-0.01,0.07-0.06,0.14-0.12c-0.44-1.62-0.9-3.24-1.49-4.84
						c-0.21-0.58-0.43-1.16-0.67-1.72c-0.31,0.07-0.58,0.13-0.78,0.18c0.39,1.22,0.77,2.43,1.15,3.62
						C429.79,464.46,430.11,465.48,430.43,466.5z"/>
					<path class="st4" d="M437.75,465.01c-0.22-0.56-0.46-1.12-0.67-1.69c-0.33-0.83-0.62-1.67-0.96-2.5
						c-0.05-0.12-0.18-0.21-0.27-0.31c0.14,0.5,0.29,1.02,0.44,1.53c0.29,0.94,0.57,1.89,0.88,2.83
						C437.29,465.25,437.31,465.25,437.75,465.01z"/>
					<path class="st4" d="M428.94,466.83c0.02-0.01,0.03-0.01,0.05-0.01c0.16-0.05,0.31-0.1,0.47-0.15
						c-0.08-0.35-0.18-0.74-0.28-1.14c-0.6-2.26-1.52-4.95-1.89-5.45c-0.29,0.06-0.59,0.11-1.04,0.21c0.68,2.28,1.18,4.51,2.09,6.64
						C428.57,466.88,428.76,466.87,428.94,466.83z"/>
					<path class="st4" d="M435.89,463.81c-0.08-0.26-0.14-0.44-0.22-0.68c-1.38,0.31-2.7,0.61-4.07,0.92
						c0.07,0.24,0.14,0.46,0.2,0.67C433.19,464.41,434.53,464.11,435.89,463.81z"/>
					<path class="st4" d="M436.39,465.3c-0.1-0.29-0.18-0.52-0.25-0.75c-0.98-0.01-3.22,0.5-4.11,0.93
						c0.04,0.19,0.07,0.39,0.12,0.59C433.57,465.82,434.95,465.56,436.39,465.3z"/>
					<path class="st4" d="M447.85,481.97c-1.21,0.1-2.4,0.51-3.58,0.84c-1.8,0.49-3.55,1.16-5.25,1.94c-2.17,1-4.33,2.02-6.35,3.32
						c-1.07,0.69-2.17,1.32-3.08,2.25c-0.54,0.55-0.85,1.08-0.81,1.9c0.03,0.47,0.05,0.95,0.08,1.42c0.06,1.17,0.15,2.34,0.47,3.49
						c0.34,1.21,0.78,2.38,1.36,3.49c0.52,0.98,1.13,1.91,1.32,3.03c0.01,0.09,0.07,0.17,0.15,0.34c0.53-0.35,1-0.68,1.48-0.97
						c0.18-0.11,0.36-0.22,0.55-0.34c1.95-1.2,3.89-2.41,5.86-3.57c1.49-0.88,3-1.7,4.54-2.49c1.37-0.71,2.79-1.32,4.15-2.03
						c2.14-1.13,4.37-2.01,6.76-2.48c0.68-0.14,1.34-0.45,1.97-0.77c0.42-0.21,0.62-0.84,0.45-1.23c-0.45-0.97-0.91-1.92-1.4-2.86
						c-0.5-0.97-1.09-1.89-1.55-2.87c-0.27-0.56-0.58-1-1.13-1.31C451.96,482.04,449.92,481.79,447.85,481.97z"/>
					<path class="st4" d="M418.4,497.31c-1.1-0.05-2.22-0.1-3.43-0.15c0,0.23-0.01,0.37,0,0.5c0.11,1.13,0.22,2.26,0.36,3.38
						c0.08,0.61,0.17,1.23,0.37,1.8c0.45,1.29,0.2,1,1.46,1.04c0.02,0,0.05-0.02,0.07-0.05c0.01-0.05,0.03-0.13,0.03-0.19
						c-0.1-0.82-0.26-1.63-0.3-2.45c-0.05-0.99,0.01-1.98,0.02-2.97c0.01-0.31,0.08-0.6,0.58-0.69c0,0.26,0.02,0.48-0.01,0.69
						c-0.21,1.73-0.06,3.44,0.25,5.15c0.11,0.61,0.14,0.62,0.83,0.46C418.56,501.69,418.48,499.53,418.4,497.31z"/>
					<path class="st4" d="M413.61,497.18c-0.13,1.31,0.34,5.53,0.7,6.54c0.33,0.02,0.68,0.05,1.08,0.07
						c-0.8-2.14-0.69-4.36-1.07-6.58C414.08,497.2,413.84,497.19,413.61,497.18z"/>
					<path class="st4" d="M402.98,527.57c0.13-0.79,0.19-1.53,0.36-2.23c0.43-1.74,0.86-3.48,1.4-5.2c0.34-1.12,0.79-2.22,1.31-3.28
						c0.53-1.08,1.16-2.12,2.2-2.83c0.88-0.59,1.72-1.25,2.59-1.86c1.21-0.87,2.65-1.21,4-1.8c0.62-0.27,1.29-0.47,1.95-0.64
						c1.58-0.4,3.18-0.71,4.75-1.17c1.97-0.57,3.92-1.2,5.58-2.51c1.31-1.03,1.82-2.3,1.48-3.85c-0.37-1.7-0.92-3.37-1.38-5.06
						c-0.45-1.62-1-3.21-1.01-4.91c-0.01-0.3-0.01-0.65,0.13-0.89c0.39-0.67,0.81-1.32,1.34-1.87c0.32-0.34,0.69-0.65,1.13-0.9
						c0.85-0.49,1.65-1.1,2.5-1.6c1.32-0.78,2.65-1.55,4.01-2.25c1.2-0.62,2.44-1.12,3.65-1.69c2-0.94,4.1-1.57,6.17-2.28
						c1.48-0.5,3.01-0.83,4.42-1.53c0.27-0.13,0.54-0.27,0.78-0.38c0.05-0.86-0.31-1.54-0.58-2.24c-1-2.52-2.02-5.03-3.05-7.55
						c-0.14-0.33-0.34-0.62-0.53-0.92c-0.2-0.3-0.47-0.46-0.86-0.54c-1.09-0.2-2.19-0.33-3.29-0.3c-0.94,0.02-1.9,0.03-2.83,0.18
						c-2.41,0.38-4.8,0.81-7.21,1.24c-0.71,0.13-1.44,0.28-2.14,0.48c-0.42,0.12-0.84,0.24-1.25,0.37
						c-0.76,0.22-1.52,0.46-2.28,0.71c-2.18,0.74-4.38,1.49-6.55,2.28c-1.28,0.46-2.53,1.04-3.81,1.49
						c-1.69,0.61-3.41,1.11-5.1,1.71c-1.62,0.58-3.24,1.19-4.83,1.86c-0.05,0.02-0.1,0.04-0.14,0.06l0.24-1.53
						c2.86-1.16,5.72-2.31,8.6-3.4c1.58-0.61,3.21-1.12,4.82-1.66c1.41-0.47,2.8-0.99,4.23-1.38c1.65-0.46,3.32-0.82,4.98-1.24
						c0.33-0.08,0.66-0.17,1-0.26c2.54-0.69,5.06-1.43,7.6-2.14c-0.8,0.05-1.6,0.14-2.38,0.3c-2.04,0.43-4.08,0.85-6.1,1.33
						c-0.39,0.09-0.77,0.18-1.16,0.28c-2.33,0.57-4.66,1.2-6.96,1.88c-2.38,0.71-4.74,1.49-7.08,2.3c-1.9,0.66-3.76,1.42-5.62,2.14
						c-0.58,0.23-1.17,0.45-1.74,0.69l0.34-2.2c0.08,0.18,0.15,0.37,0.23,0.56c0.1,0.25,0.23,0.49,0.62,0.2
						c-0.23-0.6-0.46-1.21-0.69-1.81l0.17-1.1c0.5,1.24,0.97,2.36,1.19,2.71c0.24-0.11,0.49-0.22,0.71-0.31
						c-0.54-1.47-1.07-2.91-1.6-4.35l0.19-1.2c0.59,1.8,1.29,3.55,2.09,5.28c0.34-0.15,0.6-0.27,0.92-0.41
						c-1.27-2.21-1.8-4.62-2.55-6.97c-0.05,0.02-0.1,0.03-0.14,0.06l0.15-1c0.01-0.01,0.02-0.01,0.03-0.01h-0.03l0.31-2
						c1.66-0.51,3.33-1.01,4.99-1.51c1.61-0.47,3.23-0.88,4.84-1.34c2.29-0.66,4.63-1.17,6.96-1.66c1.78-0.37,3.57-0.69,5.37-0.98
						c1.37-0.22,2.75-0.42,4.13-0.61c0.73-0.1,1.45-0.19,2.18-0.27c0.52-0.06,0.87-0.26,1.1-0.79c0.58-1.36,1.61-2.31,2.97-2.88
						c0.42-0.17,0.49-0.45,0.26-0.83c-0.15-0.26-0.31-0.52-0.42-0.8c-0.33-0.81-0.58-1.65-0.96-2.44c-0.77-1.66-1.48-3.33-2.17-5.03
						c-1-2.45-1.93-4.92-2.93-7.36c-0.59-1.44-1.22-2.87-1.82-4.31c-0.14-0.33-0.32-0.55-0.7-0.61c-0.63-0.09-1.25-0.25-1.88-0.34
						c-1.92-0.29-3.86-0.42-5.79-0.39c-1.14,0.02-2.28,0.03-3.43,0.06c0.53-0.36,1.06-0.7,1.62-1.01c0.8-0.45,1.61-0.86,2.45-1.21
						c-7.85,3.06-13.77,10.15-15.04,18.92l-8.56,59.14l0.29-1.87c5.58,0.21,11.05,0.86,16.52,1.23c0.06-0.17,0.11-0.27,0.14-0.38
						c0.03-0.11,0.03-0.23,0.06-0.38c-0.13-0.06-0.19-0.1-0.26-0.1c-1.81-0.1-3.63-0.26-5.45-0.27c-2.9-0.02-5.81,0.08-8.72-0.18
						c-0.76-0.07-1.51-0.11-2.26-0.15l0.13-0.77l0.06-0.38l0.58-3.72v0.03c1.84-0.18,3.64,0.29,5.42-0.14v-1.77h-5.13l0.13-0.8
						c1.39-0.01,2.78-0.02,4.18-0.03c2.79-0.02,5.58-0.08,8.37-0.1c0.96,0,1.92,0.07,2.91,0.1c-0.03-0.43-0.19-0.62-0.58-0.6
						c-0.38,0.02-0.76-0.01-1.13,0.02c-3.09,0.23-6.19,0.16-9.29,0.15c-1.46-0.01-2.92-0.02-4.38-0.03l0.19-1.18
						c0.53,0.01,1.05,0.02,1.57,0.02c2.79-0.01,5.57-0.1,8.36-0.15c1.68-0.03,3.36-0.04,5.04-0.05c0.56,0,1.14,0.01,1.69,0.1
						c0.67,0.1,0.77,0.23,0.78,0.88c0.03,1.61,0.05,3.21,0,4.82c-0.07,2.03-0.21,4.06-0.32,6.09c-0.39,0.6-1.01,0.62-1.67,0.54
						c-0.51-0.07-1.04-0.11-1.56-0.14c-1.45-0.07-2.92-0.12-4.38-0.19c-1.04-0.05-2.08-0.16-3.11-0.21c-1-0.05-1.98-0.02-2.97-0.07
						c-1.74-0.09-3.48-0.2-5.21-0.31l-2.64,18.18c1.21,1.01,2.45,2.01,3.7,2.99C402.63,527.43,402.81,527.48,402.98,527.57z"/>
					<path class="st4" d="M419.26,496.38c-0.02-0.15-0.03-0.31-0.05-0.47c-0.07,0.01-0.13,0.02-0.2,0.04
						c0.05,0.15,0.09,0.31,0.14,0.46C419.19,496.4,419.23,496.38,419.26,496.38z"/>
					<path class="st4" d="M412.16,497.23c-0.04,0.4-0.14,0.73-0.1,1.05c0.17,1.57,0.35,3.14,0.56,4.71c0.1,0.69,0.22,0.73,0.92,0.62
						c-0.19-2.13-0.39-4.26-0.6-6.42C412.66,497.2,412.43,497.21,412.16,497.23z"/>
					<path class="st4" d="M393.12,614.54c2.13,0.32,4.26,0.61,6.4,0.82c3.6,0.37,7.21,0.51,10.83,0.14
						c1.84-0.19,3.65-0.46,5.44-0.92c0.88-0.23,1.7-0.57,2.46-1.2c-0.18-0.21-0.3-0.38-0.45-0.54c-1.53-1.55-2.28-3.5-2.81-5.56
						c-0.29-1.12-0.55-2.25-0.94-3.33c-0.68-1.92-1.38-3.82-2.24-5.66c-0.83-1.81-1.61-3.63-2.65-5.32
						c-0.98-1.58-1.88-3.24-3.25-4.54c-0.6-0.57-1.17-1.18-1.76-1.75c-1.25-1.2-2.6-2.25-4.16-3.04c-2.88-1.46-5.94-2.26-9.11-2.71
						c-0.09-0.01-0.18-0.02-0.27-0.02l-3.19,21.98c-0.59,4.13,0.51,8.06,2.76,11.15C391.16,614.21,392.13,614.39,393.12,614.54z"/>
					<path class="st4" d="M402.82,502.36c1.81-0.05,3.55-0.09,5.35-0.13c-0.03-0.24-0.04-0.43-0.06-0.62h-5.29V502.36z"/>
					<path class="st4" d="M410.12,497.25c0.52,2.14,0.67,4.26,0.77,6.37h1.17c-0.24-2.15-0.48-4.25-0.72-6.37H410.12z"/>
					<path class="st4" d="M419.7,505.64c-0.25-2.85-0.07-5.65-0.37-8.58c-0.48,0.37-0.37,0.73-0.35,1.03
						c0.04,1.3,0.11,2.59,0.18,3.88c0.01,0.26-0.02,0.52-0.01,0.78c0.05,0.54-0.17,1.13,0.22,1.55c-0.19,0.42-0.35,0.8-0.55,1.25
						C419.14,505.59,419.36,505.61,419.7,505.64z"/>
					<path class="st4" d="M403.53,501.06c0.85,0.01,1.7,0.1,2.55,0.1c0.64-0.01,1.31,0.04,1.98-0.21c-0.03-0.38-0.07-0.73-0.11-1.2
						c-1.81,0.24-3.55-0.14-5.32,0.03c0,0.19-0.01,0.3,0,0.41C402.71,500.94,402.76,501.05,403.53,501.06z"/>
					<path class="st4" d="M409.38,497.65c-0.06-0.25-0.14-0.54-0.48-0.39c-0.26,2.14,0.26,4.22,0.28,6.38h0.78
						c0.11-1.66-0.07-3.2-0.3-4.74C409.59,498.48,409.49,498.07,409.38,497.65z"/>
					<path class="st4" d="M407.71,502.81c-1.31,0-2.63,0-3.94,0.01c-0.23,0-0.47,0.05-0.69,0.12c-0.11,0.03-0.19,0.16-0.29,0.25
						c0.02,0.06,0.03,0.13,0.05,0.19c1.82,0.11,3.64,0.22,5.51,0.33c-0.03-0.32-0.05-0.54-0.07-0.8
						C408.07,502.86,407.89,502.81,407.71,502.81z"/>
					<path class="st4" d="M453.81,482.15c-0.13-1.08-0.29-1.41-0.88-1.92c-1.06,0.28-2.13,0.55-3.2,0.84
						C451.08,481.53,452.54,481.4,453.81,482.15z"/>
					<path class="st4" d="M415.28,604.38c0.38,1.16,0.67,2.36,0.98,3.54c0.5,1.97,1.61,3.55,3.08,4.94
						c1.82-0.55,3.65-1.08,5.47-1.66c1.23-0.39,2.28-1.16,3.43-1.73c-0.05-0.07-0.06-0.1-0.07-0.11c-0.1-0.05-0.21-0.1-0.31-0.14
						c-1.98-0.7-3.75-1.78-5.35-3.12c-1.16-0.97-2.26-2-3.35-3.05c-1.69-1.65-3.35-3.34-5-5.02c-0.77-0.78-1.51-1.57-2.29-2.38
						c0.67,1.6,1.35,3.15,1.97,4.73C414.35,601.69,414.84,603.03,415.28,604.38z"/>
					<path class="st4" d="M468.44,520.06c-0.45-0.69-0.89-1.38-1.3-2.09c-0.74-1.29-1.45-2.6-2.16-3.91
						c-0.13-0.24-0.26-0.47-0.38-0.71c-0.13-0.26-0.25-0.53-0.33-0.82c-0.3-1.02-0.53-2.06-0.77-3.09
						c-0.32-1.45-0.73-2.88-0.86-4.38c-0.07-0.86-0.27-1.73-0.51-2.57c-0.55-1.88-1.16-3.75-1.76-5.62
						c-0.41-1.28-0.83-2.56-1.28-3.95c-1.54,0.43-3.04,0.85-4.53,1.28c-0.82,0.24-1.62,0.52-2.43,0.78c-1,0.31-2.01,0.57-2.97,0.96
						c-2.11,0.86-4.06,2.02-6.02,3.17c-1.02,0.6-1.97,1.3-3,1.89c-1.63,0.96-3.29,1.85-4.93,2.8c-0.18,0.1-0.37,0.21-0.55,0.32
						c-1.13,0.67-2.26,1.36-3.31,2.17c-0.76,0.58-1.54,1.09-2.38,1.49c-2.69,1.3-5.53,2.2-8.45,2.84c-0.34,0.07-0.68,0.17-1.09,0.27
						c0.5,0.47,1.13,0.76,1.09,1.53c-0.48-0.09-0.49-0.09-0.71-0.37c-0.42-0.53-0.97-0.93-1.64-0.85c-0.67,0.07-1.32,0.37-1.97,0.56
						c2.64,0.37,4.34,1.72,5.23,4.14c-0.1,0.37-0.1,0.71-0.27,0.91c-0.17,0.18-0.51,0.19-0.84,0.3c0.17,0.21,0.33,0.39,0.49,0.58
						c0.23,0.26,0.17,0.46-0.14,0.66c-0.13-0.12-0.31-0.21-0.35-0.34c-0.22-0.61-0.77-0.69-1.26-0.71
						c-0.45-0.02-0.76-0.19-0.92-0.54c-0.15-0.35-0.21-0.76-0.26-1.15c-0.01-0.13,0.1-0.31,0.2-0.43c0.23-0.25,0.48-0.47,0.8-0.78
						c0.39,0.28,0.85,0.61,1.39,1c-0.62-1.78-2.15-2.73-3.81-2.6c-0.58,0.04-1.17,0.09-1.7,0.39c-0.21,0.12-0.38,0.23-0.14,0.48
						c0.05,0.05,0.04,0.15,0.05,0.21c-0.3,0.18-0.55,0.12-0.65-0.11c-0.07-0.19-0.06-0.48,0.03-0.67c0.12-0.25,0.35-0.45,0.53-0.67
						c-0.67,0.21-1.34,0.43-1.89,0.81c-1.28,0.87-2.16,1.99-1.85,3.68c0.06,0.33,0.09,0.66,0.15,0.98c0.3,1.37,0.7,2.69,1.63,3.81
						c0.66,0.81,1.5,1.44,2.22,2.18c1.63,1.67,3.72,2.67,5.62,3.95c1.04,0.7,2.2,1.21,3.14,2.05c0.11,0.1,0.34,0.19,0.42,0.14
						c0.23-0.14,0.41-0.06,0.61,0.01c0.28,0.11,0.54,0.05,0.71-0.17c0.38-0.44,0.73-0.91,1.11-1.36c0.09-0.11,0.22-0.26,0.34-0.27
						c0.25-0.02,0.26,0.19,0.29,0.39c0.1,0.99-0.35,1.76-0.98,2.45c-0.39,0.43-0.84,0.77-1.48,0.64c-0.03,0-0.06,0.06-0.07,0.07
						c0.03,0.31,0.16,0.63,0.08,0.89c-0.07,0.21-0.06,0.35,0.02,0.51c0.19,0.43,0.36,0.88,0.58,1.29c0.42,0.8,0.86,1.58,1.3,2.36
						c0.89,1.59,2.08,2.78,3.9,3.29c1.96,0.55,3.9,1.17,5.83,1.78c1.97,0.61,3.92,1.27,5.89,1.86c2.15,0.65,4.32,1.24,6.48,1.86
						c0.89,0.26,1.76,0.56,2.65,0.79c1.85,0.48,3.72,0.9,5.58,1.38c1.49,0.39,2.96,0.64,4.46,0.09c0.1-0.04,0.23-0.02,0.34-0.05
						c0.84-0.24,1.7-0.4,2.46-0.88c0.33-0.2,0.5-0.45,0.59-0.83c0.36-1.48,0.37-2.97,0.24-4.48c-0.09-1.07-0.33-2.16,0.11-3.25
						c-0.1-0.01-0.16-0.02-0.22-0.02c-0.1,0-0.19,0.02-0.28-0.01c-1.36-0.47-2.61-1.06-3.41-2.37c-0.3-0.5-0.56-1.11-1.26-1.21
						c-0.13,0.2-0.25,0.38-0.41,0.63c-0.19-0.21-0.35-0.36-0.49-0.54c-0.19-0.25-0.2-0.98-0.02-1.25c0.23-0.35,0.56-0.13,0.85-0.13
						c0.11,0,0.25,0.04,0.34,0.1c0.71,0.51,1.47,0.49,2.29,0.28c1.52-0.38,3.03-0.78,4.44-1.46c0.42-0.21,0.76-0.67,0.63-0.99
						c-0.18-0.44-0.34-0.92-0.63-1.28c-0.77-0.93-1.41-1.93-1.93-3.11h-2.32c-0.31-0.49-0.26-0.84,0.11-1.16
						c0.42,0.04,0.84,0.13,1.26,0.1c0.6-0.03,1.27-0.02,1.8-0.26c0.78-0.37,1.59-0.41,2.4-0.5c0.31-0.04,0.61-0.06,0.92-0.11
						c1.25-0.21,1.78-1.3,1.12-2.37C469.7,521.84,469.05,520.97,468.44,520.06z M421.86,521.87c-0.14-0.42-0.28-0.83-0.39-1.15
						c-0.48-0.26-0.88-0.47-1.28-0.68c-0.03,0.02-0.06,0.05-0.09,0.07c0.16,0.35,0.32,0.69,0.52,1.1c-0.65,0.25-1.04-0.15-1.4-0.46
						c-0.71-0.61-0.9-1.45-0.56-2.3c0.33-0.13,0.58,0.07,0.83,0.23c0.23,0.15,0.42,0.24,0.75,0.18c0.47-0.08,0.89,0.24,1.2,0.59
						c0.53,0.61,0.67,1.38,0.92,2.13C422.2,521.67,422.06,521.75,421.86,521.87z M459.27,509.45c-0.67,0.77-0.72,0.81-1.56,1.21
						c0.03,0.97,0.31,1.96-0.15,2.96c0.16,0.05,0.29,0.07,0.4,0.13c0.24,0.13,0.36,0.36,0.27,0.59c-0.05,0.13-0.27,0.21-0.42,0.27
						c-1.65,0.61-3.16,0.11-4.63-0.61c-1.09-0.54-2.21-0.94-3.44-0.97c-0.39-0.01-0.39-0.04-0.45-0.48
						c1.14-0.41,2.29-0.82,3.43-1.23c0.02-0.01,0.05-0.01,0.07-0.02c1.32-0.63,2.64-1.25,3.98-1.89c-0.1-0.58-0.18-1.14-0.29-1.69
						c-0.17-0.79-0.53-0.97-1.34-0.82c-1.14,0.21-2.1,0.83-3.09,1.36c-1.38,0.74-2.73,1.49-4.22,1.98c-0.4,0.13-0.77,0.34-1.15,0.51
						c-0.26-0.17-0.43-0.28-0.65-0.43c0.47-0.22,0.9-0.4,1.31-0.61c0.42-0.22,0.79-0.54,1.22-0.72c1.35-0.53,2.54-1.35,3.79-2.06
						c0.87-0.5,1.84-0.82,2.77-1.21c0.21-0.09,0.42-0.2,0.65-0.23c0.65-0.1,1.15,0.17,1.43,0.9c0.26,0.68,0.4,1.4,0.57,2.11
						c0.04,0.18,0.02,0.38,0.04,0.58c0.18,0.17,0.34,0.24,0.61,0.09c0.21-0.11,0.49-0.15,0.73-0.15
						C459.36,509.03,459.42,509.28,459.27,509.45z M459.3,504.75c-0.24,0-0.61-0.3-0.65-0.55c-0.04-0.23,0-0.51-0.12-0.69
						c-0.66-1.04-1.48-1.89-2.81-1.99c-0.59-0.04-1.09,0.2-1.59,0.51c-0.77,0.5-1.62,0.89-2.35,1.44c-2.3,1.73-4.89,2.96-7.27,4.55
						c-0.49,0.33-1,0.63-1.53,0.89c-0.46,0.23-0.92,0.18-1.38-0.28c1.49-0.8,3-1.49,4.25-2.57c0.7-0.6,1.35-1.26,2.1-1.8
						c1.38-0.99,2.82-1.91,4.23-2.86c0.1-0.06,0.2-0.12,0.31-0.17c0.85-0.33,1.65-0.78,2.41-1.29c0.87-0.58,2.54-0.32,3.3,0.58
						c0.76,0.91,1.42,1.83,1.52,3.05c0.02,0.18,0.04,0.37,0.03,0.56C459.74,504.54,459.57,504.75,459.3,504.75z"/>
					<path class="st4" d="M412.27,594.3c0.86,0.81,1.4,1.68,2.25,2.4c-0.17-1.05-0.31-1.97-0.47-2.95
						C413.49,593.93,412.96,594.09,412.27,594.3z"/>
					<path class="st4" d="M409,463.96c-0.3,0-0.6,0.02-0.93,0.36C408.51,464.3,408.79,464.23,409,463.96z"/>
					<path class="st4" d="M411.64,471.89c-0.84-2.34-1.67-4.63-2.51-6.96c-0.18,0.06-0.37,0.13-0.62,0.22
						c0.77,2.39,1.27,4.81,2.6,6.98C411.35,472.03,411.53,471.94,411.64,471.89z"/>
					<path class="st4" d="M413.92,589.72c-0.8,1.24-1.63,2.41-2.22,3.9c0.92-0.23,1.7-0.34,2.43-0.72
						C414.06,591.81,413.99,590.76,413.92,589.72z"/>
					<path class="st4" d="M409.8,588.84c-0.57,0.18-1.04,0.34-1.6,0.52c0.59,0.66,1.09,1.24,1.68,1.91
						C409.88,590.4,409.92,589.65,409.8,588.84z"/>
					<path class="st4" d="M431.1,461.59c1.21-0.28,2.41-0.57,3.61-0.86c0.09-0.02,0.19-0.03,0.28-0.05
						c-0.74-0.26-2.98,0.15-4.28,0.61C430.91,461.61,430.91,461.64,431.1,461.59z"/>
					<path class="st4" d="M414.6,576.02c-0.61-0.66-1.22-1.34-1.93-2.12c-1.07,1.88-2.06,3.61-2.9,5.41
						c0.6,0.76,1.16,1.46,1.73,2.18C412.55,579.63,413.21,577.66,414.6,576.02z"/>
					<path class="st4" d="M411.15,592.85c0.55-0.93,1.09-1.85,1.6-2.77c0.33-0.58,0.61-1.17,0.89-1.77c0.09-0.19,0.1-0.41,0.17-0.77
						c-1.16,0.36-2.16,0.67-3.17,0.98c-0.03,0.2-0.05,0.27-0.05,0.34c0.07,1.06,0.17,2.12,0.21,3.17
						C410.81,592.38,410.78,592.67,411.15,592.85z"/>
					<path class="st4" d="M413.61,586.82c-0.1-0.94-0.1-0.93-0.59-1.53c-0.33-0.41-0.64-0.82-0.98-1.21c-0.32-0.37-0.64-0.75-1-1.1
						c-0.27-0.26-0.44-0.22-0.6,0.11c-0.1,0.18-0.21,0.4-0.19,0.59c0.09,1.36,0.22,2.71,0.33,4.1
						C411.6,587.46,412.59,587.14,413.61,586.82z"/>
					<path class="st4" d="M437.69,457.57c-0.12-0.06-0.24-0.17-0.36-0.17c-0.45,0.01-0.89,0.04-1.34,0.07
						c-0.82,0.06-1.65,0.06-2.46,0.21c-1.11,0.19-2.2,0.41-3.3,0.62c-0.97,0.18-1.93,0.37-2.9,0.54c-2.99,0.51-5.9,1.33-8.82,2.1
						c-2.74,0.73-5.44,1.58-8.15,2.39c-0.27,0.08-0.51,0.24-0.77,0.36c1.57-0.36,3.09-0.86,4.62-1.29c1.52-0.42,3.06-0.81,4.6-1.17
						c1.56-0.37,3.13-0.71,4.7-1.06c1.57-0.34,3.14-0.7,4.71-1.01c0.65-0.13,1.29-0.24,1.93-0.34c0.92-0.16,1.84-0.31,2.75-0.48
						c1.57-0.3,3.19-0.11,4.72-0.57C437.64,457.7,437.67,457.63,437.69,457.57z"/>
					<path class="st4" d="M420.29,466c-0.11-0.33-0.19-0.6-0.31-0.98c-2.17,0.66-4.33,1.1-6.38,1.95c0.15,0.38,0.26,0.69,0.36,0.96
						C416.1,467.27,418.18,466.64,420.29,466z"/>
					<path class="st4" d="M413.85,471.16c-0.63-2.45-1.26-4.83-2.31-7.14c-0.24,0.09-0.45,0.16-0.67,0.24
						c0.89,2.36,1.75,4.67,2.63,7.01C413.58,471.24,413.7,471.2,413.85,471.16z"/>
					<path class="st4" d="M411.79,469.2c-0.26-0.78-0.56-1.56-0.9-2.31c-0.32-0.71-0.51-1.51-0.98-2.16
						c-0.03,1.17,1.62,5.71,2.59,6.82C412.26,470.77,412.06,469.97,411.79,469.2z"/>
					<path class="st4" d="M421.3,468.76c-0.1-0.21-0.17-0.36-0.27-0.57c-2.24,0.52-4.48,0.92-6.51,2.12
						c0.1,0.23,0.18,0.42,0.26,0.61C416.97,470.19,419.11,469.49,421.3,468.76z"/>
					<path class="st4" d="M422.67,468.4c-0.74-2.28-1.46-4.51-2.18-6.76c-0.28,0.06-0.46,0.1-0.66,0.14
						c0.78,2.31,1.55,4.54,2.32,6.8C422.36,468.5,422.5,468.45,422.67,468.4z"/>
					<path class="st4" d="M419.62,467.95c0.4-0.08,0.77-0.28,1.21-0.45c-0.14-0.35-0.23-0.6-0.34-0.86
						c-2.18,0.62-4.28,1.2-6.37,1.97c0.09,0.38,0.17,0.7,0.26,1.11C416.1,468.83,417.84,468.34,419.62,467.95z"/>
					<path class="st4" d="M426.05,467.45c-0.71-2.23-1.4-4.4-2.09-6.59c-0.04,0.01-0.14,0-0.22,0.02c-0.62,0.13-0.66,0.18-0.51,0.8
						c0.3,1.21,0.58,2.43,0.92,3.63c0.23,0.81,0.42,1.64,0.9,2.39C425.39,467.62,425.7,467.54,426.05,467.45z"/>
					<path class="st4" d="M412.43,463.72c0.15,0.34,0.27,0.61,0.39,0.91c2.16-0.57,4.29-1.12,6.46-1.68
						c-0.16-0.39-0.28-0.68-0.42-1.01C416.68,462.54,414.58,463.13,412.43,463.72z"/>
					<path class="st4" d="M419.81,464.38c-0.13-0.27-0.23-0.48-0.31-0.67c-0.98,0.02-5.54,1.2-6.41,1.65
						c0.09,0.27,0.17,0.55,0.29,0.93C415.56,465.64,417.67,465.01,419.81,464.38z"/>
					<path class="st4" d="M434.25,458.77c-1.44,0.19-2.81,0.37-4.2,0.73c-0.01,0.01-0.02,0.01-0.02,0.01
						c0.01,0.02,0.01,0.03,0.02,0.05c0.15,0.39,0.27,0.7,0.42,1.06c0.77-0.16,1.43-0.3,2.09-0.45c0.67-0.15,1.38-0.17,2.05-0.48
						C434.47,459.34,434.37,459.06,434.25,458.77z"/>
					<path class="st4" d="M424.27,467.92c-0.41-1.46-0.78-2.79-1.17-4.12c-0.25-0.85-0.3-1.76-0.73-2.59
						c-0.34,0.08-0.65,0.15-1.04,0.24c0.71,2.25,1.41,4.43,2.13,6.73C423.79,468.05,424.14,468.11,424.27,467.92z"/>
				</g>
			</g>
			<g>
				<path class="st3" d="M606.63,380.32l-1.48,9.71l-11.71,77.16l-2.89,19.03c-1.6-4.8-3.71-9.33-6.3-13.53l2.37-15.65L597,388.71
					l1.46-9.63c0.31-2.04,2.08-3.51,4.08-3.51c0.21,0,0.41,0.02,0.62,0.05C605.41,375.96,606.97,378.07,606.63,380.32z"/>
				<path class="st2" d="M422.38,521.58c-0.18,0.1-0.31,0.18-0.51,0.29c-0.14-0.42-0.28-0.83-0.39-1.15
					c-0.48-0.26-0.88-0.47-1.28-0.68c-0.03,0.02-0.06,0.05-0.09,0.07c0.16,0.35,0.32,0.69,0.52,1.1c-0.65,0.25-1.04-0.15-1.4-0.46
					c-0.71-0.61-0.9-1.45-0.56-2.3c0.33-0.13,0.58,0.07,0.83,0.23c0.23,0.15,0.42,0.24,0.75,0.18c0.47-0.08,0.89,0.24,1.2,0.59
					C421.99,520.05,422.12,520.83,422.38,521.58z"/>
				<path class="st2" d="M459.27,509.45c-0.67,0.77-0.72,0.81-1.56,1.21c0.03,0.97,0.31,1.96-0.15,2.96
					c0.16,0.05,0.29,0.07,0.4,0.13c0.24,0.13,0.36,0.36,0.27,0.59c-0.05,0.13-0.27,0.21-0.42,0.27c-1.65,0.61-3.16,0.11-4.63-0.61
					c-1.09-0.54-2.21-0.94-3.44-0.97c-0.39-0.01-0.39-0.04-0.45-0.48c1.14-0.41,2.29-0.82,3.43-1.23c0.02-0.01,0.05-0.01,0.07-0.02
					c1.32-0.63,2.64-1.25,3.98-1.89c-0.1-0.58-0.18-1.14-0.29-1.69c-0.17-0.79-0.53-0.97-1.34-0.82c-1.14,0.21-2.1,0.83-3.09,1.36
					c-1.38,0.74-2.73,1.49-4.22,1.98c-0.4,0.13-0.77,0.34-1.15,0.51c-0.26-0.17-0.43-0.28-0.65-0.43c0.47-0.22,0.9-0.4,1.31-0.61
					c0.42-0.22,0.79-0.54,1.22-0.72c1.35-0.53,2.54-1.35,3.79-2.06c0.87-0.5,1.84-0.82,2.77-1.21c0.21-0.09,0.42-0.2,0.65-0.23
					c0.65-0.1,1.15,0.17,1.43,0.9c0.26,0.68,0.4,1.4,0.57,2.11c0.04,0.18,0.02,0.38,0.04,0.58c0.18,0.17,0.34,0.24,0.61,0.09
					c0.21-0.11,0.49-0.15,0.73-0.15C459.36,509.03,459.42,509.28,459.27,509.45z"/>
				<path class="st2" d="M459.75,504.16c-0.01,0.38-0.18,0.59-0.45,0.59c-0.24,0-0.61-0.3-0.65-0.55c-0.04-0.23,0-0.51-0.12-0.69
					c-0.66-1.04-1.48-1.89-2.81-1.99c-0.59-0.04-1.09,0.2-1.59,0.51c-0.77,0.5-1.62,0.89-2.35,1.44c-2.3,1.73-4.89,2.96-7.27,4.55
					c-0.49,0.33-1,0.63-1.53,0.89c-0.46,0.23-0.92,0.18-1.38-0.28c1.49-0.8,3-1.49,4.25-2.57c0.7-0.6,1.35-1.26,2.1-1.8
					c1.38-0.99,2.82-1.91,4.23-2.86c0.1-0.06,0.2-0.12,0.31-0.17c0.85-0.33,1.65-0.78,2.41-1.29c0.87-0.58,2.54-0.32,3.3,0.58
					c0.76,0.91,1.42,1.83,1.52,3.05C459.73,503.79,459.75,503.97,459.75,504.16z"/>
				<path class="st2" d="M420.64,495.64c-0.01-0.65-0.11-0.78-0.78-0.88c-0.55-0.09-1.13-0.1-1.69-0.1
					c-1.68,0.01-3.36,0.02-5.04,0.05c-2.79,0.05-5.57,0.14-8.36,0.15c-0.52,0.01-1.05-0.01-1.57-0.02l-0.19,1.18
					c1.46,0.01,2.92,0.02,4.38,0.03c3.09,0.01,6.19,0.09,9.29-0.15c0.38-0.03,0.76-0.01,1.13-0.02c0.39-0.02,0.55,0.17,0.58,0.6
					c-0.99-0.03-1.94-0.1-2.91-0.1c-2.8,0.02-5.58,0.07-8.37,0.1c-1.4,0.01-2.79,0.02-4.18,0.03l-0.13,0.8h5.13v1.77
					c-1.78,0.43-3.58-0.04-5.42,0.14v-0.03l-0.58,3.72l-0.06,0.38l-0.13,0.77c0.75,0.04,1.51,0.09,2.26,0.15
					c2.91,0.26,5.82,0.16,8.72,0.18c1.82,0.02,3.63,0.18,5.45,0.27c0.07,0,0.13,0.05,0.26,0.1c-0.03,0.15-0.03,0.27-0.06,0.38
					c-0.03,0.11-0.08,0.22-0.14,0.38c-5.47-0.37-10.94-1.02-16.52-1.23l-0.29,1.87c1.73,0.11,3.47,0.22,5.21,0.31
					c0.98,0.05,1.97,0.03,2.97,0.07c1.04,0.05,2.08,0.16,3.11,0.21c1.46,0.07,2.92,0.13,4.38,0.19c0.52,0.02,1.04,0.07,1.56,0.14
					c0.66,0.08,1.28,0.06,1.67-0.54c0.11-2.03,0.25-4.06,0.32-6.09C420.69,498.85,420.67,497.24,420.64,495.64z M408.18,502.23
					c-1.8,0.04-3.54,0.08-5.35,0.13v-0.74h5.29C408.14,501.8,408.15,501.99,408.18,502.23z M402.62,499.79
					c1.77-0.18,3.51,0.21,5.32-0.03c0.04,0.47,0.07,0.82,0.11,1.2c-0.67,0.25-1.34,0.19-1.98,0.21c-0.85,0.01-1.7-0.09-2.55-0.1
					c-0.77-0.01-0.82-0.13-0.9-0.86C402.61,500.09,402.62,499.98,402.62,499.79z M402.85,503.37c-0.02-0.06-0.03-0.13-0.05-0.19
					c0.1-0.09,0.18-0.21,0.29-0.25c0.22-0.07,0.46-0.12,0.69-0.12c1.31-0.01,2.63-0.01,3.94-0.01c0.18,0,0.37,0.06,0.57,0.1
					c0.02,0.26,0.05,0.48,0.07,0.8C406.49,503.6,404.67,503.49,402.85,503.37z M409.96,503.64h-0.78c-0.02-2.16-0.54-4.23-0.28-6.38
					c0.34-0.14,0.42,0.14,0.48,0.39c0.11,0.41,0.21,0.82,0.28,1.24C409.89,500.43,410.06,501.98,409.96,503.64z M410.89,503.63
					c-0.09-2.11-0.25-4.23-0.77-6.37h1.22c0.24,2.12,0.48,4.22,0.72,6.37H410.89z M412.62,502.99c-0.21-1.57-0.39-3.14-0.56-4.71
					c-0.03-0.32,0.06-0.65,0.1-1.05c0.26-0.02,0.49-0.03,0.77-0.04c0.21,2.16,0.41,4.29,0.6,6.42
					C412.84,503.72,412.72,503.67,412.62,502.99z M414.31,503.72c-0.37-1.01-0.83-5.23-0.7-6.54c0.23,0.01,0.47,0.02,0.71,0.03
					c0.38,2.21,0.27,4.44,1.07,6.58C414.99,503.76,414.64,503.74,414.31,503.72z M417.81,503.37c-0.31-1.71-0.46-3.42-0.25-5.15
					c0.03-0.21,0.01-0.43,0.01-0.69c-0.5,0.09-0.57,0.37-0.58,0.69c-0.01,0.99-0.06,1.98-0.02,2.97c0.04,0.82,0.19,1.63,0.3,2.45
					c0.01,0.06-0.02,0.14-0.03,0.19c-0.03,0.02-0.05,0.05-0.07,0.05c-1.26-0.03-1.01,0.26-1.46-1.04c-0.2-0.57-0.29-1.2-0.37-1.8
					c-0.14-1.12-0.25-2.25-0.36-3.38c-0.01-0.14,0-0.27,0-0.5c1.21,0.05,2.33,0.1,3.43,0.15c0.08,2.22,0.16,4.38,0.24,6.53
					C417.95,503.99,417.92,503.98,417.81,503.37z M419.22,495.9c0.02,0.16,0.03,0.32,0.05,0.47c-0.03,0.01-0.07,0.02-0.11,0.03
					c-0.05-0.15-0.09-0.31-0.14-0.46C419.08,495.93,419.15,495.92,419.22,495.9z M418.82,505.56c0.19-0.45,0.36-0.83,0.55-1.25
					c-0.38-0.42-0.17-1.01-0.22-1.55c-0.02-0.26,0.02-0.52,0.01-0.78c-0.06-1.29-0.14-2.59-0.18-3.88c-0.01-0.3-0.13-0.66,0.35-1.03
					c0.3,2.93,0.12,5.73,0.37,8.58C419.36,505.61,419.14,505.59,418.82,505.56z M593.44,467.19c-1.97-3.6-4.25-6.98-6.81-10.15
					c-12.31-15.23-31.08-25.03-53.62-26.08l-39.21-1.81l-58.07-2.69l-1.48-0.07c-3.17-0.15-6.31,0.47-9.23,1.7
					c-0.84,0.35-1.65,0.76-2.45,1.21c-0.55,0.31-1.09,0.65-1.62,1.01c1.14-0.03,2.28-0.04,3.43-0.06c1.94-0.02,3.87,0.11,5.79,0.39
					c0.63,0.09,1.25,0.25,1.88,0.34c0.38,0.06,0.57,0.29,0.7,0.61c0.6,1.44,1.23,2.87,1.82,4.31c1,2.44,1.93,4.91,2.93,7.36
					c0.69,1.69,1.4,3.37,2.17,5.03c0.37,0.79,0.63,1.63,0.96,2.44c0.11,0.28,0.27,0.54,0.42,0.8c0.23,0.38,0.16,0.66-0.26,0.83
					c-1.37,0.57-2.39,1.53-2.97,2.88c-0.23,0.54-0.58,0.74-1.1,0.79c-0.73,0.09-1.45,0.18-2.18,0.27c-1.38,0.19-2.76,0.39-4.13,0.61
					c-1.79,0.29-3.58,0.61-5.37,0.98c-2.33,0.49-4.67,1-6.96,1.66c-1.61,0.46-3.23,0.87-4.84,1.34c-1.66,0.5-3.33,1-4.99,1.51
					l-0.31,2h0.03c-0.01,0-0.02,0.01-0.03,0.01l-0.15,1c0.05-0.02,0.09-0.04,0.14-0.06c0.75,2.36,1.28,4.76,2.55,6.97
					c-0.32,0.14-0.58,0.26-0.92,0.41c-0.81-1.73-1.5-3.48-2.09-5.28l-0.19,1.2c0.53,1.44,1.06,2.88,1.6,4.35
					c-0.22,0.1-0.47,0.21-0.71,0.31c-0.22-0.34-0.69-1.46-1.19-2.71l-0.17,1.1c0.23,0.61,0.46,1.21,0.69,1.81
					c-0.39,0.29-0.51,0.05-0.62-0.2c-0.08-0.19-0.15-0.38-0.23-0.56l-0.34,2.2c0.58-0.23,1.16-0.46,1.74-0.69
					c1.86-0.73,3.72-1.49,5.62-2.14c2.34-0.82,4.7-1.59,7.08-2.3c2.3-0.69,4.63-1.32,6.96-1.88c0.38-0.1,0.77-0.19,1.16-0.28
					c2.02-0.47,4.07-0.89,6.1-1.33c0.78-0.16,1.58-0.25,2.38-0.3c-2.53,0.71-5.06,1.46-7.6,2.14c-0.33,0.09-0.66,0.18-1,0.26
					c-1.66,0.42-3.33,0.78-4.98,1.24c-1.43,0.39-2.83,0.91-4.23,1.38c-1.61,0.54-3.24,1.05-4.82,1.66c-2.88,1.09-5.74,2.25-8.6,3.4
					l-0.24,1.53c0.05-0.02,0.1-0.04,0.14-0.06c1.59-0.67,3.2-1.28,4.83-1.86c1.69-0.6,3.4-1.1,5.1-1.71
					c1.28-0.45,2.53-1.02,3.81-1.49c2.18-0.78,4.37-1.54,6.55-2.28c0.75-0.26,1.52-0.49,2.28-0.71c0.42-0.13,0.84-0.25,1.25-0.37
					c0.7-0.2,1.42-0.35,2.14-0.48c2.4-0.43,4.8-0.86,7.21-1.24c0.93-0.14,1.88-0.16,2.83-0.18c1.1-0.02,2.2,0.1,3.29,0.3
					c0.39,0.07,0.66,0.24,0.86,0.54c0.19,0.3,0.39,0.59,0.53,0.92c1.02,2.52,2.05,5.03,3.05,7.55c0.27,0.7,0.63,1.38,0.58,2.24
					c-0.24,0.11-0.51,0.25-0.78,0.38c-1.41,0.7-2.94,1.02-4.42,1.53c-2.07,0.71-4.17,1.34-6.17,2.28c-1.22,0.57-2.46,1.08-3.65,1.69
					c-1.36,0.7-2.69,1.47-4.01,2.25c-0.85,0.5-1.65,1.1-2.5,1.6c-0.43,0.25-0.81,0.56-1.13,0.9c-0.53,0.55-0.95,1.2-1.34,1.87
					c-0.14,0.24-0.14,0.59-0.13,0.89c0.02,1.7,0.57,3.29,1.01,4.91c0.46,1.68,1.01,3.35,1.38,5.06c0.34,1.54-0.17,2.82-1.48,3.85
					c-1.66,1.31-3.61,1.94-5.58,2.51c-1.57,0.45-3.17,0.77-4.75,1.17c-0.66,0.17-1.33,0.37-1.95,0.64c-1.34,0.58-2.79,0.93-4,1.8
					c-0.86,0.62-1.7,1.27-2.59,1.86c-1.05,0.7-1.67,1.74-2.2,2.83c-0.52,1.05-0.97,2.16-1.31,3.28c-0.53,1.72-0.97,3.46-1.4,5.2
					c-0.17,0.7-0.23,1.44-0.36,2.23c-0.18-0.09-0.35-0.14-0.49-0.25c-1.25-0.97-2.49-1.97-3.7-2.99c-0.06-0.05-0.12-0.1-0.18-0.15
					l-0.26,1.66l-7.61,48.71l-1.01,6.46c0.26-0.09,0.55-0.13,0.88-0.1c0.09,0,0.18,0.01,0.27,0.02c3.17,0.45,6.23,1.25,9.11,2.71
					c1.56,0.79,2.91,1.84,4.16,3.04c0.59,0.57,1.16,1.18,1.76,1.75c1.38,1.3,2.27,2.96,3.25,4.54c1.05,1.69,1.82,3.51,2.65,5.32
					c0.85,1.84,1.56,3.75,2.24,5.66c0.39,1.09,0.65,2.22,0.94,3.33c0.53,2.06,1.28,4.01,2.81,5.56c0.14,0.15,0.27,0.33,0.45,0.54
					c-0.76,0.63-1.58,0.97-2.46,1.2c-1.79,0.45-3.6,0.72-5.44,0.92c-3.61,0.38-7.22,0.23-10.83-0.14c-2.14-0.22-4.27-0.5-6.4-0.82
					c-0.98-0.15-1.96-0.32-2.95-0.5c-0.21-0.03-0.41-0.07-0.62-0.11c0.61,0.83,1.3,1.58,2.07,2.27c1.92,1.73,4.3,2.99,7,3.65
					c0.12,0.03,0.23,0.06,0.35,0.09c0.97,0.21,1.98,0.35,3.03,0.4c0.18,0.01,0.35,0.02,0.54,0.02c0.15,0.01,0.3,0.01,0.45,0.01
					h63.57c-0.13-0.19-0.25-0.39-0.36-0.59c-4.12-6.7-5.88-15.09-4.46-24.18c1.37-8.77,5.5-16.88,11.36-23.45
					c8.77-9.85,21.43-16.25,34.55-16.25c21.89,0,36.91,17.81,33.49,39.7c-1.46,9.36-6.06,17.97-12.57,24.77h37.15
					c10.91,0,21.08-8.99,22.52-19.89l13.12-83.93C604.23,498.2,601.12,481.16,593.44,467.19z M438.84,460.68
					c0.19,0.23,0.38,0.46,0.58,0.69c0.27,0.3,0.5,0.65,0.81,0.88c0.82,0.57,0.89,1.44,1.06,2.36c-0.48,0.08-0.84,0.14-1.24,0.2
					c-0.45-1.38-0.89-2.73-1.32-4.08C438.77,460.72,438.81,460.7,438.84,460.68z M410.36,463.33c2.71-0.81,5.41-1.66,8.15-2.39
					c2.92-0.77,5.83-1.59,8.82-2.1c0.97-0.17,1.93-0.35,2.9-0.54c1.1-0.22,2.19-0.43,3.3-0.62c0.81-0.14,1.64-0.14,2.46-0.21
					c0.45-0.03,0.89-0.07,1.34-0.07c0.12,0,0.24,0.11,0.36,0.17c-0.02,0.06-0.05,0.13-0.07,0.19c-1.53,0.46-3.16,0.27-4.72,0.57
					c-0.92,0.17-1.84,0.32-2.75,0.48c-0.64,0.1-1.28,0.22-1.93,0.34c-1.57,0.3-3.14,0.66-4.71,1.01c-1.57,0.35-3.14,0.69-4.7,1.06
					c-1.54,0.37-3.08,0.75-4.6,1.17c-1.53,0.43-3.05,0.93-4.62,1.29C409.84,463.57,410.09,463.41,410.36,463.33z M435,460.68
					c-0.09,0.02-0.19,0.03-0.28,0.05c-1.2,0.29-2.41,0.58-3.61,0.86c-0.19,0.05-0.19,0.02-0.39-0.3
					C432.02,460.83,434.26,460.42,435,460.68z M430.46,460.61c-0.14-0.36-0.27-0.67-0.42-1.06c-0.01-0.01-0.01-0.03-0.02-0.05
					c0.01,0,0.02,0,0.02-0.01c1.39-0.36,2.76-0.53,4.2-0.73c0.11,0.29,0.22,0.57,0.35,0.91c-0.66,0.31-1.37,0.33-2.05,0.48
					C431.89,460.31,431.23,460.45,430.46,460.61z M419.49,463.71c0.09,0.19,0.19,0.39,0.31,0.67c-2.14,0.63-4.25,1.26-6.43,1.91
					c-0.12-0.38-0.21-0.66-0.29-0.93C413.95,464.9,418.51,463.73,419.49,463.71z M412.83,464.63c-0.13-0.3-0.25-0.57-0.39-0.91
					c2.15-0.59,4.25-1.18,6.44-1.78c0.14,0.33,0.26,0.62,0.42,1.01C417.12,463.51,414.99,464.06,412.83,464.63z M409,463.96
					c-0.21,0.27-0.49,0.34-0.93,0.36C408.39,463.98,408.69,463.96,409,463.96z M411.12,472.13c-1.33-2.17-1.84-4.59-2.6-6.98
					c0.25-0.1,0.44-0.17,0.62-0.22c0.84,2.33,1.67,4.62,2.51,6.96C411.53,471.94,411.35,472.03,411.12,472.13z M409.91,464.73
					c0.47,0.65,0.66,1.45,0.98,2.16c0.34,0.75,0.63,1.53,0.9,2.31c0.27,0.77,0.47,1.57,0.7,2.35
					C411.53,470.44,409.88,465.9,409.91,464.73z M413.49,471.27c-0.88-2.34-1.74-4.64-2.63-7.01c0.22-0.08,0.43-0.15,0.67-0.24
					c1.04,2.31,1.67,4.69,2.31,7.14C413.7,471.2,413.58,471.24,413.49,471.27z M413.59,466.97c2.05-0.85,4.21-1.29,6.38-1.95
					c0.12,0.38,0.2,0.65,0.31,0.98c-2.1,0.64-4.18,1.27-6.33,1.93C413.85,467.65,413.74,467.35,413.59,466.97z M414.11,468.6
					c2.09-0.77,4.19-1.35,6.37-1.97c0.11,0.26,0.21,0.51,0.34,0.86c-0.44,0.17-0.81,0.37-1.21,0.45c-1.78,0.39-3.52,0.88-5.24,1.77
					C414.28,469.3,414.21,468.99,414.11,468.6z M414.77,470.93c-0.08-0.19-0.16-0.38-0.26-0.61c2.04-1.2,4.27-1.6,6.51-2.12
					c0.1,0.21,0.17,0.37,0.27,0.57C419.11,469.49,416.97,470.19,414.77,470.93z M422.14,468.58c-0.77-2.26-1.54-4.49-2.32-6.8
					c0.2-0.04,0.38-0.07,0.66-0.14c0.73,2.25,1.45,4.48,2.18,6.76C422.5,468.45,422.36,468.5,422.14,468.58z M423.47,468.18
					c-0.73-2.29-1.42-4.48-2.13-6.73c0.39-0.09,0.7-0.16,1.04-0.24c0.43,0.84,0.48,1.74,0.73,2.59c0.38,1.33,0.75,2.66,1.17,4.12
					C424.14,468.11,423.79,468.05,423.47,468.18z M425.05,467.7c-0.48-0.74-0.67-1.58-0.9-2.39c-0.34-1.21-0.61-2.43-0.92-3.63
					c-0.15-0.62-0.11-0.67,0.51-0.8c0.09-0.02,0.18-0.02,0.22-0.02c0.69,2.2,1.38,4.36,2.09,6.59
					C425.7,467.54,425.39,467.62,425.05,467.7z M426.79,467.29c-0.96-2.16-1.54-4.38-2.16-6.64c0.35-0.08,0.65-0.14,0.98-0.21
					c0.65,2.22,1.3,4.42,1.97,6.67C427.36,467.16,427.09,467.23,426.79,467.29z M428.99,466.81c-0.02,0-0.03,0.01-0.05,0.01
					c-0.18,0.04-0.37,0.06-0.61,0.1c-0.9-2.13-1.41-4.36-2.09-6.64c0.45-0.09,0.74-0.15,1.04-0.21c0.37,0.5,1.29,3.19,1.89,5.45
					c0.1,0.39,0.2,0.78,0.28,1.14C429.3,466.71,429.15,466.77,428.99,466.81z M431.12,466.35c-0.23,0.06-0.46,0.1-0.69,0.15
					c-0.32-1.02-0.64-2.04-0.96-3.04c-0.38-1.2-0.76-2.4-1.15-3.62c0.19-0.05,0.47-0.11,0.78-0.18c0.25,0.57,0.47,1.14,0.67,1.72
					c0.58,1.61,1.05,3.23,1.49,4.84C431.19,466.29,431.16,466.33,431.12,466.35z M431.06,462.35c1.38-0.31,2.72-0.61,4.11-0.93
					c0.11,0.39,0.21,0.7,0.34,1.13c-1.42,0.28-2.72,0.54-4.08,0.81C431.29,462.98,431.18,462.68,431.06,462.35z M431.6,464.05
					c1.37-0.31,2.69-0.61,4.07-0.92c0.08,0.24,0.14,0.42,0.22,0.68c-1.36,0.3-2.71,0.6-4.09,0.91
					C431.75,464.51,431.68,464.29,431.6,464.05z M432.15,466.08c-0.05-0.21-0.08-0.41-0.12-0.59c0.89-0.43,3.13-0.94,4.11-0.93
					c0.07,0.23,0.15,0.46,0.25,0.75C434.95,465.56,433.57,465.82,432.15,466.08z M437.16,464.88c-0.31-0.94-0.59-1.88-0.88-2.83
					c-0.15-0.51-0.3-1.03-0.44-1.53c0.1,0.1,0.23,0.19,0.27,0.31c0.33,0.83,0.63,1.67,0.96,2.5c0.22,0.57,0.45,1.13,0.67,1.69
					C437.31,465.25,437.29,465.25,437.16,464.88z M438.61,465.05c-0.77-2.14-1.54-4.26-2.33-6.44c0.53-0.08,1-0.15,1.45-0.21
					c0.45,1.11,0.46,2.23,0.78,3.27c0.31,1.06,0.65,2.11,1,3.22C439.17,464.96,438.93,465,438.61,465.05z M443.96,466.04
					c-0.49,0-0.98,0.03-1.46,0c-0.69-0.05-1.36-0.01-2.02,0.21c-0.35,0.11-0.74,0.13-1.14,0.2c-0.05-0.24-0.09-0.46-0.14-0.71
					c1.34-0.25,2.69-0.43,4.06-0.5c0.49-0.03,0.5,0.41,0.77,0.61C444.01,465.9,443.98,465.97,443.96,466.04z M441.67,463.61
					c0.4,0.31,0.67,0.51,0.94,0.73c-0.01,0.05-0.02,0.09-0.03,0.14c-0.21,0.03-0.43,0.05-0.68,0.07
					C441.83,464.27,441.77,464.02,441.67,463.61z M449.54,471.95c-0.23-0.66-0.37-1.36-0.54-2.05c-0.05-0.18-0.11-0.35-0.17-0.53
					c-0.22-0.67-0.45-1.34-0.68-2.01c-0.17-0.5-0.37-0.96-1-1.04c-0.12-0.01-0.23-0.14-0.33-0.25c-0.82-0.81-1.76-1.39-2.8-1.89
					c-0.54-0.26-0.98-0.73-1.42-1.14c-0.34-0.31-0.67-0.63-1.01-0.95c-1.13-1.06-2.02-2.33-2.53-3.81
					c-0.35-1.05-0.17-2.12,0.32-3.11c0.64-1.29,1.41-1.64,2.88-1.42c0.15,0.02,0.31,0.09,0.46,0.15c0.14,0.05,0.25,0.17,0.38,0.21
					c0.94,0.22,1.36,0.93,1.64,1.74c0.34,0.97,0.65,1.96,0.88,2.98c-0.1-0.13-0.22-0.24-0.28-0.38c-0.36-0.81-1.02-1.37-1.61-1.97
					c-0.53-0.55-1.3-0.75-2.02-0.65c-0.45,0.07-0.86,0.46-1.25,0.74c-0.1,0.08-0.13,0.29-0.15,0.45c-0.01,0.13,0.03,0.28,0.08,0.41
					c0.69,1.83,1.7,3.41,3.27,4.63c0.63,0.49,1.2,1.07,1.99,1.33c0.17,0.06,0.34,0.12,0.52,0.17c0.26,0.09,0.53,0.18,0.8,0.23
					c0.19,0.05,0.38,0.05,0.69,0.07c0.22,0.59,0.47,1.24,0.69,1.89c0.4,1.13,0.8,2.27,1.18,3.41c0.33,1.01,0.58,2.04,0.94,3.03
					c0.31,0.81,0.75,1.57,1.12,2.37c0.6,1.33,1.2,2.67,1.8,4c0.03,0.06,0,0.14,0,0.29c-0.14-0.12-0.23-0.19-0.31-0.27
					c-0.88-0.98-1.55-2.09-2.1-3.27c-0.21-0.45-0.35-0.93-0.54-1.39C450.13,473.28,449.78,472.63,449.54,471.95z M444.08,460.44
					c-0.69-0.76-1.4-1.51-2.06-2.29c-0.16-0.18-0.25-0.45-0.29-0.7c-0.02-0.11,0.1-0.3,0.21-0.38c0.05-0.04,0.27,0.05,0.34,0.13
					C443.03,458.18,443.77,459.17,444.08,460.44z M452.94,480.23c0.59,0.51,0.74,0.85,0.88,1.92c-1.28-0.75-2.73-0.62-4.08-1.09
					C450.81,480.78,451.88,480.51,452.94,480.23z M429.59,490.32c0.91-0.93,2.01-1.56,3.08-2.25c2.02-1.3,4.18-2.32,6.35-3.32
					c1.7-0.78,3.45-1.45,5.25-1.94c1.18-0.32,2.37-0.73,3.58-0.84c2.07-0.18,4.11,0.07,5.98,1.11c0.54,0.31,0.86,0.75,1.13,1.31
					c0.46,0.98,1.05,1.9,1.55,2.87c0.49,0.94,0.95,1.89,1.4,2.86c0.18,0.39-0.02,1.02-0.45,1.23c-0.63,0.31-1.29,0.63-1.97,0.77
					c-2.39,0.47-4.62,1.35-6.76,2.48c-1.36,0.71-2.78,1.32-4.15,2.03c-1.53,0.8-3.05,1.62-4.54,2.49c-1.97,1.17-3.91,2.38-5.86,3.57
					c-0.19,0.12-0.37,0.23-0.55,0.34c-0.48,0.29-0.94,0.62-1.48,0.97c-0.08-0.17-0.14-0.25-0.15-0.34
					c-0.19-1.12-0.79-2.05-1.32-3.03c-0.58-1.11-1.02-2.28-1.36-3.49c-0.33-1.16-0.42-2.32-0.47-3.49
					c-0.03-0.47-0.05-0.95-0.08-1.42C428.74,491.4,429.05,490.87,429.59,490.32z M396.05,573.28c-0.26,0.57-0.46,1.08-0.71,1.58
					c-0.15,0.32-0.47,0.22-0.75,0.23C394.91,574.34,395.59,573.47,396.05,573.28z M396.11,578.51c-0.27,0.15-0.55,0.3-0.82,0.45
					c-0.05-0.03-0.08-0.07-0.12-0.1c0.22-0.41,0.45-0.82,0.67-1.22c0.06,0.03,0.11,0.05,0.17,0.07
					C396.03,577.95,396.07,578.2,396.11,578.51z M390.78,579.69c-0.03,0-0.05-0.01-0.08-0.01c0.03-0.06,0.07-0.12,0.1-0.18
					c0.5-0.79,1.34-0.98,2.1-1.46c0.08,0.61,0.15,1.1,0.21,1.6C392.6,579.81,391.74,579.83,390.78,579.69z M393.93,576.19
					c0.24-0.02,0.52-0.18,0.82,0.06c-0.41,0.23-0.76,0.42-1.1,0.63C393.45,576.29,393.47,576.24,393.93,576.19z M393.86,579.45
					c-0.09-0.6-0.17-1.17-0.25-1.78c0.64-0.36,1.21-0.67,1.8-1C395.36,577.29,394.35,579.14,393.86,579.45z M394.71,579.95
					c0.51-0.23,1.01-0.47,1.57-0.73c0.13,0.52,0.23,0.94,0.35,1.44C395.87,580.67,395.37,580.17,394.71,579.95z M396.52,576.59
					c-0.02-0.21,0.15-0.5,0.33-0.64c0.41-0.35,0.94-0.45,1.46-0.44c0.51,0.01,1.03,0.1,1.57,0.15c0.21,0.64,0.03,1.2-0.46,1.43
					c-0.81,0.38-1.64,0.71-2.56,1.1C396.73,577.62,396.57,577.11,396.52,576.59z M396.34,574.92c0.27-0.76,0.59-1.41,1.06-1.95
					c0.21-0.22,0.61-0.27,1.06-0.46c-0.33,0.73-0.59,1.29-0.85,1.87C397.37,574.9,396.9,574.88,396.34,574.92z M431,600.39
					c-0.07,0.11-0.1,0.18-0.15,0.22c-0.47,0.36-0.94,0.71-1.46,1.11c-0.27-0.65-0.51-1.25-0.81-1.97
					C429.47,599.98,430.2,600.18,431,600.39z M429.69,598.37c0.21-2.58,0.43-5.18,0.65-7.85c0.21,0.05,0.35,0.08,0.49,0.13
					c0.22,0.09,0.43,0.2,0.65,0.28c0.94,0.37,0.96,0.37,0.96,1.4c0,1.92-0.01,3.83-0.03,5.75c0,0.32-0.07,0.64-0.13,1.02
					C431.24,599.02,430.47,598.8,429.69,598.37z M414.92,593.5c0.89-0.3,1.75-0.73,2.85-0.89c-0.85,1.37-1.64,2.63-2.47,3.96
					C415.06,595.55,414.78,594.59,414.92,593.5z M414.85,592.69c-0.05-0.47-0.1-0.9-0.13-1.34c-0.06-0.87-0.07-1.74-0.14-2.61
					c-0.03-0.38,0.03-0.7,0.36-0.97c1.03,1.26,2.06,2.53,3.15,3.87C416.97,591.99,415.95,592.33,414.85,592.69z M418.35,593.2
					c0.06,0.22,0.13,0.38,0.14,0.54c0.07,0.8,0.11,1.61,0.2,2.4c0.04,0.39-0.09,0.61-0.43,0.78c-0.8,0.41-1.59,0.83-2.58,1.06
					C416.18,596.12,417.35,594.77,418.35,593.2z M418.81,597.49c0.2,1.41,0.39,2.77,0.58,4.19c-1.05-1.06-2.02-2.03-3.04-3.04
					C417.13,598.27,417.93,597.9,418.81,597.49z M419.12,592.97c0.04-0.02,0.08-0.06,0.11-0.08c0.39,0.42,0.77,0.84,1.17,1.24
					c0.39,0.39,0.81,0.76,1.28,1.2c-0.74,0.34-1.42,0.65-2.26,1.02C419.31,595.16,419.22,594.06,419.12,592.97z M422.26,596.1
					c-0.71,1.64-1.41,3.23-2.1,4.82c-0.04-0.01-0.07-0.01-0.11-0.01c-0.17-1.23-0.34-2.45-0.5-3.64
					C420.22,596.73,421.33,596.26,422.26,596.1z M422.98,596.76c0.16,0.78,0.34,1.56,0.46,2.34c0.03,0.14-0.17,0.37-0.32,0.47
					c-0.62,0.42-1.28,0.81-2.06,1.31C421.53,599.35,422.27,598.1,422.98,596.76z M420.7,602.04c0.95-0.65,1.92-1.27,2.99-1.97
					c0.3,1.9,0.57,3.65,0.85,5.42c-0.05,0.04-0.1,0.09-0.15,0.13c-1.23-0.9-2.48-1.79-3.69-2.72
					C420.3,602.59,420.31,602.3,420.7,602.04z M423.9,597c0.52,0.35,1.05,0.7,1.65,1.1c-0.46,0.27-0.86,0.5-1.3,0.75
					C423.87,598.3,423.97,597.66,423.9,597z M424.39,600.05c-0.02-0.15,0.01-0.38,0.09-0.44c0.59-0.42,1.25-0.7,2.04-1.13
					c-0.21,2.19-0.77,4.1-1.25,6.03c-0.05-0.01-0.1-0.02-0.15-0.02C424.88,603.01,424.63,601.53,424.39,600.05z M427.25,599.05
					c0.24,0.23,0.49,0.36,0.57,0.56c0.34,0.88,0.63,1.77,0.98,2.78c-0.89,0.75-1.8,1.52-2.82,2.37
					C426.42,602.8,426.82,600.99,427.25,599.05z M428.76,598.17c-0.9-0.39-1.68-0.71-2.47-1.06c0.19-2.69,0.86-5.27,1.29-7.99
					c0.7,0.37,1.36,0.71,2.08,1.08C429.31,592.8,429.33,595.47,428.76,598.17z M426.77,589.29c-0.13,0.79-0.3,1.58-0.43,2.37
					c-0.25,1.41-0.47,2.83-0.71,4.25c-0.03,0.19-0.09,0.37-0.17,0.7c-0.91-0.73-1.73-1.38-2.55-2.04c0.54-2.57,1.06-5.07,1.61-7.69
					c0.73,0.54,1.42,1.03,2.11,1.54C426.92,588.67,426.81,589,426.77,589.29z M423.56,587.71c-0.48,1.82-0.8,3.69-1.2,5.54
					c-0.03,0.15-0.11,0.31-0.21,0.6c-0.74-0.8-1.4-1.5-2.04-2.22c-0.18-0.19-0.26-0.39-0.17-0.7c0.37-1.24,0.68-2.51,1.05-3.75
					c0.26-0.88,0.58-1.74,0.92-2.72c0.33,0.31,0.57,0.58,0.86,0.8C423.59,585.9,423.84,586.65,423.56,587.71z M421.13,584.24
					c-0.42,1.18-0.81,2.37-1.17,3.56c-0.22,0.72-0.38,1.46-0.57,2.19c-0.04,0.15-0.1,0.3-0.18,0.54c-0.7-0.81-1.35-1.56-2-2.3
					c-0.22-0.25-0.09-0.49,0.02-0.73c0.68-1.5,1.37-2.99,2.05-4.5c0.12-0.27,0.23-0.55,0.43-1.01c0.47,0.51,0.85,0.93,1.24,1.34
					C421.21,583.61,421.25,583.87,421.13,584.24z M418.72,582.39c-0.5,1.1-1.01,2.19-1.5,3.28c-0.25,0.53-0.49,1.06-0.75,1.66
					c-0.58-0.63-1.1-1.21-1.61-1.75c0.35-1.33,2.39-5.04,3.05-5.61c0.18,0.22,0.33,0.47,0.54,0.66
					C419.05,581.15,419,581.75,418.72,582.39z M414.09,584.64c-0.65-0.74-1.29-1.48-1.96-2.25c0.96-1.93,1.8-3.83,2.95-5.62
					c0.97,0.64,1.43,1.65,2.1,2.41C416.16,581.01,415.14,582.8,414.09,584.64z M411.51,581.5c-0.57-0.72-1.13-1.42-1.73-2.18
					c0.84-1.8,1.83-3.53,2.9-5.41c0.71,0.78,1.32,1.45,1.93,2.12C413.21,577.66,412.55,579.63,411.51,581.5z M409.07,578.5
					c-0.59-0.45-1.15-0.88-1.72-1.32c0.8-1.9,1.76-3.69,3.06-5.41c0.56,0.54,1.06,1.02,1.54,1.49
					C410.97,575.05,410.02,576.76,409.07,578.5z M409.33,582.26c-0.78,0.25-1.56,0.5-2.33,0.74c-0.03-0.03-0.06-0.07-0.09-0.11
					c0.46-0.89,0.93-1.78,1.41-2.69C409.16,580.64,409.43,581.3,409.33,582.26z M406.38,576.64c-0.59-0.25-1.17-0.49-1.77-0.76
					c0.9-1.76,1.78-3.47,2.63-5.14c0.89-0.11,1.59,0.09,2.21,0.53C408.43,573.06,407.42,574.82,406.38,576.64z M406.2,578.3
					c-0.22,0.13-0.36,0.2-0.49,0.27C405.74,578.32,405.81,578.08,406.2,578.3z M404.29,579.02c-0.67,0.19-1.34,0.42-2.19,0.7
					c0.62-1.05,1.03-2.04,1.73-2.86c0.4,0.06,0.61,0.25,0.65,0.64c0.03,0.31,0.09,0.61,0.18,0.9
					C404.76,578.75,404.63,578.91,404.29,579.02z M403.66,575.55c-0.45-0.2-0.81-0.37-1.2-0.54c0.23-0.96,0.53-1.87,1.01-2.72
					c0.05-0.1,0.14-0.19,0.18-0.31c0.37-1.24,1.38-1.2,2.45-1.23C405.27,572.38,404.48,573.95,403.66,575.55z M401.42,574.75
					c-0.27-0.03-0.66-0.06-1.13-0.11c0.3-0.64,0.55-1.19,0.82-1.73c0.12-0.26,0.27-0.5,0.41-0.75c0.4-0.7,0.43-0.72,1.3-0.81
					C402.37,572.44,401.91,573.54,401.42,574.75z M401.77,576.05c-0.26,0.13-0.53,0.25-0.81,0.39
					C401.14,575.83,401.14,575.83,401.77,576.05z M400.26,572.52c-0.27,0.58-0.55,1.15-0.82,1.72c-0.15,0.34-0.37,0.55-0.79,0.38
					c0.14-0.86,0.62-1.57,1.05-2.29c0.11-0.18,0.43-0.23,0.8-0.42C400.38,572.21,400.33,572.38,400.26,572.52z M396.96,579.08
					c0.51-0.45,1.13-0.63,1.89-0.92c-0.52,0.88-0.96,1.61-1.45,2.46C397.24,580.04,397.1,579.58,396.96,579.08z M400.24,577.5
					c0.17,0.95,0.32,1.8,0.49,2.72c-0.82,0.41-1.64,0.88-2.64,0.98C398.26,580.37,399.5,578.23,400.24,577.5z M399.62,581.69
					c0.18-0.15,0.33-0.27,0.53-0.43C400.07,581.78,400.07,581.78,399.62,581.69z M401,581.74c0.02,0.25,0.03,0.47,0.06,0.71
					C400.58,582.19,400.58,582.19,401,581.74z M401.2,579c-0.09-0.58-0.17-1.16-0.26-1.81c0.76-0.27,1.44-0.5,2.14-0.75
					c-0.28,0.83-1.3,2.62-1.72,3.03C401.31,579.3,401.23,579.15,401.2,579z M401.65,580.67c0.77-0.27,1.52-0.54,2.26-0.8
					c0.03,0.05,0.07,0.09,0.1,0.14c-0.58,1.08-1,2.24-1.75,3.24C401.88,582.86,401.65,581.87,401.65,580.67z M402.84,583.85
					c0.67-1.34,1.31-2.59,1.94-3.83c0.04,0.02,0.09,0.03,0.14,0.05c0.17,1.1,0.34,2.22,0.52,3.39c-0.66,0.19-1.28,0.4-1.92,0.55
					C403.34,584.05,403.11,583.92,402.84,583.85z M404.05,584.72c0.5-0.16,0.9-0.29,1.47-0.47c-0.27,0.47-0.46,0.78-0.67,1.13
					C404.58,585.16,404.36,584.97,404.05,584.72z M405.77,585.36c0.06,0.34,0.11,0.6,0.17,0.9
					C405.35,585.94,405.35,585.94,405.77,585.36z M406.05,582.68c-0.17-1.05-0.34-2.09-0.52-3.19c0.5-0.18,0.96-0.35,1.44-0.52
					c0.27,0.21,0.52,0.41,0.81,0.65c-0.55,1.06-1.06,2.09-1.57,3.12C406.15,582.72,406.1,582.69,406.05,582.68z M407.32,588.16
					c-0.1-0.2-0.26-0.38-0.31-0.58c-0.23-0.97-0.43-1.93-0.64-2.91c-0.13-0.6-0.1-0.65,0.51-0.85c0.83-0.27,1.66-0.51,2.6-0.81
					c-0.03,0.35,0.02,0.62-0.08,0.84c-0.62,1.4-1.26,2.79-1.9,4.18C407.48,588.07,407.43,588.09,407.32,588.16z M409.53,585.26
					c0.05,0.02,0.1,0.03,0.14,0.05c0.05,0.76,0.09,1.5,0.15,2.25c0.02,0.33-0.09,0.54-0.42,0.63c-0.39,0.11-0.79,0.26-1.37,0.45
					C408.58,587.41,409.05,586.34,409.53,585.26z M409.88,591.27c-0.59-0.67-1.09-1.25-1.68-1.91c0.57-0.18,1.04-0.34,1.6-0.52
					C409.92,589.65,409.88,590.4,409.88,591.27z M410.24,583.69c-0.01-0.19,0.1-0.41,0.19-0.59c0.16-0.33,0.33-0.37,0.6-0.11
					c0.36,0.34,0.68,0.73,1,1.1c0.34,0.39,0.65,0.81,0.98,1.21c0.5,0.59,0.5,0.59,0.59,1.53c-1.02,0.32-2.01,0.63-3.05,0.96
					C410.45,586.4,410.33,585.04,410.24,583.69z M410.8,592.04c-0.05-1.06-0.14-2.12-0.21-3.17c-0.01-0.06,0.02-0.14,0.05-0.34
					c1.01-0.31,2.01-0.62,3.17-0.98c-0.07,0.35-0.08,0.58-0.17,0.77c-0.27,0.6-0.56,1.2-0.89,1.77c-0.51,0.92-1.05,1.84-1.6,2.77
					C410.78,592.67,410.81,592.38,410.8,592.04z M411.7,593.61c0.59-1.49,1.42-2.66,2.22-3.9c0.07,1.05,0.14,2.09,0.21,3.17
					C413.41,593.28,412.62,593.38,411.7,593.61z M414.52,596.71c-0.85-0.72-1.4-1.6-2.25-2.4c0.69-0.21,1.22-0.37,1.78-0.54
					C414.21,594.74,414.35,595.66,414.52,596.71z M424.8,611.2c-1.82,0.58-3.65,1.11-5.47,1.66c-1.46-1.4-2.58-2.97-3.08-4.94
					c-0.31-1.18-0.61-2.38-0.98-3.54c-0.43-1.35-0.93-2.68-1.45-4c-0.62-1.58-1.3-3.13-1.97-4.73c0.78,0.81,1.52,1.6,2.29,2.38
					c1.66,1.68,3.32,3.36,5,5.02c1.08,1.05,2.19,2.08,3.35,3.05c1.6,1.34,3.37,2.42,5.35,3.12c0.1,0.04,0.21,0.09,0.31,0.14
					c0.02,0.01,0.02,0.03,0.07,0.11C427.09,610.05,426.03,610.81,424.8,611.2z M425.59,606.09c1.16-1,2.25-1.93,3.35-2.87
					c0.05-0.04,0.13-0.05,0.28-0.11c0.67,1.69,1.34,3.37,2.06,5.18C429.2,607.88,427.36,607.27,425.59,606.09z M431.63,606.87
					c-0.63-1.45-1.26-2.88-1.9-4.36c0.73-0.72,1.53-1.34,2.57-1.88c0.05,1.17-0.14,2.17-0.25,3.19
					C431.94,604.82,431.83,605.82,431.63,606.87z M432.22,607.84c0.55-1.45,1.25-2.64,2.02-3.94c0.54,0.97,1.02,1.82,1.53,2.75
					C434.61,607.04,433.5,607.41,432.22,607.84z M433.25,599.3v-8.02c0.22-0.1,0.4-0.03,0.47,0.21c0.08,0.25,0.11,0.51,0.17,0.76
					c0.4,1.72,0.82,3.44,1.2,5.17c0.14,0.63,0.17,1.29,0.26,2.02C434.6,599.38,433.95,599.34,433.25,599.3z M435.07,600.96
					c-0.29,0.47-0.54,0.89-0.87,1.43c-0.22-0.55-0.41-0.98-0.6-1.43H435.07z M433.84,603.16c-0.35,0.62-0.69,1.2-1.04,1.79
					c-0.03-0.02-0.07-0.03-0.1-0.04c0.11-1.05,0.23-2.1,0.37-3.29C433.37,602.21,433.61,602.68,433.84,603.16z M435.94,605.43
					c-0.42-0.77-0.81-1.45-1.17-2.15c-0.06-0.1-0.03-0.28,0.03-0.39c0.27-0.48,0.58-0.95,0.95-1.56
					C436.13,602.48,436.21,604.51,435.94,605.43z M446.41,549.3c-1.77,0.5-3.16,1.56-4.27,3.01c-0.92,1.21-1.84,2.41-2.75,3.61
					c-1.4,1.86-2.53,3.87-3.61,5.92c-0.83,1.57-1.69,3.12-2.42,4.74c-0.66,1.46-1.29,2.95-1.72,4.5c-0.57,2.02-0.7,4.12-0.42,6.24
					c0.25,1.9,0.58,3.78,1.07,5.63c0.28,1.08,0.51,2.17,0.69,3.26c0.18,1.09,0.26,2.19,0.38,3.32c-0.94-0.01-1.74-0.27-2.54-0.54
					c-2.04-0.71-3.75-1.96-5.39-3.33c-0.59-0.5-1.25-0.94-1.81-1.48c-1.52-1.42-3.04-2.84-4.5-4.32c-0.74-0.75-1.37-1.62-2.04-2.45
					c-1.7-2.12-3.44-4.23-5.55-5.96c-1.67-1.37-3.57-2.09-5.79-1.64c-1,0.21-2,0.42-3,0.51c-1.88,0.17-3.66,0.82-5.65,1.01
					c0.69-0.94,1.33-1.78,1.92-2.66c0.91-1.35,1.8-2.72,2.67-4.11c1.1-1.73,2.22-3.45,3.24-5.24c1.2-2.09,2.37-4.2,3.43-6.37
					c0.75-1.52,1.29-3.13,1.93-4.71c0.49-1.21,0.98-2.42,1-3.74c0.01-0.89-0.05-1.8-0.19-2.68c-0.27-1.62-0.57-3.26-1.1-4.83
					c-0.12-0.35-0.25-0.71-0.41-1.05c-0.42-0.92-0.84-1.85-1.33-2.73c-0.73-1.3-1.64-2.48-2.81-3.44c-0.13-0.11-0.23-0.31-0.24-0.47
					c-0.02-2.33-0.25-4.68,0.33-7c0.58-2.33,1.46-4.5,3.39-6.09c0.43-0.35,0.81-0.78,1.26-1.16c-0.32,1.23-0.19,2.47,0.1,3.62
					c0.51,2.04,1.46,3.91,3.05,5.35c1.04,0.93,2.16,1.76,3.21,2.68c1.54,1.34,3.29,2.37,5.06,3.38c0.46,0.26,0.93,0.55,1.34,0.89
					c0.19,0.14,0.33,0.41,0.42,0.65c0.63,1.91,1.58,3.68,2.58,5.43c0.54,0.95,1.14,1.84,1.88,2.65c0.67,0.75,1.54,1.17,2.45,1.49
					c1.45,0.5,2.93,0.91,4.4,1.36c1.61,0.49,3.24,0.92,4.82,1.49c3.12,1.12,6.33,1.91,9.49,2.87c0.95,0.29,1.9,0.57,2.85,0.86
					c0.08,0.02,0.16,0.08,0.18,0.09C450.14,548.33,448.27,548.78,446.41,549.3z M469.15,525.13c-0.3,0.05-0.61,0.07-0.92,0.11
					c-0.81,0.1-1.62,0.13-2.4,0.5c-0.53,0.25-1.2,0.23-1.8,0.26c-0.42,0.03-0.85-0.06-1.26-0.1c-0.37,0.32-0.42,0.67-0.11,1.16h2.32
					c0.53,1.18,1.16,2.18,1.93,3.11c0.29,0.36,0.45,0.84,0.63,1.28c0.13,0.32-0.21,0.78-0.63,0.99c-1.41,0.68-2.92,1.09-4.44,1.46
					c-0.82,0.21-1.58,0.23-2.29-0.28c-0.09-0.06-0.22-0.1-0.34-0.1c-0.29,0-0.62-0.23-0.85,0.13c-0.18,0.27-0.18,1.01,0.02,1.25
					c0.14,0.18,0.3,0.33,0.49,0.54c0.17-0.25,0.28-0.43,0.41-0.63c0.7,0.1,0.96,0.71,1.26,1.21c0.8,1.31,2.05,1.9,3.41,2.37
					c0.09,0.03,0.18,0.01,0.28,0.01c0.06,0,0.12,0.01,0.22,0.02c-0.44,1.09-0.2,2.18-0.11,3.25c0.13,1.51,0.12,3-0.24,4.48
					c-0.09,0.38-0.27,0.63-0.59,0.83c-0.76,0.48-1.62,0.64-2.46,0.88c-0.11,0.03-0.24,0.01-0.34,0.05c-1.5,0.55-2.97,0.3-4.46-0.09
					c-1.85-0.48-3.72-0.9-5.58-1.38c-0.89-0.23-1.77-0.53-2.65-0.79c-2.16-0.62-4.33-1.21-6.48-1.86c-1.97-0.59-3.92-1.25-5.89-1.86
					c-1.94-0.61-3.88-1.23-5.83-1.78c-1.81-0.51-3.01-1.7-3.9-3.29c-0.43-0.78-0.88-1.57-1.3-2.36c-0.22-0.42-0.39-0.86-0.58-1.29
					c-0.08-0.17-0.09-0.3-0.02-0.51c0.08-0.25-0.05-0.58-0.08-0.89c0.01-0.01,0.04-0.07,0.07-0.07c0.64,0.13,1.09-0.21,1.48-0.64
					c0.63-0.69,1.09-1.46,0.98-2.45c-0.02-0.2-0.03-0.42-0.29-0.39c-0.12,0.01-0.25,0.15-0.34,0.27c-0.38,0.45-0.73,0.92-1.11,1.36
					c-0.18,0.21-0.43,0.27-0.71,0.17c-0.2-0.07-0.38-0.15-0.61-0.01c-0.08,0.05-0.31-0.05-0.42-0.14c-0.94-0.84-2.1-1.35-3.14-2.05
					c-1.89-1.28-3.99-2.28-5.62-3.95c-0.73-0.74-1.56-1.37-2.22-2.18c-0.93-1.12-1.33-2.44-1.63-3.81c-0.07-0.32-0.1-0.65-0.15-0.98
					c-0.31-1.69,0.57-2.81,1.85-3.68c0.55-0.38,1.22-0.6,1.89-0.81c-0.18,0.22-0.41,0.42-0.53,0.67c-0.09,0.19-0.11,0.48-0.03,0.67
					c0.1,0.23,0.35,0.29,0.65,0.11c-0.01-0.06-0.01-0.17-0.05-0.21c-0.23-0.25-0.07-0.36,0.14-0.48c0.53-0.3,1.12-0.35,1.7-0.39
					c1.66-0.13,3.19,0.81,3.81,2.6c-0.54-0.39-1-0.72-1.39-1c-0.32,0.31-0.57,0.54-0.8,0.78c-0.1,0.12-0.21,0.3-0.2,0.43
					c0.05,0.39,0.1,0.8,0.26,1.15c0.16,0.35,0.47,0.52,0.92,0.54c0.49,0.02,1.04,0.1,1.26,0.71c0.05,0.14,0.22,0.22,0.35,0.34
					c0.3-0.2,0.37-0.39,0.14-0.66c-0.16-0.19-0.32-0.38-0.49-0.58c0.33-0.11,0.67-0.12,0.84-0.3c0.17-0.19,0.17-0.54,0.27-0.91
					c-0.89-2.42-2.59-3.76-5.23-4.14c0.65-0.19,1.3-0.49,1.97-0.56c0.66-0.07,1.21,0.32,1.64,0.85c0.22,0.28,0.23,0.28,0.71,0.37
					c0.03-0.77-0.59-1.06-1.09-1.53c0.41-0.1,0.74-0.19,1.09-0.27c2.92-0.63,5.75-1.53,8.45-2.84c0.84-0.41,1.62-0.92,2.38-1.49
					c1.04-0.81,2.17-1.5,3.31-2.17c0.18-0.11,0.37-0.22,0.55-0.32c1.64-0.96,3.3-1.85,4.93-2.8c1.02-0.59,1.98-1.29,3-1.89
					c1.96-1.15,3.91-2.32,6.02-3.17c0.96-0.39,1.97-0.64,2.97-0.96c0.81-0.26,1.61-0.54,2.43-0.78c1.49-0.43,2.99-0.85,4.53-1.28
					c0.45,1.4,0.88,2.67,1.28,3.95c0.6,1.87,1.21,3.73,1.76,5.62c0.25,0.84,0.44,1.7,0.51,2.57c0.13,1.49,0.54,2.92,0.86,4.38
					c0.23,1.04,0.46,2.08,0.77,3.09c0.08,0.29,0.2,0.55,0.33,0.82c0.12,0.24,0.25,0.47,0.38,0.71c0.71,1.3,1.42,2.61,2.16,3.91
					c0.41,0.71,0.85,1.41,1.3,2.09c0.61,0.91,1.26,1.78,1.83,2.7C470.94,523.83,470.41,524.92,469.15,525.13z M582.71,578l-0.7,4.27
					l-2.51,15.4l-0.74,4.52c-0.1,0.59-0.68,0.93-1.3,0.76l-4.72-1.29c-13.18-3.63-22.59-15.88-22.59-28.51
					c0-1.34,0.1-2.68,0.33-4.02c0.1-0.59,0.67-0.93,1.3-0.77l29.99,8.26C582.39,576.79,582.81,577.41,582.71,578z M593.14,520.93
					l-5.99,38.46c-0.06,0.37-0.25,0.7-0.53,0.94c-0.27,0.23-0.63,0.39-1,0.39c-11.13,0-21.65-5.1-28.58-13.84l-2.35-2.96
					c-11.79-14.88-29.07-24.35-47.92-26.28l-25.43-2.59l-15.51-1.58c-0.88-1.64-1.54-3.36-1.68-5.3
					c-0.63-9.12-3.69-17.35-7.34-25.65c-0.61-1.38-1.41-2.67-1.89-4.12c-3.05-9.31-7.69-18.35-11.38-27.43
					c-1.16-2.84-2.32-5.69-3.49-8.53c0.66-0.12,1.32-0.18,2.01-0.19l49.86-0.15l34.83-0.11c25.35,0,46.02,12.02,57.5,30.69
					c2.59,4.19,4.7,8.72,6.3,13.53C594.05,496.69,595.09,508.47,593.14,520.93z"/>
				<path class="st4" d="M582.71,578l-0.7,4.27l-2.51,15.4l-0.74,4.52c-0.1,0.59-0.68,0.93-1.3,0.76l-4.72-1.29
					c-13.18-3.63-22.59-15.88-22.59-28.51c0-1.34,0.1-2.68,0.33-4.02c0.1-0.59,0.67-0.93,1.3-0.77l29.99,8.26
					C582.39,576.79,582.81,577.41,582.71,578z"/>
				<path class="st5" d="M593.15,520.93l-6,38.46c-0.06,0.37-0.25,0.7-0.53,0.94c-0.27,0.23-0.63,0.39-1,0.39
					c-9.82,0-19.18-3.97-25.99-10.92c-0.91-0.92-1.77-1.9-2.58-2.92l-2.29-2.89l-0.05-0.06c-0.27-0.34-0.54-0.67-0.81-1
					c-0.94-1.14-1.91-2.25-2.91-3.33c0,0-0.01-0.01-0.01-0.02c-0.44-0.47-0.88-0.93-1.33-1.38c-0.19-0.2-0.39-0.4-0.59-0.6
					c-0.96-0.95-1.95-1.87-2.96-2.76c-0.61-0.53-1.22-1.06-1.84-1.56c-3.83-3.15-7.97-5.88-12.35-8.14
					c-0.57-0.29-1.14-0.58-1.72-0.86c-0.82-0.39-1.64-0.77-2.47-1.13c-0.56-0.25-1.13-0.48-1.69-0.71
					c-0.43-0.17-0.87-0.35-1.31-0.52c-0.88-0.34-1.77-0.66-2.66-0.96c-0.36-0.12-0.71-0.23-1.07-0.35c-1.35-0.43-2.72-0.82-4.1-1.17
					c-2.98-0.76-6.02-1.32-9.11-1.68c-0.33-0.04-0.65-0.07-0.98-0.11l-25.43-2.58l-15.51-1.58c-0.88-1.64-1.54-3.36-1.68-5.3
					c-0.64-9.12-3.69-17.35-7.34-25.65c-0.61-1.38-1.41-2.67-1.89-4.12c-3.05-9.31-7.69-18.35-11.38-27.43
					c-1.16-2.84-2.32-5.69-3.49-8.53c0.66-0.12,1.32-0.18,2.01-0.19l49.86-0.16l24.73-0.08l10.1-0.03c1.34,0,2.66,0.03,3.97,0.1
					c0.19,0.01,0.38,0.02,0.57,0.03c0.92,0.05,1.84,0.12,2.75,0.21c1.05,0.1,2.1,0.22,3.13,0.36s2.06,0.3,3.08,0.49
					c0.6,0.1,1.2,0.22,1.78,0.35c1.55,0.32,3.07,0.69,4.56,1.1c0.58,0.16,1.16,0.33,1.74,0.51c4.09,1.25,7.96,2.85,11.6,4.78
					c0.49,0.26,0.98,0.52,1.46,0.8c0.19,0.11,0.39,0.22,0.58,0.33c0.85,0.48,1.69,1,2.52,1.52c0.31,0.2,0.62,0.4,0.93,0.61
					c0.19,0.12,0.37,0.25,0.56,0.37c0.45,0.31,0.9,0.62,1.34,0.94c1.1,0.78,2.16,1.6,3.2,2.45c0.16,0.13,0.33,0.27,0.49,0.41
					c5.22,4.35,9.67,9.52,13.24,15.32c2.58,4.19,4.7,8.72,6.3,13.53C594.05,496.69,595.09,508.47,593.15,520.93z"/>
				
					<ellipse transform="matrix(0.7341 -0.679 0.679 0.7341 -271.0972 498.8141)" class="st2" cx="501.43" cy="595.6" rx="37.4" ry="31.99"/>
				<path class="st2" d="M602.4,389.68l-2.23-0.34c-4.73-0.72-8.01-5.18-7.29-9.9l0.34-2.23c0.72-4.73,5.18-8.01,9.9-7.29l2.23,0.34
					c4.73,0.72,8.01,5.18,7.29,9.9l-0.34,2.23C611.59,387.12,607.13,390.4,602.4,389.68z"/>
			</g>
			<g class="st6">
				<path class="st7" d="M565.43,453.2l-21.18,80.07c-3.83-3.15-7.97-5.88-12.35-8.14c-0.57-0.29-1.14-0.58-1.72-0.86
					c-0.82-0.39-1.64-0.77-2.47-1.13l20.63-77.97c4.09,1.25,7.96,2.85,11.6,4.78c0.49,0.26,0.98,0.52,1.46,0.8
					c0.19,0.11,0.39,0.22,0.58,0.33c0.85,0.48,1.69,1,2.52,1.52C564.81,452.79,565.12,452.99,565.43,453.2z"/>
				<path class="st7" d="M571.02,457.37l-21.39,80.83c-0.19-0.2-0.39-0.4-0.59-0.6c-0.96-0.95-1.95-1.87-2.96-2.76l21.25-80.32
					c1.1,0.78,2.16,1.6,3.2,2.45C570.69,457.1,570.86,457.23,571.02,457.37z"/>
				<path class="st7" d="M546.59,444.64l-20.58,77.77c-0.43-0.17-0.87-0.35-1.31-0.52c-0.88-0.34-1.77-0.66-2.66-0.96
					c-0.36-0.12-0.71-0.23-1.07-0.35c-1.35-0.43-2.72-0.82-4.1-1.17l20.3-76.72c1.03,0.14,2.06,0.3,3.08,0.49
					c0.6,0.1,1.2,0.22,1.78,0.35C543.58,443.86,545.1,444.23,546.59,444.64z"/>
			</g>
		</g>
	</g>
</g>
</svg>
