<svg id="Layer_1" data-name="Layer 1" xmlns="http://www.w3.org/2000/svg" viewBox="0 0 631.8 242.04"><defs><style>.cls-1{fill:#002c2b;}.cls-2{fill:#fff;}</style></defs><path class="cls-1" d="M271.22,438.44l-7.91,49.76h37.07a4.05,4.05,0,0,1,3.27,1.43,4.17,4.17,0,0,1,.87,3.5l-2.8,17.63a5.66,5.66,0,0,1-2,3.49,5.5,5.5,0,0,1-3.72,1.43H258.94L251,565.45H298a4.08,4.08,0,0,1,3.27,1.42,3.9,3.9,0,0,1,.91,3.24l-2.8,17.63a5.72,5.72,0,0,1-2,3.5,5.58,5.58,0,0,1-3.73,1.42H224.41a4,4,0,0,1-3.27-1.42,4.16,4.16,0,0,1-.87-3.5l27.28-171.59a5.67,5.67,0,0,1,2-3.5,5.55,5.55,0,0,1,3.72-1.43h69.21a4.09,4.09,0,0,1,3.28,1.43,4.22,4.22,0,0,1,.87,3.5l-2.81,17.62a5.36,5.36,0,0,1-1.94,3.24,5.55,5.55,0,0,1-3.72,1.43Z" transform="translate(-220.2 -398.16)"/><path class="cls-1" d="M401.89,417.05a31.69,31.69,0,0,1,11.61,15.81A45.09,45.09,0,0,1,415,455l-.58,3.63-.21,1.29-1.73,10.89a5.36,5.36,0,0,1-1.94,3.24,5.54,5.54,0,0,1-3.72,1.42H389.23a4,4,0,0,1-3.27-1.42,3.85,3.85,0,0,1-.91-3.24L386.78,460l.2-1.29q1.41-8.82-1.71-14.52t-11.14-5.7a16.37,16.37,0,0,0-12.83,5.7,28,28,0,0,0-6.46,14.52l-13.76,86.57q-1.4,8.82,1.84,14.52t11,5.7a16.31,16.31,0,0,0,13-5.7,28.51,28.51,0,0,0,6.32-14.52l0-.26,3.26-20.48h-12.7a3.78,3.78,0,0,1-3-1.42,4.17,4.17,0,0,1-.87-3.5l2.81-17.63a5.63,5.63,0,0,1,2-3.5,5.27,5.27,0,0,1,3.46-1.42h35.26a4.08,4.08,0,0,1,3.27,1.42,4.17,4.17,0,0,1,.87,3.5l-6.84,43-.29,1.82-.33,2.07A55.06,55.06,0,0,1,391.54,571a50,50,0,0,1-16.64,15.81A42.68,42.68,0,0,1,353,592.66h-6.74q-11.65,0-19.81-5.83A31.64,31.64,0,0,1,314.82,571a45.16,45.16,0,0,1-1.53-22.16L328.2,455a55.16,55.16,0,0,1,8.58-22.17,50.22,50.22,0,0,1,16.64-15.81,42.25,42.25,0,0,1,21.66-5.83h6.74Q393.75,411.22,401.89,417.05Z" transform="translate(-220.2 -398.16)"/><path class="cls-1" d="M534.78,412.64a3,3,0,0,0-2.88-1.42H514.28a7.25,7.25,0,0,0-4.13,1.42,6.38,6.38,0,0,0-2.62,3.51l-8.48,17-7,13.92q17.88-6.15,32.84-10.76l6.43-12.83,3.66-7.29A4.42,4.42,0,0,0,534.78,412.64Zm-80.91,3.51a4.31,4.31,0,0,0-1.52-3.51,5.35,5.35,0,0,0-3.66-1.42H431.07q-3.88,0-4.5,3.89l-.17,1,7.22,39.25,2.18,11.88q5.28-1.8,11.32-4a79.45,79.45,0,0,1,15.07-2.3l-2.73-14.69Z" transform="translate(-220.2 -398.16)"/><path class="cls-1" d="M524.92,436.27l-19.07,38-6.61,13.17-23.41,46.66h-.27L467,587.74a5.73,5.73,0,0,1-2,3.5,5.54,5.54,0,0,1-3.72,1.42H444a4,4,0,0,1-3.28-1.42,4.16,4.16,0,0,1-.87-3.5l8.53-53.65h-.26L435.8,467.28q5.28-1.8,11.32-4a79.45,79.45,0,0,1,15.07-2.3l6.2,33.45L483,465.13l4.76-9.51,4.29-8.59Q510,440.88,524.92,436.27Z" transform="translate(-220.2 -398.16)"/><path class="cls-2" d="M699.42,401.86a2.84,2.84,0,0,0-2.47-2.58,114.13,114.13,0,0,0-18.46-1.11q-10.35.12-16.37.61t-18.58,1.73a536.78,536.78,0,0,0-54.4,8.61q-26.77,5.53-57.79,14.32-15.6,4.43-32.3,9.67c-5.17,1.63-10.42,3.3-15.74,5.05q-13.29,4.48-23.85,8.12-16.05,5.52-25.84,9.12c-3.35,1.23-6.15,2.31-8.4,3.2-.16.15-.28.24-.36.24a.84.84,0,0,0-.38.12,1,1,0,0,1-.49.12h.25q-4.44,2.48-3,7.39t6.65,3.44q3.69-1.19,7.87-2.63,5.28-1.8,11.32-4a79.45,79.45,0,0,1,15.07-2.3q12.36-.59,20.84,4.16l4.76-9.51A49.73,49.73,0,0,0,477.65,452a5.07,5.07,0,0,0,1.34-.5,5,5,0,0,1,1.86-.49q5.75-2,11.23-3.93,17.88-6.15,32.84-10.76l5.15-1.56q10.09-3.19,19.94-5.9a84.92,84.92,0,0,0-5.91,9.6q-4.92,9.12-12.3,26.33-8.87,20.19-18.71,46.27c-.16-3.11-.42-6.31-.74-9.59q-1.37-16.35-6.5-27.16l-6.61,13.17c.46,1.53.84,3.12,1.18,4.76a84.47,84.47,0,0,1,1.84,16.36q0,7.14-.61,18.34c-.41,7.47-.54,13-.38,16.62q-7.14,19.2-11.07,30-5.91,15.74-11.07,28.05-2.72,6.9-5.42,13a45.94,45.94,0,0,0-2.09,5.54c-.9,2.7-1.81,5.09-2.71,7.13a33.94,33.94,0,0,1-2.83,5.29,2.74,2.74,0,0,0-2,3.21,4,4,0,0,0,2.21,3.44,4.26,4.26,0,0,0,3.46.86,12.43,12.43,0,0,0,3-1,8.77,8.77,0,0,0,2.58-2.2,36.52,36.52,0,0,0,2.34-3.09,25.45,25.45,0,0,0,2-3.68c.65-1.49,1.18-2.75,1.59-3.82s.87-2.26,1.36-3.57a27.25,27.25,0,0,0,1-3q5.42-12.06,11.08-27.57,2.22-5.41,4.31-11c1.39-3.68,2.91-7.83,4.55-12.42s2.92-8.17,3.82-10.71,2.37-6.69,4.42-12.42,3.41-9.44,4.06-11.09q12.57-34.93,20.92-56.11Q540.91,467.7,549,449a126.42,126.42,0,0,1,9.84-18,1.32,1.32,0,0,0,.62,1.84c.73.41,1.43.21,2.09-.61a31.75,31.75,0,0,0,3.19-7.39,668.21,668.21,0,0,1,71.13-14.52q24.39-3.19,51-4.43-10.33,7.88-23.39,16.73a1.21,1.21,0,0,0-.73,1.49c.32,1,.9,1.22,1.72.73q16.24-10.58,33.71-19.69A2.78,2.78,0,0,0,699.42,401.86Z" transform="translate(-220.2 -398.16)"/><path class="cls-2" d="M607.85,529a2,2,0,0,1,3.2-.24,2.88,2.88,0,0,1,1,3.44c-1.31,3.29-3.78,4.43-7.38,3.45a6.66,6.66,0,0,1-3-2,9.76,9.76,0,0,1-1.6-3.57c-.41-1.56-.7-2.66-.86-3.32.16-1.64-.24-2-1.23-1-.82.66-1.56,1.24-2.21,1.73q-1.72,1.47-3.45,3.2a79.61,79.61,0,0,0-5.91,7.63Q581,546.45,574.62,558q-3.45,6.4-9.6,19t-7.38,15a92.89,92.89,0,0,1-8.13,13.54q-5.89,7.88-9.84,9.35c-3.12,1-5.37.82-6.77-.49s-1.93-3.57-1.6-6.77.7-5.87,1.11-8a60.46,60.46,0,0,1,1.6-6.4q3-9.59,13.53-30.27,5.18-10.1,7.39-15.51a7.48,7.48,0,0,0,.86-1.47c.41-.82.74-1.52,1-2.09a11.72,11.72,0,0,0,.62-2,3.59,3.59,0,0,0,0-1.85c-.17-.65-.9-.82-2.22-.49a9.81,9.81,0,0,0-1.23.49c-.82.17-2.05.49-3.69,1a35.53,35.53,0,0,0-4.55,2q-3.57,1.72-6.52,3a13.77,13.77,0,0,1-6.4,1,5.65,5.65,0,0,1-4.93-3c-1.63-2.62-.82-5.91,2.46-9.85a297.72,297.72,0,0,1,26.83-27.81q5.91-5.18,9.36-8.12a70.63,70.63,0,0,1,9.35-6.52,34.18,34.18,0,0,1,11.08-4.56c1.31-.32,2.09.13,2.33,1.36a2.67,2.67,0,0,1-.86,2.83h.25q-1.73,1.23-4.92,3.2a94.87,94.87,0,0,0-7.14,6.64l-5.17,5.17q-2.46,2.22-7,6.52t-7,6.28c-.66.82-1.32.9-2,.25q-4.42,4.67-7.88,8.36-2.7,3.21-5.9,7.14a74.25,74.25,0,0,1,7.87-2.46q8.87-2.46,12.56,0a9,9,0,0,1,3.69,4.18,10.25,10.25,0,0,1,0,6.28q-1,3.83-1.48,5.29t-2.21,5.42q-2.22,5.16-6.77,14.27T549,580.67a106.71,106.71,0,0,0-5.66,13.79c-1.32,3.93-2.13,6.64-2.46,8.12.16,0,.37-.17.61-.49a5.61,5.61,0,0,1,.62-.74,56,56,0,0,0,4.68-6.16q2.7-4.19,7.87-14,8.61-16.24,19-32,1-1.73,3.94-6.28T582,536c1-1.56,2.38-3.49,4.19-5.79a44.85,44.85,0,0,1,5.17-5.66q6.15-5.89,9.59-4.67a4.42,4.42,0,0,1,2.71,2.46l.25.25Q606.37,530.7,607.85,529Z" transform="translate(-220.2 -398.16)"/><path class="cls-2" d="M675.29,525.05q1.71-2.22,3.44-.37a2.28,2.28,0,0,1,0,3.57q-5.65,5.65-21.66,25.84-.5.74-3.69,4.92t-4.55,5.66a14.67,14.67,0,0,1-4.56,3,11,11,0,0,1-6.4,1,5,5,0,0,1-4.18-3.94q-2.22-10.57,2.71-23.38c-.17.17-.41.45-.74.86s-.58.7-.74.86q-1,1.25-3.44,4.8t-3.82,5.3q-1.35,1.73-3.69,4.3a36.41,36.41,0,0,1-4.55,4.31,21.47,21.47,0,0,1-9.48,4.55,13.18,13.18,0,0,1-9.72-2.33q-8.13-6.15-3.7-19.45a60.22,60.22,0,0,1,12.06-19.94q11.08-12.3,19-16,9.84-4.68,16.73,2a8.74,8.74,0,0,1,3,8.13l1.72-2.46a1.86,1.86,0,0,1,2.09-.87,2.62,2.62,0,0,1,1.6,1.73,4.05,4.05,0,0,1,.25,2.34,157.62,157.62,0,0,0-8.12,23.87A82.42,82.42,0,0,0,643,560a15.25,15.25,0,0,0,4.68-3.33c1.8-1.72,3.45-3.4,4.92-5s3-3.45,4.56-5.42a21.28,21.28,0,0,1,3.07-3.44Q670.11,531.68,675.29,525.05Zm-47,17.23q5.9-6.64,13-15.76a1.62,1.62,0,0,1-.25-1.47c.17-.5.53-1.36,1.11-2.59a17.28,17.28,0,0,0,1.11-2.83q.24-3.2-2.22-4.43a6.82,6.82,0,0,0-5.41-.24q-4.92,1.72-13.54,10.58-11.07,11.07-14.52,20.92-2,5.17-1.23,7.38,2,5.17,9.11.25Q620.4,550.9,628.28,542.28Z" transform="translate(-220.2 -398.16)"/><path class="cls-2" d="M718.35,504.86q3,6.9-2.46,19.45a75,75,0,0,1-9.84,15.75q-14.77,18.23-21.17,30.27c-.16.34-.49.95-1,1.85a18.58,18.58,0,0,0-1,2,20.08,20.08,0,0,1-1,2,13.09,13.09,0,0,1-1.36,2.09,21,21,0,0,0-1.35,1.85,11.29,11.29,0,0,1-1.48,1.84,10.42,10.42,0,0,1-1.72,1.36,15.34,15.34,0,0,1-1.85,1,10.69,10.69,0,0,1-2.09.62q-14,1.71-7.38-33,5.16-26.32,16.24-43.56a3.55,3.55,0,0,1,3.08-1.23,3.91,3.91,0,0,1,2.71,2.09,3.32,3.32,0,0,1,.37,3.32q-7.14,19-9.36,28.31a127.52,127.52,0,0,0-3.2,17.47c-.82,6.9-1.23,10.83-1.23,11.82.5-.82,1.07-1.72,1.73-2.71q.24-.24,4.92-8.12a100.87,100.87,0,0,1,12.55-16.74q11.07-12.3,13.78-16a92.69,92.69,0,0,0,5.42-8.86,31.05,31.05,0,0,0,1.35-3.94c.41-1.47.78-3,1.11-4.55a16.09,16.09,0,0,1,1.23-3.81,2.18,2.18,0,0,1,1.48-1.23A1.19,1.19,0,0,1,718.35,504.86Z" transform="translate(-220.2 -398.16)"/><path class="cls-2" d="M788.5,523.08a2.45,2.45,0,0,1,3,0,3,3,0,0,1,1.48,2.58,3.88,3.88,0,0,1-1.23,2.83,140.57,140.57,0,0,0-23.63,21.42q-3,3.69-8.49,11.44a122,122,0,0,1-8.74,11.2q-9.11,10.1-17.23,9.6a11.73,11.73,0,0,1-9.47-4.68,21.76,21.76,0,0,1-4.06-10.83q-3.2-23.37,13.29-45,10.08-13.29,19.69-16.24,3.69-1.73,8.86-.25t5.9,5.91a6.4,6.4,0,0,1-.12,2.83,8.25,8.25,0,0,1-1.23,2.58,26.82,26.82,0,0,1-1.72,2.22,22.68,22.68,0,0,1-2.34,2.21c-1,.83-1.77,1.44-2.34,1.85s-1.44,1-2.58,1.72a20.41,20.41,0,0,0-2,1.35,83.74,83.74,0,0,1-18.95,9.85,54.83,54.83,0,0,0-5.66,20.18,25.28,25.28,0,0,0-.13,4.56q.12,2.82.5,5.66a9.18,9.18,0,0,0,1.84,4.67,3.75,3.75,0,0,0,3.94,1.36q4.19-.73,11.81-8.62,3-3.2,7.88-9.35A170.67,170.67,0,0,1,788.5,523.08Zm-48,5.41c-.82,1.32-1.64,2.71-2.46,4.19a136.73,136.73,0,0,0,14.28-8.86q4.42-3.45,7.88-6.65,4.42-4.18,1.47-6.15c-1-.82-2.95-.58-5.91.74Q749.37,515.21,740.5,528.49Z" transform="translate(-220.2 -398.16)"/><path class="cls-2" d="M796.62,525.54l-3,6.89c-1.48,3.45-2.59,6.07-3.32,7.88a57,57,0,0,0-2.22,6.89,41.16,41.16,0,0,0-1.35,7.63v1.72l.24.74.49.74a8.52,8.52,0,0,0,2.71,1.47q3,1.25,8.13-2.21a108.59,108.59,0,0,0,13.41-10.09q6.76-5.91,14.4-13.29t12.3-11.57a2,2,0,0,1,2.71.12,1.8,1.8,0,0,1,.25,2.59q-6.9,10.34-25.11,30c-.49.5-1.35,1.48-2.58,3a30.56,30.56,0,0,1-2.83,3.07c-.66.58-1.6,1.48-2.83,2.71a27.88,27.88,0,0,1-3.2,2.83c-.91.66-2,1.36-3.2,2.09a23.16,23.16,0,0,1-3.82,1.85,18.08,18.08,0,0,1-15.38-1,14,14,0,0,1-8-12.31,30.47,30.47,0,0,1,.37-7.14,51.13,51.13,0,0,1,2.09-8c1-2.87,1.89-5.2,2.71-7s2-4.31,3.44-7.51,2.47-5.37,3-6.52q2-4.44,4.8-11.2t4.92-11.69q2.09-4.92,4.92-11.08t5.54-11.32a12.4,12.4,0,0,1-5.41.74c-1,0-1.44-.62-1.36-1.85s.62-1.84,1.6-1.84q3.94-.24,8.62-3.94,3.2-5.65,6.4-10.58a107.73,107.73,0,0,1,15.26-19.45c.32-.33,1.14-1.23,2.46-2.71a37.58,37.58,0,0,1,3-3.07l3-2.59a20.17,20.17,0,0,1,3.33-2.46,18.68,18.68,0,0,1,3.32-1.35,13.12,13.12,0,0,1,3.94-.62,1.58,1.58,0,0,1,1.47,1.11,2.89,2.89,0,0,1,0,2.34,32,32,0,0,1-3,7.26,40.11,40.11,0,0,1-5.41,7.38c-2.3,2.55-4.06,4.39-5.29,5.54s-3.41,3.2-6.53,6.15q-3.93,3.71-8.12,7.14l-3.2,6.4q-3.94,8.13-7.75,16.86t-9,22Q798.35,521.6,796.62,525.54Zm35-75.81-.24.49-.25.25q10.57-9.84,14.28-17-.5.5-5.67,6.15A114.58,114.58,0,0,0,831.57,449.73Z" transform="translate(-220.2 -398.16)"/></svg>