<svg xmlns="http://www.w3.org/2000/svg" viewBox="0 0 225.49 260.38"><defs><style>.cls-1{isolation:isolate;}.cls-2{fill:#ffd770;}.cls-3{fill:#fff;}.cls-4{fill:#002c2b;}.cls-5{fill:#009490;}.cls-6{mix-blend-mode:multiply;opacity:0.6;}.cls-7{fill:#003130;opacity:0.4;}</style></defs><g class="cls-1"><g id="Layer_1" data-name="Layer 1"><path class="cls-2" d="M391.82,524h-1.47l.6,1.43C391.28,524.83,391.52,524.42,391.82,524Z" transform="translate(-344 -292.8)"/><path class="cls-2" d="M355.39,497.61c.42.17.63,0,.79-.38.27-.57.55-1.14.82-1.72.07-.15.13-.31.24-.61-.37.18-.69.24-.8.42A6.63,6.63,0,0,0,355.39,497.61Z" transform="translate(-344 -292.8)"/><path class="cls-2" d="M354.36,497.36c.25-.58.51-1.14.84-1.87-.45.19-.85.24-1.05.46a6.1,6.1,0,0,0-1.06,1.95C353.65,497.87,354.12,497.89,354.36,497.36Z" transform="translate(-344 -292.8)"/><path class="cls-2" d="M358.26,495.15c-.14.25-.29.49-.41.75-.27.54-.52,1.09-.82,1.73l1.13.11,1.4-3.4C358.69,494.43,358.66,494.45,358.26,495.15Z" transform="translate(-344 -292.8)"/><path class="cls-2" d="M362.85,493.74c-1.07,0-2.08,0-2.45,1.23a3.14,3.14,0,0,1-.18.31,10.21,10.21,0,0,0-1,2.72l1.2.54C361.23,496.94,362,495.36,362.85,493.74Z" transform="translate(-344 -292.8)"/><path class="cls-2" d="M361,502c.34-.1.47-.26.36-.61a5.42,5.42,0,0,1-.17-.91.66.66,0,0,0-.66-.64,21.42,21.42,0,0,0-1.72,2.86C359.7,502.43,360.36,502.2,361,502Z" transform="translate(-344 -292.8)"/><path class="cls-2" d="M366.19,494.26a3,3,0,0,0-2.21-.53c-.85,1.67-1.74,3.38-2.63,5.14l1.77.76Z" transform="translate(-344 -292.8)"/><path class="cls-2" d="M392.5,524.32c-.37.61-.67,1.08-.95,1.56a.45.45,0,0,0,0,.39c.36.7.75,1.38,1.16,2.15A8.88,8.88,0,0,0,392.5,524.32Z" transform="translate(-344 -292.8)"/><path class="cls-2" d="M363.75,510.57a4.09,4.09,0,0,0,.31.58c.11-.07.16-.09.18-.13.64-1.39,1.29-2.77,1.91-4.18a3.14,3.14,0,0,0,.08-.83c-1,.29-1.78.53-2.61.81-.61.2-.64.25-.51.85C363.32,508.64,363.53,509.61,363.75,510.57Z" transform="translate(-344 -292.8)"/><path class="cls-2" d="M389.45,527.9l.1,0,1-1.79-.77-1.54C389.69,525.8,389.57,526.85,389.45,527.9Z" transform="translate(-344 -292.8)"/><path class="cls-2" d="M367.16,494.76a23.84,23.84,0,0,0-3.06,5.41l1.71,1.31,2.89-5.23Z" transform="translate(-344 -292.8)"/><path class="cls-2" d="M365.06,503.19l-1.41,2.69.09.11,2.34-.74A1.85,1.85,0,0,0,365.06,503.19Z" transform="translate(-344 -292.8)"/><path class="cls-2" d="M352,501.94l.82-.44c0-.31-.07-.56-.1-.81l-.17-.07-.67,1.22A1.27,1.27,0,0,0,352,501.94Z" transform="translate(-344 -292.8)"/><path class="cls-2" d="M357.7,499.43l.82-.39C357.89,498.82,357.89,498.82,357.7,499.43Z" transform="translate(-344 -292.8)"/><path class="cls-2" d="M360.27,507c.63-.15,1.25-.36,1.91-.55l-.52-3.39-.14-.05c-.63,1.24-1.27,2.48-1.94,3.83A1.87,1.87,0,0,0,360.27,507Z" transform="translate(-344 -292.8)"/><path class="cls-2" d="M358.11,502.45a12.42,12.42,0,0,0,1.72-3l-2.14.74.25,1.82A3.25,3.25,0,0,0,358.11,502.45Z" transform="translate(-344 -292.8)"/><path class="cls-2" d="M360.76,503a1.47,1.47,0,0,0-.1-.13c-.75.26-1.5.52-2.26.8a4.09,4.09,0,0,0,.61,2.58A23.73,23.73,0,0,0,360.76,503Z" transform="translate(-344 -292.8)"/><path class="cls-2" d="M362.27,507.24l-1.47.47c.3.25.52.44.8.66Z" transform="translate(-344 -292.8)"/><path class="cls-2" d="M362.68,509.25c-.06-.3-.1-.56-.17-.9C362.09,508.93,362.09,508.93,362.68,509.25Z" transform="translate(-344 -292.8)"/><path class="cls-2" d="M351.33,498.08c.29,0,.6.09.76-.23.24-.5.45-1,.71-1.58A4,4,0,0,0,351.33,498.08Z" transform="translate(-344 -292.8)"/><path class="cls-2" d="M363,505.72c.51-1,1-2.06,1.57-3.12l-.81-.65-1.44.52c.19,1.1.35,2.14.52,3.2Z" transform="translate(-344 -292.8)"/><path class="cls-2" d="M353,502.21l-1.57.73c.67.21,1.17.72,1.92.71C353.25,503.15,353.14,502.73,353,502.21Z" transform="translate(-344 -292.8)"/><path class="cls-2" d="M357.81,505.44c0-.24,0-.46-.06-.71C357.32,505.18,357.32,505.18,357.81,505.44Z" transform="translate(-344 -292.8)"/><path class="cls-2" d="M351.5,499.24c-.31-.24-.59-.08-.83-.06-.46.05-.47.1-.28.69C350.74,499.66,351.09,499.47,351.5,499.24Z" transform="translate(-344 -292.8)"/><path class="cls-2" d="M352.15,499.66l-1.8,1c.09.61.17,1.18.26,1.78A6.39,6.39,0,0,0,352.15,499.66Z" transform="translate(-344 -292.8)"/><path class="cls-2" d="M355.6,501.16a5.55,5.55,0,0,0-1.89.91l.44,1.55C354.64,502.77,355.08,502,355.6,501.16Z" transform="translate(-344 -292.8)"/><path class="cls-2" d="M356.16,500.08a1.1,1.1,0,0,0,.47-1.43c-.55,0-1.06-.15-1.57-.15a2.1,2.1,0,0,0-1.46.44.87.87,0,0,0-.34.64c.06.52.22,1,.34,1.6C354.52,500.79,355.35,500.45,356.16,500.08Z" transform="translate(-344 -292.8)"/><path class="cls-2" d="M362.46,501.56l.49-.27C362.55,501.07,362.49,501.31,362.46,501.56Z" transform="translate(-344 -292.8)"/><path class="cls-2" d="M384,522c-.43,1.94-.83,3.75-1.27,5.71,1-.86,1.92-1.62,2.82-2.37-.35-1-.64-1.91-1-2.78C384.49,522.4,384.24,522.26,384,522Z" transform="translate(-344 -292.8)"/><path class="cls-2" d="M381,521.84l1.3-.75-1.65-1.1A3.92,3.92,0,0,0,381,521.84Z" transform="translate(-344 -292.8)"/><path class="cls-2" d="M383,520.1l2.46,1c.58-2.69.55-5.36.9-8l-2.08-1.08C383.9,514.82,383.23,517.4,383,520.1Z" transform="translate(-344 -292.8)"/><path class="cls-2" d="M383.37,511.43c-.69-.52-1.38-1-2.11-1.55l-1.62,7.69c.83.65,1.65,1.31,2.55,2,.08-.33.14-.5.17-.69.24-1.42.47-2.85.72-4.25.13-.8.3-1.59.43-2.38C383.56,512,383.66,511.65,383.37,511.43Z" transform="translate(-344 -292.8)"/><path class="cls-2" d="M379.5,508.25c-.29-.22-.53-.49-.86-.8-.33,1-.65,1.84-.91,2.72-.37,1.25-.68,2.51-1.05,3.75a.67.67,0,0,0,.17.7c.65.72,1.31,1.42,2,2.22a5.66,5.66,0,0,0,.21-.6c.4-1.85.72-3.72,1.2-5.54A2.09,2.09,0,0,0,379.5,508.25Z" transform="translate(-344 -292.8)"/><path class="cls-2" d="M379.87,522.56c.15-.1.35-.33.32-.47-.12-.79-.31-1.56-.47-2.34a23.15,23.15,0,0,0-1.91,4.12C378.59,523.37,379.24,523,379.87,522.56Z" transform="translate(-344 -292.8)"/><path class="cls-2" d="M389.16,521.07q0-2.88,0-5.76c0-1,0-1-1-1.39-.22-.08-.43-.2-.65-.28s-.29-.08-.49-.13c-.22,2.66-.44,5.26-.65,7.84a5.79,5.79,0,0,0,2.6.74A8.23,8.23,0,0,0,389.16,521.07Z" transform="translate(-344 -292.8)"/><path class="cls-2" d="M356.89,504.25c-.19.15-.34.27-.52.43C356.82,504.77,356.82,504.77,356.89,504.25Z" transform="translate(-344 -292.8)"/><path class="cls-2" d="M357,500.49a11.29,11.29,0,0,0-2.15,3.69,7.53,7.53,0,0,0,2.64-1C357.3,502.29,357.15,501.44,357,500.49Z" transform="translate(-344 -292.8)"/><path class="cls-2" d="M349.86,502.62c-.06-.49-.13-1-.21-1.6-.76.48-1.61.68-2.1,1.47l0,.18A5.34,5.34,0,0,0,349.86,502.62Z" transform="translate(-344 -292.8)"/><path class="cls-2" d="M376.46,505c-.19.46-.31.74-.43,1-.68,1.51-1.37,3-2,4.5-.11.24-.24.48,0,.72.64.75,1.29,1.5,2,2.3.08-.24.14-.38.18-.54.19-.73.35-1.47.57-2.19.36-1.2.75-2.38,1.17-3.56a.79.79,0,0,0-.17-.9C377.31,505.92,376.93,505.5,376.46,505Z" transform="translate(-344 -292.8)"/><path class="cls-2" d="M386.14,524.71l1.46-1.11a1.55,1.55,0,0,0,.15-.22l-2.42-.64C385.63,523.45,385.87,524.05,386.14,524.71Z" transform="translate(-344 -292.8)"/><path class="cls-2" d="M365.08,476c-1.06,2.17-2.23,4.28-3.43,6.37-1,1.78-2.14,3.51-3.24,5.24-.87,1.38-1.76,2.76-2.67,4.11-.59.87-1.23,1.72-1.91,2.65,2-.18,3.77-.84,5.65-1a26.11,26.11,0,0,0,3-.51,6.71,6.71,0,0,1,5.79,1.64,39.75,39.75,0,0,1,5.56,6c.67.82,1.3,1.69,2,2.45,1.46,1.48,3,2.9,4.49,4.32.57.53,1.22,1,1.82,1.47a17.48,17.48,0,0,0,5.39,3.33,7.72,7.72,0,0,0,2.54.54c-.12-1.12-.21-2.23-.38-3.31S389.32,507,389,506a44.86,44.86,0,0,1-1.07-5.64,15.42,15.42,0,0,1,.42-6.24,31.37,31.37,0,0,1,1.72-4.5c.73-1.61,1.59-3.17,2.42-4.74a43.75,43.75,0,0,1,3.61-5.92c.9-1.2,1.82-2.4,2.74-3.61a8.11,8.11,0,0,1,4.28-3c1.85-.52,3.73-1,5.56-1.45a.92.92,0,0,0-.17-.08l-2.85-.86c-3.17-.95-6.38-1.75-9.5-2.86-1.58-.58-3.2-1-4.81-1.5s-2.95-.86-4.4-1.36a5.57,5.57,0,0,1-2.45-1.49,15.41,15.41,0,0,1-1.88-2.64,31.38,31.38,0,0,1-2.58-5.43,1.37,1.37,0,0,0-.41-.65,11.24,11.24,0,0,0-1.35-.89,31,31,0,0,1-5.06-3.38c-1.05-.92-2.17-1.75-3.21-2.67a10.61,10.61,0,0,1-3.05-5.36,7.26,7.26,0,0,1-.1-3.62c-.45.38-.82.8-1.26,1.16a10.8,10.8,0,0,0-3.38,6.08,27.4,27.4,0,0,0-.33,7,.72.72,0,0,0,.24.47,12,12,0,0,1,2.81,3.45c.5.88.91,1.82,1.33,2.73a9.1,9.1,0,0,1,.41,1.05,31.08,31.08,0,0,1,1.1,4.84,16,16,0,0,1,.19,2.68,10.24,10.24,0,0,1-1,3.74C366.37,472.83,365.83,474.44,365.08,476Z" transform="translate(-344 -292.8)"/><path class="cls-2" d="M375.19,503.62a4.9,4.9,0,0,1-.54-.65,21.49,21.49,0,0,0-3,5.6c.51.54,1,1.12,1.61,1.75l.75-1.66c.5-1.1,1-2.19,1.5-3.29A1.33,1.33,0,0,0,375.19,503.62Z" transform="translate(-344 -292.8)"/><path class="cls-2" d="M382,527.5a39.39,39.39,0,0,0,1.25-6,20.51,20.51,0,0,0-2,1.13c-.09.06-.12.29-.09.44.23,1.48.48,3,.73,4.45Z" transform="translate(-344 -292.8)"/><path class="cls-2" d="M386,526.1a1.58,1.58,0,0,0-.28.11c-1.09.94-2.19,1.87-3.34,2.87a15.27,15.27,0,0,0,5.69,2.2C387.3,529.48,386.64,527.79,386,526.1Z" transform="translate(-344 -292.8)"/><path class="cls-2" d="M377.44,525.88c1.21.93,2.46,1.81,3.69,2.72l.15-.13c-.27-1.76-.55-3.52-.85-5.42-1.07.71-2,1.32-3,2C377.06,525.29,377,525.58,377.44,525.88Z" transform="translate(-344 -292.8)"/><path class="cls-2" d="M388.8,526.8a22.44,22.44,0,0,0,.25-3.19,10.62,10.62,0,0,0-2.58,1.89l1.9,4.35C388.57,528.81,388.69,527.81,388.8,526.8Z" transform="translate(-344 -292.8)"/><path class="cls-2" d="M391,526.89a24.36,24.36,0,0,0-2,3.94l3.55-1.2C392,528.71,391.52,527.85,391,526.89Z" transform="translate(-344 -292.8)"/><path class="cls-2" d="M376.91,523.91c.69-1.59,1.38-3.18,2.1-4.82a6.33,6.33,0,0,0-2.71,1.17c.16,1.18.33,2.4.5,3.63Z" transform="translate(-344 -292.8)"/><path class="cls-2" d="M375.44,519.13c-.09-.79-.13-1.6-.2-2.4a4.35,4.35,0,0,0-.14-.54c-1,1.57-2.18,2.92-2.67,4.78a11.53,11.53,0,0,0,2.58-1.06A.68.68,0,0,0,375.44,519.13Z" transform="translate(-344 -292.8)"/><path class="cls-2" d="M371.46,514.33c0,.44.08.87.13,1.34l3.23-1-3.14-3.87a1,1,0,0,0-.36,1C371.38,512.59,371.4,513.46,371.46,514.33Z" transform="translate(-344 -292.8)"/><path class="cls-2" d="M371.83,499.76a57.6,57.6,0,0,0-2.95,5.62c.66.77,1.3,1.51,2,2.25l3.09-5.45A11.26,11.26,0,0,0,371.83,499.76Z" transform="translate(-344 -292.8)"/><path class="cls-2" d="M374.51,515.61a14.46,14.46,0,0,0-2.85.88,8.37,8.37,0,0,0,.39,3.07Z" transform="translate(-344 -292.8)"/><path class="cls-2" d="M378.42,518.31c-.46-.44-.88-.8-1.28-1.2s-.77-.82-1.16-1.23l-.12.08c.1,1.09.19,2.19.3,3.37Z" transform="translate(-344 -292.8)"/><path class="cls-2" d="M376.14,524.67c-.2-1.42-.39-2.78-.59-4.19l-2.46,1.14Z" transform="translate(-344 -292.8)"/><path class="cls-2" d="M391.83,520.41c-.38-1.73-.8-3.45-1.2-5.18-.06-.25-.08-.51-.16-.76a.32.32,0,0,0-.48-.21v8l2.09.13C392,521.7,392,521,391.83,520.41Z" transform="translate(-344 -292.8)"/><path class="cls-2" d="M403.89,389.32c.63.08.83.53,1,1,.23.67.46,1.33.68,2,.06.17.12.34.17.52.18.69.32,1.39.55,2.05s.58,1.33.86,2c.19.45.34.93.54,1.39a13.55,13.55,0,0,0,2.1,3.26,3.2,3.2,0,0,0,.31.28c0-.16,0-.24,0-.3-.59-1.33-1.19-2.67-1.79-4-.37-.79-.81-1.56-1.13-2.37-.36-1-.61-2-.94-3s-.78-2.28-1.18-3.41c-.22-.65-.47-1.29-.69-1.89-.31,0-.5,0-.69-.07a8.1,8.1,0,0,1-.8-.24l-.52-.17a7,7,0,0,1-2-1.33,10.1,10.1,0,0,1-3.26-4.62A.79.79,0,0,1,397,380a.69.69,0,0,1,.14-.45,3.48,3.48,0,0,1,1.26-.74,2.34,2.34,0,0,1,2,.64,7,7,0,0,1,1.61,2,2.55,2.55,0,0,0,.29.38,27,27,0,0,0-.89-3,2.32,2.32,0,0,0-1.64-1.75c-.13,0-.24-.15-.37-.2a1.68,1.68,0,0,0-.46-.16,2.34,2.34,0,0,0-2.88,1.42,4,4,0,0,0-.32,3.11,9.35,9.35,0,0,0,2.53,3.81l1,1a5.93,5.93,0,0,0,1.43,1.14,10.08,10.08,0,0,1,2.8,1.89C403.65,389.17,403.77,389.31,403.89,389.32Z" transform="translate(-344 -292.8)"/><path class="cls-2" d="M397.22,389.24a5,5,0,0,1,2-.21c.48,0,1,0,1.45,0,0-.07.05-.14.07-.2-.27-.19-.28-.63-.77-.61a30.63,30.63,0,0,0-4.06.5c.05.26.09.48.14.72A9.3,9.3,0,0,0,397.22,389.24Z" transform="translate(-344 -292.8)"/><path class="cls-2" d="M399.35,387.33c-.27-.22-.54-.42-.94-.73.1.41.16.66.23.93l.68-.07Z" transform="translate(-344 -292.8)"/><path class="cls-2" d="M398,387.6c-.17-.92-.24-1.78-1.06-2.36a5.29,5.29,0,0,1-.81-.88l-.59-.69-.1.05c.44,1.35.87,2.7,1.32,4.08Z" transform="translate(-344 -292.8)"/><path class="cls-2" d="M366.56,510.54c-.05-.74-.09-1.49-.15-2.24l-.14-.05c-.47,1.08-.95,2.15-1.49,3.38.58-.19,1-.34,1.37-.45A.53.53,0,0,0,366.56,510.54Z" transform="translate(-344 -292.8)"/><path class="cls-2" d="M396.24,387.88c-.35-1.11-.68-2.16-1-3.22s-.33-2.16-.78-3.27l-1.45.21c.79,2.18,1.56,4.3,2.33,6.44Z" transform="translate(-344 -292.8)"/><path class="cls-2" d="M398.68,380.06c-.11.08-.24.27-.21.38a1.45,1.45,0,0,0,.29.7c.67.78,1.37,1.53,2.06,2.29a8.81,8.81,0,0,0-1.8-3.24C399,380.1,398.73,380,398.68,380.06Z" transform="translate(-344 -292.8)"/><path class="cls-2" d="M384.34,390.09c-.67-2.24-1.32-4.45-2-6.66-.34.06-.63.13-1,.21a45.94,45.94,0,0,0,2.16,6.64Z" transform="translate(-344 -292.8)"/><path class="cls-2" d="M392.26,385.54c-.14-.43-.23-.74-.35-1.13l-4.1.93c.12.33.22.63.36,1C389.53,386.07,390.84,385.82,392.26,385.54Z" transform="translate(-344 -292.8)"/><path class="cls-2" d="M387.18,389.49l.69-.16s.07-.05.14-.12c-.44-1.61-.91-3.23-1.49-4.84-.21-.58-.43-1.16-.68-1.72l-.77.17,1.15,3.63C386.54,387.45,386.86,388.46,387.18,389.49Z" transform="translate(-344 -292.8)"/><path class="cls-2" d="M394.49,388c-.22-.56-.46-1.12-.67-1.69-.33-.83-.63-1.67-1-2.5,0-.12-.18-.2-.27-.3.14.5.28,1,.44,1.53.28.94.57,1.89.88,2.82C394,388.24,394.05,388.24,394.49,388Z" transform="translate(-344 -292.8)"/><path class="cls-2" d="M385.68,389.81h.05c.16,0,.31-.1.47-.15-.08-.35-.18-.74-.28-1.13a29.36,29.36,0,0,0-1.89-5.45l-1,.2a61.13,61.13,0,0,0,2.09,6.64C385.32,389.87,385.51,389.85,385.68,389.81Z" transform="translate(-344 -292.8)"/><path class="cls-2" d="M392.64,386.8c-.08-.26-.14-.44-.22-.68l-4.07.92.2.67Z" transform="translate(-344 -292.8)"/><path class="cls-2" d="M393.14,388.29l-.26-.75a13.27,13.27,0,0,0-4.11.93q.06.28.12.6Z" transform="translate(-344 -292.8)"/><path class="cls-2" d="M404.6,405a19.57,19.57,0,0,0-3.58.84,34.11,34.11,0,0,0-5.25,1.94,51.1,51.1,0,0,0-6.35,3.32,17.31,17.31,0,0,0-3.08,2.24,2.35,2.35,0,0,0-.81,1.91c0,.47.05,1,.08,1.42a16,16,0,0,0,.47,3.5,18.07,18.07,0,0,0,1.37,3.49,10.2,10.2,0,0,1,1.31,3,1.4,1.4,0,0,0,.15.34c.53-.35,1-.68,1.48-1l.54-.34c1.95-1.2,3.89-2.41,5.87-3.58,1.48-.87,3-1.7,4.53-2.49,1.37-.71,2.79-1.32,4.15-2a24.62,24.62,0,0,1,6.76-2.48,8.06,8.06,0,0,0,2-.77,1,1,0,0,0,.44-1.23c-.45-1-.91-1.92-1.4-2.86s-1.08-1.88-1.55-2.86a2.76,2.76,0,0,0-1.12-1.31A10.21,10.21,0,0,0,404.6,405Z" transform="translate(-344 -292.8)"/><path class="cls-2" d="M375.14,420.29l-3.42-.15c0,.23,0,.37,0,.5.11,1.13.21,2.26.36,3.38a9.23,9.23,0,0,0,.37,1.81c.45,1.29.2,1,1.46,1,0,0,0,0,.07-.05a.52.52,0,0,0,0-.18c-.1-.82-.26-1.63-.3-2.45,0-1,0-2,0-3a.6.6,0,0,1,.58-.68,5.19,5.19,0,0,1,0,.69,17.13,17.13,0,0,0,.25,5.15c.11.61.14.62.83.47C375.3,424.68,375.22,422.52,375.14,420.29Z" transform="translate(-344 -292.8)"/><path class="cls-2" d="M370.35,420.17a27.85,27.85,0,0,0,.7,6.54l1.08.07c-.8-2.14-.69-4.36-1.07-6.58Z" transform="translate(-344 -292.8)"/><path class="cls-2" d="M359.73,450.56c.12-.8.19-1.53.36-2.23.43-1.74.86-3.49,1.39-5.2a22.65,22.65,0,0,1,1.31-3.28A6.94,6.94,0,0,1,365,437c.88-.59,1.72-1.24,2.58-1.86a20.83,20.83,0,0,1,4-1.8,13.08,13.08,0,0,1,1.95-.64c1.58-.4,3.18-.71,4.75-1.16a15.79,15.79,0,0,0,5.58-2.51,3.61,3.61,0,0,0,1.48-3.85c-.37-1.71-.91-3.38-1.38-5.06a19.67,19.67,0,0,1-1-4.91,1.78,1.78,0,0,1,.13-.9,10.29,10.29,0,0,1,1.34-1.87,4.82,4.82,0,0,1,1.13-.9c.85-.49,1.64-1.1,2.5-1.6,1.32-.77,2.64-1.55,4-2.24,1.19-.62,2.43-1.12,3.65-1.7a62.58,62.58,0,0,1,6.17-2.28,34.85,34.85,0,0,0,4.41-1.53l.79-.38a5,5,0,0,0-.59-2.24c-1-2.52-2-5-3.05-7.55a5,5,0,0,0-.53-.92,1.25,1.25,0,0,0-.86-.54,15.9,15.9,0,0,0-3.3-.3,20.34,20.34,0,0,0-2.82.17c-2.41.38-4.81.81-7.21,1.24-.71.13-1.43.28-2.14.48l-1.25.37c-.76.22-1.52.45-2.28.71-2.18.74-4.37,1.49-6.55,2.28-1.28.46-2.53,1-3.81,1.49-1.69.6-3.41,1.1-5.1,1.71s-3.23,1.19-4.82,1.85l-.15.06.24-1.53c2.86-1.15,5.72-2.31,8.6-3.4,1.59-.6,3.21-1.12,4.83-1.66,1.4-.47,2.8-1,4.23-1.38,1.65-.46,3.32-.83,5-1.24l1-.26c2.54-.69,5.06-1.43,7.6-2.14a17.2,17.2,0,0,0-2.38.3c-2,.43-4.08.85-6.11,1.33l-1.15.28q-3.51.84-7,1.88t-7.08,2.3c-1.9.66-3.76,1.42-5.62,2.15l-1.74.68.34-2.2c.08.18.15.37.23.56s.23.49.62.2l-.69-1.81.18-1.1a25,25,0,0,0,1.19,2.71l.71-.32-1.6-4.35.19-1.19a48.67,48.67,0,0,0,2.09,5.28c.34-.14.6-.27.92-.41a34.11,34.11,0,0,1-2.55-7,.59.59,0,0,0-.14.06l.15-1h0l.32-2,5-1.51c1.61-.47,3.23-.88,4.84-1.34,2.29-.66,4.63-1.17,7-1.66,1.78-.37,3.58-.69,5.37-1,1.37-.21,2.75-.41,4.12-.6l2.18-.28a1.18,1.18,0,0,0,1.1-.79,5.37,5.37,0,0,1,3-2.88.5.5,0,0,0,.25-.83,6.09,6.09,0,0,1-.42-.8c-.33-.82-.58-1.66-.95-2.45-.78-1.66-1.49-3.33-2.17-5-1-2.45-1.93-4.92-2.93-7.37-.6-1.44-1.22-2.87-1.83-4.3a.84.84,0,0,0-.7-.61c-.63-.1-1.25-.25-1.87-.34a36.41,36.41,0,0,0-5.8-.4l-3.43.06c.53-.36,1.07-.7,1.62-1a25.31,25.31,0,0,1,2.45-1.21,24,24,0,0,0-15,18.92l-8.56,59.14.29-1.87c5.58.21,11.05.87,16.52,1.23a2.92,2.92,0,0,0,.15-.38c0-.11,0-.23.06-.38a.9.9,0,0,0-.26-.11c-1.82-.09-3.63-.25-5.45-.27-2.9,0-5.81.08-8.72-.18-.75-.07-1.51-.12-2.26-.16l.12-.77.06-.38.58-3.72v0c1.84-.19,3.64.28,5.42-.15v-1.76h-5.13l.13-.8,4.17,0c2.79,0,5.58-.08,8.38-.1,1,0,1.91.07,2.9.1,0-.43-.19-.61-.58-.6s-.76,0-1.13,0c-3.1.23-6.2.16-9.29.14l-4.38,0,.19-1.18c.53,0,1.05,0,1.57,0,2.79,0,5.57-.1,8.36-.14,1.68,0,3.36,0,5-.05a10.78,10.78,0,0,1,1.7.1c.67.11.77.23.77.88,0,1.61.06,3.22,0,4.83-.06,2-.21,4.06-.32,6.09-.39.6-1,.61-1.67.53-.51-.06-1-.11-1.55-.13-1.45-.07-2.92-.12-4.38-.2-1-.05-2.07-.16-3.11-.21s-2,0-3-.07c-1.74-.09-3.47-.2-5.21-.32l-2.63,18.18q1.81,1.51,3.7,3A3.19,3.19,0,0,0,359.73,450.56Z" transform="translate(-344 -292.8)"/><path class="cls-2" d="M376,419.37c0-.16,0-.32-.05-.48l-.2,0,.14.47A.35.35,0,0,1,376,419.37Z" transform="translate(-344 -292.8)"/><path class="cls-2" d="M368.91,420.22a5.14,5.14,0,0,0-.1,1c.16,1.56.34,3.14.56,4.7.1.69.22.74.91.63-.19-2.13-.39-4.26-.6-6.42Z" transform="translate(-344 -292.8)"/><path class="cls-2" d="M349.86,537.52c2.13.32,4.26.61,6.4.83a53,53,0,0,0,10.83.13,38.36,38.36,0,0,0,5.44-.91,6.2,6.2,0,0,0,2.46-1.2c-.18-.21-.3-.38-.45-.53a11.83,11.83,0,0,1-2.81-5.56c-.29-1.12-.55-2.25-.94-3.34-.68-1.91-1.38-3.82-2.24-5.66A47.07,47.07,0,0,0,365.9,516a21.73,21.73,0,0,0-3.25-4.54c-.61-.57-1.17-1.18-1.77-1.75a17.26,17.26,0,0,0-4.15-3,28.84,28.84,0,0,0-9.12-2.71l-.26,0-3.19,22A15.14,15.14,0,0,0,346.92,537C347.9,537.2,348.88,537.38,349.86,537.52Z" transform="translate(-344 -292.8)"/><path class="cls-2" d="M359.57,425.34l5.35-.12c0-.24,0-.43-.06-.62h-5.29Z" transform="translate(-344 -292.8)"/><path class="cls-2" d="M366.87,420.24a32.57,32.57,0,0,1,.76,6.37h1.18c-.25-2.15-.49-4.25-.73-6.37Z" transform="translate(-344 -292.8)"/><path class="cls-2" d="M376.45,428.63c-.25-2.84-.07-5.65-.37-8.58a1,1,0,0,0-.35,1c0,1.3.11,2.59.17,3.89,0,.25,0,.52,0,.78.05.54-.17,1.13.21,1.55-.18.42-.35.8-.54,1.25Z" transform="translate(-344 -292.8)"/><path class="cls-2" d="M360.27,424.05c.85,0,1.7.11,2.55.1a5.65,5.65,0,0,0,2-.21c0-.38-.07-.72-.11-1.2-1.81.24-3.55-.14-5.32,0,0,.19,0,.3,0,.41C359.45,423.93,359.5,424,360.27,424.05Z" transform="translate(-344 -292.8)"/><path class="cls-2" d="M366.12,420.64c-.06-.25-.13-.53-.48-.39-.26,2.14.26,4.22.28,6.38h.78a21.83,21.83,0,0,0-.3-4.75C366.33,421.47,366.23,421.06,366.12,420.64Z" transform="translate(-344 -292.8)"/><path class="cls-2" d="M364.45,425.8h-3.93a2.27,2.27,0,0,0-.69.12c-.11,0-.19.16-.29.24l0,.19c1.82.12,3.64.23,5.51.33,0-.32-.05-.54-.08-.8A2.93,2.93,0,0,0,364.45,425.8Z" transform="translate(-344 -292.8)"/><path class="cls-2" d="M410.56,405.14a2.36,2.36,0,0,0-.88-1.92l-3.2.83C407.82,404.52,409.28,404.39,410.56,405.14Z" transform="translate(-344 -292.8)"/><path class="cls-2" d="M372,527.37c.38,1.16.67,2.35,1,3.54a10.38,10.38,0,0,0,3.08,4.94c1.82-.55,3.65-1.08,5.47-1.66a25,25,0,0,0,3.43-1.73l-.07-.11-.32-.14a17.32,17.32,0,0,1-5.35-3.12c-1.16-1-2.27-2-3.35-3.06-1.69-1.65-3.34-3.34-5-5-.77-.78-1.51-1.58-2.29-2.38.67,1.59,1.35,3.14,2,4.73C371.09,524.68,371.58,526,372,527.37Z" transform="translate(-344 -292.8)"/><path class="cls-2" d="M425.18,443.05c-.45-.69-.89-1.38-1.29-2.1-.74-1.29-1.46-2.6-2.17-3.9l-.37-.72a3.94,3.94,0,0,1-.34-.82c-.3-1-.53-2.05-.76-3.09a35.72,35.72,0,0,1-.87-4.38,12.49,12.49,0,0,0-.51-2.56c-.55-1.89-1.16-3.75-1.76-5.62-.41-1.28-.83-2.56-1.28-3.95-1.55.43-3,.84-4.53,1.28-.82.24-1.62.52-2.43.78-1,.31-2,.56-3,.95a46.6,46.6,0,0,0-6,3.18c-1,.6-2,1.3-3,1.89-1.63.95-3.3,1.85-4.93,2.8l-.56.32a31.27,31.27,0,0,0-3.3,2.17,13.51,13.51,0,0,1-2.38,1.49,37.7,37.7,0,0,1-8.45,2.84c-.34.07-.68.17-1.09.27.51.47,1.13.76,1.1,1.53-.48-.1-.49-.1-.71-.38a1.9,1.9,0,0,0-1.64-.85,12.9,12.9,0,0,0-2,.56,6,6,0,0,1,5.23,4.14,2.66,2.66,0,0,1-.27.91c-.17.17-.51.19-.84.29l.49.59c.23.26.16.46-.14.66-.13-.12-.31-.21-.35-.35a1.23,1.23,0,0,0-1.27-.71,1,1,0,0,1-.92-.53,4.81,4.81,0,0,1-.26-1.15.77.77,0,0,1,.2-.43c.23-.25.48-.47.8-.79l1.39,1a4,4,0,0,0-5.5-2.2c-.22.12-.38.23-.15.48.05,0,0,.15.05.21-.29.18-.55.12-.65-.12a1,1,0,0,1,0-.67,3.72,3.72,0,0,1,.53-.67,6.83,6.83,0,0,0-1.89.81c-1.29.87-2.17,2-1.85,3.68.06.33.08.66.15,1a8.81,8.81,0,0,0,1.63,3.81c.67.81,1.5,1.44,2.23,2.18,1.63,1.67,3.72,2.67,5.61,3.95a27.3,27.3,0,0,1,3.14,2.05c.11.09.35.18.43.14a.61.61,0,0,1,.6,0,.59.59,0,0,0,.72-.17c.38-.44.73-.9,1.11-1.35.09-.12.22-.26.34-.27s.26.19.29.39a3.08,3.08,0,0,1-1,2.45,1.5,1.5,0,0,1-1.48.64s-.06.07-.07.07a2.35,2.35,0,0,1,.08.89.6.6,0,0,0,0,.51c.19.44.36.88.58,1.3.42.79.87,1.57,1.3,2.36a6.38,6.38,0,0,0,3.9,3.29c1.95.55,3.89,1.17,5.83,1.78s3.92,1.27,5.89,1.86c2.15.65,4.32,1.24,6.48,1.86.88.26,1.76.56,2.65.79,1.86.48,3.73.9,5.58,1.38a7.23,7.23,0,0,0,4.46.09c.1,0,.23,0,.34-.05a8.93,8.93,0,0,0,2.46-.88,1.22,1.22,0,0,0,.6-.83,13.74,13.74,0,0,0,.24-4.48,6.72,6.72,0,0,1,.11-3.24l-.22,0a.86.86,0,0,1-.28,0,5.85,5.85,0,0,1-3.41-2.37c-.3-.49-.56-1.1-1.26-1.2-.13.2-.24.38-.41.63a7.28,7.28,0,0,1-.49-.54,1.44,1.44,0,0,1,0-1.25c.23-.36.56-.13.85-.13a.64.64,0,0,1,.33.1,2.56,2.56,0,0,0,2.3.28,22.42,22.42,0,0,0,4.44-1.46c.42-.21.76-.67.63-1a5,5,0,0,0-.63-1.27,13.64,13.64,0,0,1-1.93-3.12h-2.32a.77.77,0,0,1,.11-1.15,8.94,8.94,0,0,0,1.27.1,5,5,0,0,0,1.79-.27,7.46,7.46,0,0,1,2.4-.5c.31,0,.62-.06.92-.11a1.48,1.48,0,0,0,1.11-2.37C426.44,444.83,425.79,444,425.18,443.05Zm-46.57,1.81c-.15-.43-.28-.84-.39-1.16l-1.28-.68-.1.07c.17.35.33.69.52,1.11-.64.25-1-.15-1.4-.46a1.93,1.93,0,0,1-.55-2.3c.33-.13.57.07.83.23a.88.88,0,0,0,.75.17,1.39,1.39,0,0,1,1.21.6,5.75,5.75,0,0,1,.92,2.12ZM416,432.44a3.35,3.35,0,0,1-1.56,1.21,6.13,6.13,0,0,1-.14,3,2.35,2.35,0,0,1,.4.13.46.46,0,0,1,.26.59c0,.13-.26.21-.42.27a5.69,5.69,0,0,1-4.64-.61,8.22,8.22,0,0,0-3.43-1c-.39,0-.39,0-.45-.48l3.43-1.23.07,0c1.32-.63,2.64-1.25,4-1.9-.1-.57-.18-1.13-.29-1.68-.16-.79-.53-1-1.34-.82a10.82,10.82,0,0,0-3.09,1.36,27.59,27.59,0,0,1-4.23,2,11.64,11.64,0,0,0-1.14.51l-.66-.43c.47-.22.9-.4,1.31-.61a12.72,12.72,0,0,1,1.23-.72,30.16,30.16,0,0,0,3.79-2.06,26.41,26.41,0,0,1,2.77-1.22,2.49,2.49,0,0,1,.65-.22,1.21,1.21,0,0,1,1.43.89,19.33,19.33,0,0,1,.57,2.11,5.28,5.28,0,0,1,0,.58.44.44,0,0,0,.6.1,1.69,1.69,0,0,1,.74-.15C416.1,432,416.16,432.27,416,432.44Zm0-4.7a.82.82,0,0,1-.65-.55c0-.23,0-.5-.12-.68a3.62,3.62,0,0,0-2.81-2,2.64,2.64,0,0,0-1.59.51c-.77.51-1.62.89-2.35,1.44-2.29,1.73-4.89,3-7.26,4.55a13.83,13.83,0,0,1-1.53.89,1.1,1.1,0,0,1-1.38-.28,23,23,0,0,0,4.25-2.56,27.35,27.35,0,0,1,2.1-1.8c1.38-1,2.82-1.91,4.23-2.86a1.87,1.87,0,0,1,.31-.17,12.55,12.55,0,0,0,2.4-1.28,2.81,2.81,0,0,1,3.3.57,5.47,5.47,0,0,1,1.52,3.06,3.44,3.44,0,0,1,0,.56C416.48,427.52,416.31,427.74,416,427.74Z" transform="translate(-344 -292.8)"/><path class="cls-2" d="M369,517.29c.86.81,1.4,1.69,2.25,2.41-.16-1.05-.31-2-.47-3Z" transform="translate(-344 -292.8)"/><path class="cls-2" d="M365.74,387a1.13,1.13,0,0,0-.93.36A1.1,1.1,0,0,0,365.74,387Z" transform="translate(-344 -292.8)"/><path class="cls-2" d="M368.39,394.88c-.84-2.34-1.67-4.63-2.51-7l-.62.22c.77,2.39,1.27,4.81,2.6,7Z" transform="translate(-344 -292.8)"/><path class="cls-2" d="M370.66,512.71a21.53,21.53,0,0,0-2.22,3.89,10.54,10.54,0,0,0,2.43-.72C370.8,514.79,370.73,513.75,370.66,512.71Z" transform="translate(-344 -292.8)"/><path class="cls-2" d="M366.55,511.83l-1.61.52c.59.66,1.09,1.23,1.68,1.91A15,15,0,0,0,366.55,511.83Z" transform="translate(-344 -292.8)"/><path class="cls-2" d="M387.85,384.58l3.61-.86.28-.05a9.68,9.68,0,0,0-4.28.61C387.65,384.6,387.66,384.63,387.85,384.58Z" transform="translate(-344 -292.8)"/><path class="cls-2" d="M371.34,499l-1.92-2.12c-1.07,1.88-2.06,3.62-2.9,5.41l1.73,2.19C369.3,502.62,370,500.65,371.34,499Z" transform="translate(-344 -292.8)"/><path class="cls-2" d="M367.89,515.84c.55-.93,1.09-1.85,1.6-2.77.33-.58.61-1.17.89-1.77a3.61,3.61,0,0,0,.17-.77l-3.17,1a1.45,1.45,0,0,0,0,.33c.07,1.06.16,2.12.21,3.18C367.56,515.37,367.52,515.66,367.89,515.84Z" transform="translate(-344 -292.8)"/><path class="cls-2" d="M370.36,509.81c-.1-.94-.1-.93-.6-1.52-.33-.41-.64-.82-1-1.22s-.64-.75-1-1.1-.44-.21-.6.11a1.26,1.26,0,0,0-.2.6c.09,1.35.22,2.71.33,4.09Z" transform="translate(-344 -292.8)"/><path class="cls-2" d="M394.43,380.56c-.12-.06-.24-.17-.36-.17-.45,0-.89,0-1.34.07-.82.07-1.65.07-2.46.21-1.11.19-2.2.4-3.3.62s-1.93.37-2.9.54c-3,.51-5.9,1.33-8.82,2.1-2.74.73-5.44,1.58-8.15,2.39a6,6,0,0,0-.77.36c1.57-.36,3.09-.86,4.62-1.29s3.06-.8,4.6-1.17,3.13-.71,4.7-1.06,3.14-.71,4.71-1c.65-.13,1.29-.24,1.93-.34.92-.16,1.84-.31,2.75-.48,1.57-.3,3.19-.12,4.73-.58Z" transform="translate(-344 -292.8)"/><path class="cls-2" d="M377,389c-.11-.33-.19-.6-.31-1-2.17.66-4.33,1.1-6.38,1.95.15.38.26.68.36,1Z" transform="translate(-344 -292.8)"/><path class="cls-2" d="M370.59,394.15a43.42,43.42,0,0,0-2.31-7.14l-.67.24c.89,2.36,1.75,4.67,2.63,7Z" transform="translate(-344 -292.8)"/><path class="cls-2" d="M368.54,392.19c-.27-.78-.56-1.56-.9-2.31a10.81,10.81,0,0,0-1-2.16,18.9,18.9,0,0,0,2.59,6.82C369,393.76,368.81,393,368.54,392.19Z" transform="translate(-344 -292.8)"/><path class="cls-2" d="M378,391.75l-.27-.57a22.19,22.19,0,0,0-6.51,2.12l.26.62Z" transform="translate(-344 -292.8)"/><path class="cls-2" d="M379.41,391.39c-.74-2.28-1.46-4.52-2.19-6.76l-.65.13c.78,2.31,1.55,4.55,2.32,6.8Z" transform="translate(-344 -292.8)"/><path class="cls-2" d="M376.36,390.94a7.89,7.89,0,0,0,1.21-.45c-.13-.35-.23-.6-.34-.86-2.18.61-4.28,1.19-6.37,2,.09.39.16.7.26,1.11A20.74,20.74,0,0,1,376.36,390.94Z" transform="translate(-344 -292.8)"/><path class="cls-2" d="M382.8,390.44c-.71-2.23-1.4-4.39-2.09-6.59a1.11,1.11,0,0,0-.23,0c-.62.13-.65.18-.5.8.3,1.21.57,2.43.91,3.63a8.45,8.45,0,0,0,.9,2.39Z" transform="translate(-344 -292.8)"/><path class="cls-2" d="M369.18,386.71c.15.34.27.61.39.91l6.46-1.68c-.16-.4-.28-.68-.41-1Z" transform="translate(-344 -292.8)"/><path class="cls-2" d="M376.55,387.37c-.13-.28-.23-.48-.31-.67a32.35,32.35,0,0,0-6.42,1.64c.09.28.17.56.3.94Z" transform="translate(-344 -292.8)"/><path class="cls-2" d="M391,381.76a34.58,34.58,0,0,0-4.21.72h0s0,0,0,0c.15.39.27.71.42,1.07l2.09-.45a9.54,9.54,0,0,0,2.05-.49C391.21,382.33,391.11,382.05,391,381.76Z" transform="translate(-344 -292.8)"/><path class="cls-2" d="M381,390.91c-.41-1.46-.78-2.79-1.17-4.12a12.82,12.82,0,0,0-.72-2.59l-1,.24c.71,2.25,1.4,4.43,2.13,6.72C380.53,391,380.88,391.1,381,390.91Z" transform="translate(-344 -292.8)"/><path class="cls-3" d="M563.38,303.3,561.9,313l-11.71,77.15-2.89,19a64.42,64.42,0,0,0-6.3-13.52L543.37,380l10.37-68.33,1.47-9.63a4.14,4.14,0,0,1,4.08-3.51,3.24,3.24,0,0,1,.62.05A4.15,4.15,0,0,1,563.38,303.3Z" transform="translate(-344 -292.8)"/><path class="cls-4" d="M379.12,444.56l-.51.3c-.15-.43-.28-.84-.39-1.16l-1.28-.68-.1.07c.17.35.33.69.52,1.11-.64.25-1-.15-1.4-.46a1.93,1.93,0,0,1-.55-2.3c.33-.13.57.07.83.23a.88.88,0,0,0,.75.17,1.39,1.39,0,0,1,1.21.6A5.75,5.75,0,0,1,379.12,444.56Z" transform="translate(-344 -292.8)"/><path class="cls-4" d="M416,432.44a3.35,3.35,0,0,1-1.56,1.21,6.13,6.13,0,0,1-.14,3,2.35,2.35,0,0,1,.4.13.46.46,0,0,1,.26.59c0,.13-.26.21-.42.27a5.69,5.69,0,0,1-4.64-.61,8.22,8.22,0,0,0-3.43-1c-.39,0-.39,0-.45-.48l3.43-1.23.07,0c1.32-.63,2.64-1.25,4-1.9-.1-.57-.18-1.13-.29-1.68-.16-.79-.53-1-1.34-.82a10.82,10.82,0,0,0-3.09,1.36,27.59,27.59,0,0,1-4.23,2,11.64,11.64,0,0,0-1.14.51l-.66-.43c.47-.22.9-.4,1.31-.61a12.72,12.72,0,0,1,1.23-.72,30.16,30.16,0,0,0,3.79-2.06,26.41,26.41,0,0,1,2.77-1.22,2.49,2.49,0,0,1,.65-.22,1.21,1.21,0,0,1,1.43.89,19.33,19.33,0,0,1,.57,2.11,5.28,5.28,0,0,1,0,.58.44.44,0,0,0,.6.1,1.69,1.69,0,0,1,.74-.15C416.1,432,416.16,432.27,416,432.44Z" transform="translate(-344 -292.8)"/><path class="cls-4" d="M416.49,427.15c0,.37-.18.59-.45.59a.82.82,0,0,1-.65-.55c0-.23,0-.5-.12-.68a3.62,3.62,0,0,0-2.81-2,2.64,2.64,0,0,0-1.59.51c-.77.51-1.62.89-2.35,1.44-2.29,1.73-4.89,3-7.26,4.55a13.83,13.83,0,0,1-1.53.89,1.1,1.1,0,0,1-1.38-.28,23,23,0,0,0,4.25-2.56,27.35,27.35,0,0,1,2.1-1.8c1.38-1,2.82-1.91,4.23-2.86a1.87,1.87,0,0,1,.31-.17,12.55,12.55,0,0,0,2.4-1.28,2.81,2.81,0,0,1,3.3.57,5.47,5.47,0,0,1,1.52,3.06A3.44,3.44,0,0,1,416.49,427.15Z" transform="translate(-344 -292.8)"/><path class="cls-4" d="M377.38,418.62c0-.65-.1-.77-.77-.88a10.78,10.78,0,0,0-1.7-.1c-1.68,0-3.36,0-5,.05-2.79,0-5.57.14-8.36.14-.52,0-1,0-1.57,0l-.19,1.18,4.38,0c3.09,0,6.19.09,9.29-.14.37,0,.75,0,1.13,0s.55.17.58.6c-1,0-1.94-.1-2.9-.1-2.8,0-5.59.07-8.38.1l-4.17,0-.13.8h5.13V422c-1.78.43-3.58,0-5.42.15v0l-.58,3.72-.06.38-.12.77c.75,0,1.51.09,2.26.16,2.91.26,5.82.16,8.72.18,1.82,0,3.63.18,5.45.27a.9.9,0,0,1,.26.11c0,.15,0,.27-.06.38a2.92,2.92,0,0,1-.15.38c-5.47-.36-10.94-1-16.52-1.23l-.29,1.87c1.74.12,3.47.23,5.21.32,1,.05,2,0,3,.07s2.08.16,3.11.21c1.46.08,2.93.13,4.38.2.52,0,1,.07,1.55.13.66.08,1.28.07,1.67-.53.11-2,.26-4.06.32-6.09C377.44,421.84,377.41,420.23,377.38,418.62Zm-12.46,6.6-5.35.12v-.74h5.29C364.88,424.79,364.89,425,364.92,425.22Zm-5.55-2.44c1.77-.18,3.51.2,5.32,0,0,.48.08.82.11,1.2a5.65,5.65,0,0,1-2,.21c-.85,0-1.7-.09-2.55-.1s-.82-.12-.9-.86C359.36,423.08,359.37,423,359.37,422.78Zm.22,3.58,0-.19c.1-.08.18-.21.29-.24a2.27,2.27,0,0,1,.69-.12h3.93a2.93,2.93,0,0,1,.57.09c0,.26.05.48.08.8C363.23,426.59,361.41,426.48,359.59,426.36Zm7.11.27h-.78c0-2.16-.54-4.24-.28-6.38.35-.14.42.14.48.39.11.42.21.83.28,1.24A21.83,21.83,0,0,1,366.7,426.63Zm.93,0a32.57,32.57,0,0,0-.76-6.37h1.21c.24,2.12.48,4.22.73,6.37Zm1.74-.64c-.22-1.56-.4-3.14-.56-4.7a5.14,5.14,0,0,1,.1-1l.77,0c.21,2.16.41,4.29.6,6.42C369.59,426.71,369.47,426.66,369.37,426Zm1.68.74a27.85,27.85,0,0,1-.7-6.54l.71,0c.38,2.22.27,4.44,1.07,6.58Zm3.5-.35a17.13,17.13,0,0,1-.25-5.15,5.19,5.19,0,0,0,0-.69.6.6,0,0,0-.58.68c0,1-.06,2,0,3,0,.82.2,1.63.3,2.45a.52.52,0,0,1,0,.18s-.05.05-.07.05c-1.26,0-1,.26-1.46-1a9.23,9.23,0,0,1-.37-1.81c-.15-1.12-.25-2.25-.36-3.38,0-.13,0-.27,0-.5l3.42.15c.08,2.23.16,4.39.24,6.54C374.69,427,374.66,427,374.55,426.36Zm1.41-7.47c0,.16,0,.32.05.48a.35.35,0,0,0-.11,0l-.14-.47Zm-.39,9.66c.19-.45.36-.83.54-1.25-.38-.42-.16-1-.21-1.55,0-.26,0-.53,0-.78-.06-1.3-.13-2.59-.17-3.89a1,1,0,0,1,.35-1c.3,2.93.12,5.74.37,8.58Zm174.62-38.38A68.37,68.37,0,0,0,543.37,380c-12.3-15.23-31.08-25-53.62-26.08l-39.21-1.82-58.06-2.68-1.48-.07a21,21,0,0,0-9.23,1.7,25.31,25.31,0,0,0-2.45,1.21c-.55.31-1.09.65-1.62,1l3.43-.06a36.41,36.41,0,0,1,5.8.4c.62.09,1.24.24,1.87.34a.84.84,0,0,1,.7.61c.61,1.43,1.23,2.86,1.83,4.3,1,2.45,1.93,4.92,2.93,7.37.68,1.69,1.39,3.36,2.17,5,.37.79.62,1.63.95,2.45a6.09,6.09,0,0,0,.42.8.5.5,0,0,1-.25.83,5.37,5.37,0,0,0-3,2.88,1.18,1.18,0,0,1-1.1.79l-2.18.28c-1.37.19-2.75.39-4.12.6-1.79.29-3.59.61-5.37,1-2.33.49-4.67,1-7,1.66-1.61.46-3.23.87-4.84,1.34l-5,1.51-.32,2h0l-.15,1a.59.59,0,0,1,.14-.06,34.11,34.11,0,0,0,2.55,7c-.32.14-.58.27-.92.41a48.67,48.67,0,0,1-2.09-5.28l-.19,1.19,1.6,4.35-.71.32a25,25,0,0,1-1.19-2.71l-.18,1.1.69,1.81c-.39.29-.51.05-.62-.2s-.15-.38-.23-.56l-.34,2.2,1.74-.68c1.86-.73,3.72-1.49,5.62-2.15q3.51-1.23,7.08-2.3t7-1.88l1.15-.28c2-.48,4.07-.9,6.11-1.33a17.2,17.2,0,0,1,2.38-.3c-2.54.71-5.06,1.45-7.6,2.14l-1,.26c-1.66.41-3.33.78-5,1.24-1.43.39-2.83.91-4.23,1.38-1.62.54-3.24,1.06-4.83,1.66-2.88,1.09-5.74,2.25-8.6,3.4l-.24,1.53.15-.06q2.39-1,4.82-1.85c1.69-.61,3.41-1.11,5.1-1.71,1.28-.46,2.53-1,3.81-1.49,2.18-.79,4.37-1.54,6.55-2.28.76-.26,1.52-.49,2.28-.71l1.25-.37c.71-.2,1.43-.35,2.14-.48,2.4-.43,4.8-.86,7.21-1.24a20.34,20.34,0,0,1,2.82-.17,15.9,15.9,0,0,1,3.3.3,1.25,1.25,0,0,1,.86.54,5,5,0,0,1,.53.92c1,2.52,2.05,5,3.05,7.55a5,5,0,0,1,.59,2.24l-.79.38a34.85,34.85,0,0,1-4.41,1.53,62.58,62.58,0,0,0-6.17,2.28c-1.22.58-2.46,1.08-3.65,1.7-1.37.69-2.69,1.47-4,2.24-.86.5-1.65,1.11-2.5,1.6a4.82,4.82,0,0,0-1.13.9,10.29,10.29,0,0,0-1.34,1.87,1.78,1.78,0,0,0-.13.9,19.67,19.67,0,0,0,1,4.91c.47,1.68,1,3.35,1.38,5.06a3.61,3.61,0,0,1-1.48,3.85,15.79,15.79,0,0,1-5.58,2.51c-1.57.45-3.17.76-4.75,1.16a13.08,13.08,0,0,0-1.95.64,20.83,20.83,0,0,0-4,1.8c-.86.62-1.7,1.27-2.58,1.86a6.94,6.94,0,0,0-2.21,2.83,22.65,22.65,0,0,0-1.31,3.28c-.53,1.71-1,3.46-1.39,5.2-.17.7-.24,1.43-.36,2.23a3.19,3.19,0,0,1-.49-.25q-1.89-1.47-3.7-3l-.19-.15-.26,1.65-7.61,48.72-1,6.46a1.93,1.93,0,0,1,.88-.1l.26,0a28.84,28.84,0,0,1,9.12,2.71,17.26,17.26,0,0,1,4.15,3c.6.57,1.16,1.18,1.77,1.75A21.73,21.73,0,0,1,365.9,516a47.07,47.07,0,0,1,2.65,5.32c.86,1.84,1.56,3.75,2.24,5.66.39,1.09.65,2.22.94,3.34a11.83,11.83,0,0,0,2.81,5.56c.15.15.27.32.45.53a6.2,6.2,0,0,1-2.46,1.2,38.36,38.36,0,0,1-5.44.91,53,53,0,0,1-10.83-.13c-2.14-.22-4.27-.51-6.4-.83-1-.14-2-.32-2.94-.49l-.62-.11a14.84,14.84,0,0,0,2.07,2.27,16.07,16.07,0,0,0,7,3.65l.35.08a18.59,18.59,0,0,0,3,.4,4.78,4.78,0,0,0,.54,0h64c-.13-.19-.25-.39-.36-.59a35.34,35.34,0,0,1-4.47-24.17,46.28,46.28,0,0,1,11.36-23.45c8.77-9.85,21.43-16.25,34.56-16.25,21.89,0,36.91,17.81,33.49,39.7a46.46,46.46,0,0,1-12.57,24.76h37.15c10.91,0,21.08-9,22.53-19.89l13.12-83.93C561,421.19,557.87,404.15,550.19,390.17Zm-154.61-6.5.59.69a5.29,5.29,0,0,0,.81.88c.82.58.89,1.44,1.06,2.36l-1.24.2c-.45-1.38-.88-2.73-1.32-4.08Zm-28.48,2.65c2.71-.81,5.41-1.66,8.15-2.39,2.92-.77,5.83-1.59,8.82-2.1,1-.17,1.93-.35,2.9-.54s2.19-.43,3.3-.62c.81-.14,1.64-.14,2.46-.21.45,0,.89-.07,1.34-.07.12,0,.24.11.36.17l-.06.19c-1.54.46-3.16.28-4.73.58-.91.17-1.83.32-2.75.48-.64.1-1.28.21-1.93.34-1.57.3-3.14.66-4.71,1s-3.14.69-4.7,1.06-3.08.75-4.6,1.17-3.05.93-4.62,1.29A6,6,0,0,1,367.1,386.32Zm24.64-2.65-.28.05-3.61.86c-.19.05-.2,0-.39-.3A9.68,9.68,0,0,1,391.74,383.67Zm-4.53-.07c-.15-.36-.27-.68-.42-1.07,0,0,0,0,0,0h0a34.58,34.58,0,0,1,4.21-.72c.11.29.21.57.35.9a9.54,9.54,0,0,1-2.05.49Zm-11,3.1c.08.19.18.39.31.67l-6.43,1.91c-.13-.38-.21-.66-.3-.94A32.35,32.35,0,0,1,376.24,386.7Zm-6.67.92c-.12-.3-.24-.57-.39-.91l6.44-1.79c.13.34.25.62.41,1Zm-3.83-.67a1.1,1.1,0,0,1-.93.36A1.13,1.13,0,0,1,365.74,387Zm2.12,8.17c-1.33-2.17-1.83-4.59-2.6-7l.62-.22c.84,2.33,1.67,4.62,2.51,7Zm-1.21-7.4a10.81,10.81,0,0,1,1,2.16c.34.75.63,1.53.9,2.31s.47,1.57.7,2.35A18.9,18.9,0,0,1,366.65,387.72Zm3.59,6.54c-.88-2.34-1.74-4.65-2.63-7l.67-.24a43.42,43.42,0,0,1,2.31,7.14Zm.1-4.3c2.05-.85,4.21-1.29,6.38-1.95.12.38.2.65.31,1l-6.33,1.93C370.6,390.64,370.49,390.34,370.34,390Zm.52,1.63c2.09-.77,4.19-1.35,6.37-2,.11.26.21.51.34.86a7.89,7.89,0,0,1-1.21.45,20.74,20.74,0,0,0-5.24,1.76C371,392.29,371,392,370.86,391.59Zm.66,2.33-.26-.62a22.19,22.19,0,0,1,6.51-2.12l.27.57Zm7.37-2.36c-.77-2.25-1.54-4.49-2.32-6.8l.65-.13c.73,2.24,1.45,4.48,2.19,6.76Zm1.32-.4c-.73-2.29-1.42-4.47-2.13-6.72l1-.24a12.82,12.82,0,0,1,.72,2.59c.39,1.33.76,2.66,1.17,4.12C380.88,391.1,380.53,391,380.21,391.16Zm1.58-.47a8.45,8.45,0,0,1-.9-2.39c-.34-1.2-.61-2.42-.91-3.63-.15-.62-.12-.67.5-.8a1.11,1.11,0,0,1,.23,0c.69,2.2,1.38,4.36,2.09,6.59Zm1.75-.41a45.94,45.94,0,0,1-2.16-6.64c.36-.08.65-.15,1-.21.65,2.21,1.3,4.42,2,6.66Zm2.19-.48h-.05c-.17,0-.36.06-.6.1a61.13,61.13,0,0,1-2.09-6.64l1-.2a29.36,29.36,0,0,1,1.89,5.45c.1.39.2.78.28,1.13C386,389.7,385.89,389.76,385.73,389.8Zm2.14-.47-.69.16c-.32-1-.64-2-1-3l-1.15-3.63.77-.17c.25.56.47,1.14.68,1.72.58,1.61,1.05,3.23,1.49,4.84C387.94,389.28,387.91,389.32,387.87,389.33Zm-.06-4,4.1-.93c.12.39.21.7.35,1.13-1.42.28-2.73.53-4.09.81C388,386,387.93,385.67,387.81,385.34Zm.54,1.7,4.07-.92c.08.24.14.42.22.68l-4.09.91Zm.54,2q-.06-.31-.12-.6a13.27,13.27,0,0,1,4.11-.93l.26.75Zm5-1.21c-.31-.93-.6-1.88-.88-2.82-.16-.52-.3-1-.44-1.53.09.1.23.18.27.3.33.83.63,1.67,1,2.5.21.57.45,1.13.67,1.69C394.05,388.24,394,388.24,393.91,387.86Zm1.44.18c-.77-2.14-1.54-4.26-2.33-6.44l1.45-.21c.45,1.11.46,2.23.78,3.27s.64,2.11,1,3.22Zm5.35,1c-.49,0-1,0-1.45,0a5,5,0,0,0-2,.21,9.3,9.3,0,0,1-1.14.2c-.05-.24-.09-.46-.14-.72a30.63,30.63,0,0,1,4.06-.5c.49,0,.5.42.77.61C400.75,388.89,400.73,389,400.7,389Zm-2.29-2.43c.4.31.67.51.94.73l0,.13-.68.07C398.57,387.26,398.51,387,398.41,386.6Zm7.88,8.34c-.23-.66-.37-1.36-.55-2.05-.05-.18-.11-.35-.17-.52-.22-.68-.45-1.34-.68-2-.17-.51-.37-1-1-1-.12,0-.24-.15-.33-.25a10.08,10.08,0,0,0-2.8-1.89,5.93,5.93,0,0,1-1.43-1.14l-1-1a9.35,9.35,0,0,1-2.53-3.81,4,4,0,0,1,.32-3.11,2.34,2.34,0,0,1,2.88-1.42,1.68,1.68,0,0,1,.46.16c.13,0,.24.17.37.2a2.32,2.32,0,0,1,1.64,1.75,27,27,0,0,1,.89,3,2.55,2.55,0,0,1-.29-.38,7,7,0,0,0-1.61-2,2.34,2.34,0,0,0-2-.64,3.48,3.48,0,0,0-1.26.74.69.69,0,0,0-.14.45.79.79,0,0,0,.08.42,10.1,10.1,0,0,0,3.26,4.62,7,7,0,0,0,2,1.33l.52.17a8.1,8.1,0,0,0,.8.24c.19,0,.38,0,.69.07.22.6.47,1.24.69,1.89.4,1.13.8,2.27,1.18,3.41s.58,2,.94,3c.32.81.76,1.58,1.13,2.37.6,1.33,1.2,2.67,1.79,4,0,.06,0,.14,0,.3a3.2,3.2,0,0,1-.31-.28,13.55,13.55,0,0,1-2.1-3.26c-.2-.46-.35-.94-.54-1.39C406.87,396.27,406.52,395.62,406.29,394.94Zm-5.47-11.51c-.69-.76-1.39-1.51-2.06-2.29a1.45,1.45,0,0,1-.29-.7c0-.11.1-.3.21-.38s.27,0,.34.13A8.81,8.81,0,0,1,400.82,383.43Zm8.86,19.79a2.36,2.36,0,0,1,.88,1.92c-1.28-.75-2.74-.62-4.08-1.09ZM386.34,413.3a17.31,17.31,0,0,1,3.08-2.24,51.1,51.1,0,0,1,6.35-3.32A34.11,34.11,0,0,1,401,405.8a19.57,19.57,0,0,1,3.58-.84,10.21,10.21,0,0,1,6,1.11,2.76,2.76,0,0,1,1.12,1.31c.47,1,1.05,1.9,1.55,2.86s.95,1.9,1.4,2.86a1,1,0,0,1-.44,1.23,8.06,8.06,0,0,1-2,.77,24.62,24.62,0,0,0-6.76,2.48c-1.36.71-2.78,1.32-4.15,2-1.53.79-3.05,1.62-4.53,2.49-2,1.17-3.92,2.38-5.87,3.58l-.54.34c-.49.29-.95.62-1.48,1a1.4,1.4,0,0,1-.15-.34,10.2,10.2,0,0,0-1.31-3,18.07,18.07,0,0,1-1.37-3.49,16,16,0,0,1-.47-3.5c0-.47-.05-.95-.08-1.42A2.35,2.35,0,0,1,386.34,413.3Zm-33.54,83c-.26.56-.47,1.08-.71,1.58-.16.32-.47.21-.76.23A4,4,0,0,1,352.8,496.27Zm.05,5.23-.82.44a1.27,1.27,0,0,1-.12-.1l.67-1.22.17.07C352.78,500.94,352.81,501.19,352.85,501.5Zm-5.33,1.17h-.08c0-.06.07-.12.11-.17.49-.79,1.34-1,2.1-1.47.08.61.15,1.11.21,1.6A5.34,5.34,0,0,1,347.52,502.67Zm3.15-3.49c.24,0,.52-.18.83.06-.41.23-.76.42-1.11.63C350.2,499.28,350.21,499.23,350.67,499.18Zm-.06,3.26c-.09-.6-.17-1.17-.26-1.78l1.8-1A6.39,6.39,0,0,1,350.61,502.44Zm.84.5,1.57-.73c.12.52.23.94.35,1.44C352.62,503.66,352.12,503.15,351.45,502.94Zm1.81-3.36a.87.87,0,0,1,.34-.64,2.1,2.1,0,0,1,1.46-.44c.51,0,1,.1,1.57.15a1.1,1.1,0,0,1-.47,1.43c-.81.37-1.64.71-2.56,1.1C353.48,500.61,353.32,500.1,353.26,499.58Zm-.17-1.68a6.1,6.1,0,0,1,1.06-1.95c.2-.22.6-.27,1.05-.46-.33.73-.59,1.29-.84,1.87S353.65,497.87,353.09,497.9Zm34.66,25.48a1.55,1.55,0,0,1-.15.22l-1.46,1.11c-.27-.66-.51-1.26-.81-2Zm-1.31-2c.21-2.58.43-5.18.65-7.84.2,0,.35.08.49.13s.43.2.65.28c.94.37.95.37,1,1.39q0,2.88,0,5.76a8.23,8.23,0,0,1-.12,1A5.79,5.79,0,0,1,386.44,521.35Zm-14.78-4.86a14.46,14.46,0,0,1,2.85-.88l-2.46,3.95A8.37,8.37,0,0,1,371.66,516.49Zm-.07-.82c0-.47-.1-.9-.13-1.34-.06-.87-.08-1.74-.14-2.61a1,1,0,0,1,.36-1l3.14,3.87Zm3.51.52a4.35,4.35,0,0,1,.14.54c.07.8.11,1.61.2,2.4a.68.68,0,0,1-.43.78,11.53,11.53,0,0,1-2.58,1.06C372.92,519.11,374.1,517.76,375.1,516.19Zm.45,4.29c.2,1.41.39,2.77.59,4.19l-3.05-3Zm.31-4.52.12-.08c.39.41.76.83,1.16,1.23s.82.76,1.28,1.2l-2.26,1C376.05,518.15,376,517.05,375.86,516Zm3.15,3.13c-.72,1.64-1.41,3.23-2.1,4.82l-.11,0c-.17-1.23-.34-2.45-.5-3.63A6.33,6.33,0,0,1,379,519.09Zm.71.66c.16.78.35,1.55.47,2.34,0,.14-.17.37-.32.47-.63.42-1.28.81-2.06,1.31A23.15,23.15,0,0,1,379.72,519.75ZM377.45,525c.95-.66,1.91-1.27,3-2,.3,1.9.58,3.66.85,5.42l-.15.13c-1.23-.91-2.48-1.79-3.69-2.72C377,525.58,377.06,525.29,377.45,525Zm3.19-5,1.65,1.1-1.3.75A3.92,3.92,0,0,1,380.64,520Zm.5,3c0-.15,0-.38.09-.44a20.51,20.51,0,0,1,2-1.13,39.39,39.39,0,0,1-1.25,6h-.15C381.62,526,381.37,524.52,381.14,523Zm2.86-1c.24.22.49.36.56.56.35.87.64,1.76,1,2.78-.9.75-1.81,1.51-2.82,2.37C383.17,525.79,383.57,524,384,522Zm1.5-.89-2.46-1c.19-2.7.86-5.28,1.28-8l2.08,1.08C386.05,515.79,386.08,518.46,385.5,521.15Zm-2-8.87c-.13.79-.3,1.58-.43,2.38-.25,1.4-.48,2.83-.72,4.25,0,.19-.09.36-.17.69-.9-.72-1.72-1.38-2.55-2l1.62-7.69c.73.54,1.42,1,2.11,1.55C383.66,511.65,383.56,512,383.51,512.28Zm-3.21-1.58c-.48,1.82-.8,3.69-1.2,5.54a5.66,5.66,0,0,1-.21.6c-.73-.8-1.39-1.5-2-2.22a.67.67,0,0,1-.17-.7c.37-1.24.68-2.5,1.05-3.75.26-.88.58-1.74.91-2.72.33.31.57.58.86.8A2.09,2.09,0,0,1,380.3,510.7Zm-2.43-3.47c-.42,1.18-.81,2.36-1.17,3.56-.22.72-.38,1.46-.57,2.19,0,.16-.1.3-.18.54-.7-.8-1.35-1.55-2-2.3-.22-.24-.09-.48,0-.72.68-1.5,1.37-3,2-4.5.12-.27.24-.55.43-1,.47.51.85.93,1.24,1.34A.79.79,0,0,1,377.87,507.23Zm-2.41-1.86c-.49,1.1-1,2.19-1.5,3.29l-.75,1.66c-.58-.63-1.1-1.21-1.61-1.75a21.49,21.49,0,0,1,3-5.6,4.9,4.9,0,0,0,.54.65A1.33,1.33,0,0,1,375.46,505.37Zm-4.62,2.26c-.66-.74-1.3-1.48-2-2.25a57.6,57.6,0,0,1,2.95-5.62,11.26,11.26,0,0,1,2.1,2.42Zm-2.59-3.14-1.73-2.19c.84-1.79,1.83-3.53,2.9-5.41l1.92,2.12C370,500.65,369.3,502.62,368.25,504.49Zm-2.44-3-1.71-1.31a23.84,23.84,0,0,1,3.06-5.41l1.54,1.49Zm.27,3.77-2.34.74-.09-.11,1.41-2.69A1.85,1.85,0,0,1,366.08,505.25Zm-3-5.62-1.77-.76c.89-1.76,1.78-3.47,2.63-5.14a3,3,0,0,1,2.21.53Zm-.17,1.66-.49.27C362.49,501.31,362.55,501.07,363,501.29ZM361,502c-.68.2-1.34.43-2.19.7a21.42,21.42,0,0,1,1.72-2.86.66.66,0,0,1,.66.64,5.42,5.42,0,0,0,.17.91C361.51,501.74,361.38,501.9,361,502Zm-.63-3.46-1.2-.54a10.21,10.21,0,0,1,1-2.72,3.14,3.14,0,0,0,.18-.31c.37-1.24,1.38-1.2,2.45-1.23C362,495.36,361.23,496.94,360.41,498.54Zm-2.25-.8-1.13-.11c.3-.64.55-1.19.82-1.73.12-.26.27-.5.41-.75.4-.7.43-.72,1.3-.81Zm.36,1.3-.82.39C357.89,498.82,357.89,498.82,358.52,499ZM357,495.51c-.27.58-.55,1.15-.82,1.72-.16.35-.37.55-.79.38a6.63,6.63,0,0,1,1.05-2.29c.11-.18.43-.24.8-.42C357.13,495.2,357.07,495.36,357,495.51Zm-3.29,6.56a5.55,5.55,0,0,1,1.89-.91c-.52.88-1,1.61-1.45,2.46Zm3.27-1.58c.17.95.32,1.8.49,2.72a7.53,7.53,0,0,1-2.64,1A11.29,11.29,0,0,1,357,500.49Zm-.61,4.19c.18-.16.33-.28.52-.43C356.82,504.77,356.82,504.77,356.37,504.68Zm1.38.05c0,.25,0,.47.06.71C357.32,505.18,357.32,505.18,357.75,504.73Zm.19-2.74-.25-1.82,2.14-.74a12.42,12.42,0,0,1-1.72,3A3.25,3.25,0,0,1,357.94,502Zm.46,1.67c.76-.28,1.51-.54,2.26-.8a1.47,1.47,0,0,1,.1.13,23.73,23.73,0,0,1-1.75,3.25A4.09,4.09,0,0,1,358.4,503.66Zm1.18,3.18c.67-1.35,1.31-2.59,1.94-3.83l.14.05.52,3.39c-.66.19-1.28.4-1.91.55A1.87,1.87,0,0,1,359.58,506.84Zm1.22.87,1.47-.47-.67,1.13C361.32,508.15,361.1,508,360.8,507.71Zm1.71.64c.07.34.11.6.17.9C362.09,508.93,362.09,508.93,362.51,508.35Zm.28-2.68c-.17-1.06-.33-2.1-.52-3.2l1.44-.52.81.65c-.55,1.06-1.06,2.09-1.57,3.12Zm1.27,5.48a4.09,4.09,0,0,1-.31-.58c-.22-1-.43-1.93-.64-2.9-.13-.6-.1-.65.51-.85.83-.28,1.66-.52,2.61-.81a3.14,3.14,0,0,1-.08.83c-.62,1.41-1.27,2.79-1.91,4.18C364.22,511.06,364.17,511.08,364.06,511.15Zm2.21-2.9.14.05c.06.75.1,1.5.15,2.24a.53.53,0,0,1-.41.64c-.4.11-.79.26-1.37.45C365.32,510.4,365.8,509.33,366.27,508.25Zm.35,6c-.59-.68-1.09-1.25-1.68-1.91l1.61-.52A15,15,0,0,1,366.62,514.26Zm.36-7.58a1.26,1.26,0,0,1,.2-.6c.16-.32.33-.36.6-.11s.68.73,1,1.1.65.81,1,1.22c.5.59.5.58.6,1.52l-3.05,1C367.2,509.39,367.07,508,367,506.68Zm.57,8.35c-.05-1.06-.14-2.12-.21-3.18a1.45,1.45,0,0,1,0-.33l3.17-1a3.61,3.61,0,0,1-.17.77c-.28.6-.56,1.19-.89,1.77-.51.92-1.05,1.84-1.6,2.77C367.52,515.66,367.56,515.37,367.55,515Zm.89,1.57a21.53,21.53,0,0,1,2.22-3.89c.07,1,.14,2.08.21,3.17A10.54,10.54,0,0,1,368.44,516.6Zm2.82,3.1c-.85-.72-1.39-1.6-2.25-2.41l1.78-.54C371,517.73,371.1,518.65,371.26,519.7Zm10.29,14.49c-1.82.58-3.65,1.11-5.47,1.66a10.38,10.38,0,0,1-3.08-4.94c-.31-1.19-.6-2.38-1-3.54-.44-1.35-.93-2.69-1.45-4-.62-1.59-1.3-3.14-2-4.73.78.8,1.52,1.6,2.29,2.38,1.66,1.67,3.31,3.36,5,5,1.08,1.06,2.19,2.09,3.35,3.06a17.32,17.32,0,0,0,5.35,3.12l.32.14.07.11A25,25,0,0,1,381.55,534.19Zm.79-5.11c1.15-1,2.25-1.93,3.34-2.87a1.58,1.58,0,0,1,.28-.11c.68,1.69,1.34,3.38,2.07,5.18A15.27,15.27,0,0,1,382.34,529.08Zm6,.77-1.9-4.35a10.62,10.62,0,0,1,2.58-1.89,22.44,22.44,0,0,1-.25,3.19C388.69,527.81,388.57,528.81,388.37,529.85Zm.6,1a24.36,24.36,0,0,1,2-3.94c.53,1,1,1.82,1.53,2.74Zm1-8.54v-8a.32.32,0,0,1,.48.21c.08.25.1.51.16.76.4,1.73.82,3.45,1.2,5.18.13.63.16,1.29.25,2Zm1.83,1.66c-.3.47-.54.88-.87,1.43l-.6-1.43Zm-1.23,2.2-1,1.79-.1,0c.12-1,.24-2.1.37-3.29Zm2.09,2.27c-.41-.77-.8-1.45-1.16-2.15a.45.45,0,0,1,0-.39c.28-.48.58-1,.95-1.56A8.88,8.88,0,0,1,392.68,528.42Zm10.48-56.13a8.11,8.11,0,0,0-4.28,3c-.92,1.21-1.84,2.41-2.74,3.61a43.75,43.75,0,0,0-3.61,5.92c-.83,1.57-1.69,3.13-2.42,4.74a31.37,31.37,0,0,0-1.72,4.5,15.42,15.42,0,0,0-.42,6.24A44.86,44.86,0,0,0,389,506c.28,1.07.51,2.16.69,3.26s.26,2.19.38,3.31a7.72,7.72,0,0,1-2.54-.54,17.48,17.48,0,0,1-5.39-3.33c-.6-.5-1.25-.94-1.82-1.47-1.52-1.42-3-2.84-4.49-4.32-.74-.76-1.37-1.63-2-2.45a39.75,39.75,0,0,0-5.56-6,6.71,6.71,0,0,0-5.79-1.64,26.11,26.11,0,0,1-3,.51c-1.88.17-3.66.83-5.65,1,.68-.93,1.32-1.78,1.91-2.65.91-1.35,1.8-2.73,2.67-4.11,1.1-1.73,2.22-3.46,3.24-5.24,1.2-2.09,2.37-4.2,3.43-6.37.75-1.52,1.29-3.13,1.93-4.71a10.24,10.24,0,0,0,1-3.74,16,16,0,0,0-.19-2.68,31.08,31.08,0,0,0-1.1-4.84,9.1,9.1,0,0,0-.41-1.05c-.42-.91-.83-1.85-1.33-2.73a12,12,0,0,0-2.81-3.45.72.72,0,0,1-.24-.47,27.4,27.4,0,0,1,.33-7,10.8,10.8,0,0,1,3.38-6.08c.44-.36.81-.78,1.26-1.16a7.26,7.26,0,0,0,.1,3.62,10.61,10.61,0,0,0,3.05,5.36c1,.92,2.16,1.75,3.21,2.67a31,31,0,0,0,5.06,3.38,11.24,11.24,0,0,1,1.35.89,1.37,1.37,0,0,1,.41.65,31.38,31.38,0,0,0,2.58,5.43,15.41,15.41,0,0,0,1.88,2.64,5.57,5.57,0,0,0,2.45,1.49c1.45.5,2.93.91,4.4,1.36s3.23.92,4.81,1.5c3.12,1.11,6.33,1.91,9.5,2.86l2.85.86a.92.92,0,0,1,.17.08C406.89,471.32,405,471.77,403.16,472.29Zm22.74-24.17c-.3.05-.61.07-.92.11a7.46,7.46,0,0,0-2.4.5,5,5,0,0,1-1.79.27,8.94,8.94,0,0,1-1.27-.1.77.77,0,0,0-.11,1.15h2.32a13.64,13.64,0,0,0,1.93,3.12,5,5,0,0,1,.63,1.27c.13.32-.21.78-.63,1a22.42,22.42,0,0,1-4.44,1.46,2.56,2.56,0,0,1-2.3-.28.64.64,0,0,0-.33-.1c-.29,0-.62-.23-.85.13a1.44,1.44,0,0,0,0,1.25,7.28,7.28,0,0,0,.49.54c.17-.25.28-.43.41-.63.7.1,1,.71,1.26,1.2a5.85,5.85,0,0,0,3.41,2.37.86.86,0,0,0,.28,0l.22,0a6.72,6.72,0,0,0-.11,3.24,13.74,13.74,0,0,1-.24,4.48,1.22,1.22,0,0,1-.6.83,8.93,8.93,0,0,1-2.46.88c-.11,0-.24,0-.34.05a7.23,7.23,0,0,1-4.46-.09c-1.85-.48-3.72-.9-5.58-1.38-.89-.23-1.77-.53-2.65-.79-2.16-.62-4.33-1.21-6.48-1.86-2-.59-3.92-1.25-5.89-1.86s-3.88-1.23-5.83-1.78a6.38,6.38,0,0,1-3.9-3.29c-.43-.79-.88-1.57-1.3-2.36-.22-.42-.39-.86-.58-1.3a.6.6,0,0,1,0-.51,2.35,2.35,0,0,0-.08-.89s0-.07.07-.07a1.5,1.5,0,0,0,1.48-.64,3.08,3.08,0,0,0,1-2.45c0-.2,0-.41-.29-.39s-.25.15-.34.27c-.38.45-.73.91-1.11,1.35a.59.59,0,0,1-.72.17.61.61,0,0,0-.6,0c-.08,0-.32-.05-.43-.14a27.3,27.3,0,0,0-3.14-2.05c-1.89-1.28-4-2.28-5.61-3.95-.73-.74-1.56-1.37-2.23-2.18a8.81,8.81,0,0,1-1.63-3.81c-.07-.32-.09-.65-.15-1-.32-1.69.56-2.81,1.85-3.68a6.83,6.83,0,0,1,1.89-.81,3.72,3.72,0,0,0-.53.67,1,1,0,0,0,0,.67c.1.24.36.3.65.12,0-.06,0-.17-.05-.21-.23-.25-.07-.36.15-.48a4,4,0,0,1,5.5,2.2l-1.39-1c-.32.32-.57.54-.8.79a.77.77,0,0,0-.2.43,4.81,4.81,0,0,0,.26,1.15,1,1,0,0,0,.92.53,1.23,1.23,0,0,1,1.27.71c0,.14.22.23.35.35.3-.2.37-.4.14-.66l-.49-.59c.33-.1.67-.12.84-.29a2.66,2.66,0,0,0,.27-.91,6,6,0,0,0-5.23-4.14,12.9,12.9,0,0,1,2-.56,1.9,1.9,0,0,1,1.64.85c.22.28.23.28.71.38,0-.77-.59-1.06-1.1-1.53.41-.1.75-.2,1.09-.27a37.7,37.7,0,0,0,8.45-2.84,13.51,13.51,0,0,0,2.38-1.49,31.27,31.27,0,0,1,3.3-2.17l.56-.32c1.63-1,3.3-1.85,4.93-2.8,1-.59,2-1.29,3-1.89a46.6,46.6,0,0,1,6-3.18c1-.39,2-.64,3-.95.81-.26,1.61-.54,2.43-.78,1.49-.44,3-.85,4.53-1.28.45,1.39.87,2.67,1.28,3.95.6,1.87,1.21,3.73,1.76,5.62a12.49,12.49,0,0,1,.51,2.56,35.72,35.72,0,0,0,.87,4.38c.23,1,.46,2.08.76,3.09a3.94,3.94,0,0,0,.34.82l.37.72c.71,1.3,1.43,2.61,2.17,3.9.4.72.84,1.41,1.29,2.1.61.91,1.26,1.78,1.83,2.7A1.48,1.48,0,0,1,425.9,448.12ZM539.46,501l-.7,4.28-2.51,15.39-.74,4.52a1,1,0,0,1-1.3.76l-4.72-1.29c-13.18-3.63-22.59-15.88-22.59-28.51a23.7,23.7,0,0,1,.33-4,1,1,0,0,1,1.29-.77l30,8.26A1.29,1.29,0,0,1,539.46,501Zm10.43-57.07-6,38.46a1.61,1.61,0,0,1-1.52,1.32,36.44,36.44,0,0,1-28.58-13.84l-2.34-3a70.26,70.26,0,0,0-47.92-26.27L438.1,438l-15.51-1.58a13,13,0,0,1-1.68-5.29c-.63-9.12-3.69-17.35-7.34-25.65a43.81,43.81,0,0,1-1.89-4.12c-3.05-9.31-7.69-18.35-11.38-27.43q-1.74-4.26-3.5-8.53a12.12,12.12,0,0,1,2-.19l49.86-.15L483.5,365c25.35,0,46,12,57.5,30.69a64.42,64.42,0,0,1,6.3,13.52A73.61,73.61,0,0,1,549.89,443.92Z" transform="translate(-344 -292.8)"/><path class="cls-2" d="M539.46,501l-.7,4.28-2.51,15.39-.74,4.52a1,1,0,0,1-1.3.76l-4.72-1.29c-13.18-3.63-22.59-15.88-22.59-28.51a23.7,23.7,0,0,1,.33-4,1,1,0,0,1,1.29-.77l30,8.26A1.29,1.29,0,0,1,539.46,501Z" transform="translate(-344 -292.8)"/><path class="cls-5" d="M549.89,443.92l-6,38.46a1.59,1.59,0,0,1-.54.93,1.5,1.5,0,0,1-1,.39,36.38,36.38,0,0,1-26-10.92,34.38,34.38,0,0,1-2.59-2.92L511.5,467l-.05-.07-.81-1q-1.41-1.71-2.92-3.32v0c-.44-.47-.88-.92-1.33-1.38q-.28-.3-.6-.6c-1-.95-1.94-1.87-2.95-2.76-.61-.53-1.22-1.06-1.84-1.56a70.54,70.54,0,0,0-12.35-8.15c-.57-.29-1.14-.58-1.72-.86-.82-.39-1.64-.77-2.47-1.13-.56-.25-1.13-.48-1.69-.72l-1.31-.51q-1.32-.51-2.67-1l-1.06-.35c-1.35-.43-2.72-.82-4.1-1.17a69.29,69.29,0,0,0-9.11-1.68l-1-.1L438.1,438l-15.51-1.57a13.09,13.09,0,0,1-1.68-5.3c-.63-9.12-3.69-17.35-7.34-25.65-.61-1.38-1.41-2.67-1.89-4.12-3.05-9.31-7.69-18.34-11.38-27.43q-1.74-4.26-3.5-8.53a11.21,11.21,0,0,1,2-.18l49.86-.16L473.4,365l10.1,0c1.34,0,2.66,0,4,.1l.57,0c.92.05,1.84.12,2.75.21s2.09.22,3.13.36,2.06.31,3.07.49c.6.11,1.2.22,1.79.35,1.54.32,3.06.69,4.56,1.1l1.74.51a66.48,66.48,0,0,1,11.6,4.78l1.46.8.58.33q1.28.74,2.52,1.53c.31.2.63.4.93.61l.56.37c.46.31.9.62,1.34.94,1.1.78,2.16,1.6,3.2,2.45l.49.41A62.42,62.42,0,0,1,541,395.68a63.92,63.92,0,0,1,6.3,13.52A73.48,73.48,0,0,1,549.89,443.92Z" transform="translate(-344 -292.8)"/><ellipse class="cls-4" cx="458.18" cy="518.59" rx="37.4" ry="31.99" transform="translate(-574.31 156.17) rotate(-42.77)"/><rect class="cls-4" x="549.68" y="292.96" width="19.65" height="19.65" rx="8.7" transform="matrix(0.99, 0.15, -0.15, 0.99, -292.23, -373.33)"/><g class="cls-6"><path class="cls-7" d="M522.17,376.19,501,456.26a70.54,70.54,0,0,0-12.35-8.15c-.57-.29-1.14-.58-1.72-.86-.82-.39-1.64-.77-2.47-1.13l20.63-78a66.48,66.48,0,0,1,11.6,4.78l1.46.8.58.33q1.28.74,2.52,1.53C521.55,375.78,521.87,376,522.17,376.19Z" transform="translate(-344 -292.8)"/><path class="cls-7" d="M527.76,380.36l-21.38,80.82q-.28-.3-.6-.6c-1-.95-1.94-1.87-2.95-2.76l21.24-80.32c1.1.78,2.16,1.6,3.2,2.45Z" transform="translate(-344 -292.8)"/><path class="cls-7" d="M503.34,367.63,482.76,445.4l-1.31-.51q-1.32-.51-2.67-1l-1.06-.35c-1.35-.43-2.72-.82-4.1-1.17l20.3-76.72c1,.15,2.06.31,3.07.49.6.11,1.2.22,1.79.35C500.32,366.85,501.84,367.22,503.34,367.63Z" transform="translate(-344 -292.8)"/></g></g></g></svg>