<svg id="Layer_1" data-name="Layer 1" xmlns="http://www.w3.org/2000/svg" viewBox="0 0 631.8 242"><path d="M345.2,447.4l-7.9,49.8h37.1a4,4,0,0,1,3.2,1.4,4.3,4.3,0,0,1,.9,3.5l-2.8,17.7a6,6,0,0,1-2,3.5,5.7,5.7,0,0,1-3.7,1.4H332.9L325,574.4h46.9a4,4,0,0,1,3.3,1.5,3.7,3.7,0,0,1,.9,3.2l-2.8,17.6a5.5,5.5,0,0,1-2,3.5,5.3,5.3,0,0,1-3.7,1.5H298.4a4,4,0,0,1-3.3-1.5,4.1,4.1,0,0,1-.8-3.5l27.2-171.6a6.6,6.6,0,0,1,2-3.5,5.9,5.9,0,0,1,3.8-1.4h69.2a4.2,4.2,0,0,1,3.2,1.4,4.4,4.4,0,0,1,.9,3.5l-2.8,17.7a5.1,5.1,0,0,1-1.9,3.2,5.4,5.4,0,0,1-3.8,1.4Z" transform="translate(-294.2 -407.2)" style="fill:#002c2b"/><path d="M475.9,426.1a31.2,31.2,0,0,1,11.6,15.8A44.9,44.9,0,0,1,489,464l-.5,3.7-.2,1.3-1.8,10.8a5.6,5.6,0,0,1-1.9,3.3,5.9,5.9,0,0,1-3.7,1.4H463.2a4,4,0,0,1-3.2-1.4,4.5,4.5,0,0,1-1-3.3l1.8-10.8.2-1.3c.9-5.9.3-10.8-1.7-14.6s-5.8-5.7-11.2-5.7a16.4,16.4,0,0,0-12.8,5.7c-3.4,3.8-5.5,8.7-6.5,14.6l-13.7,86.5c-1,5.9-.3,10.7,1.8,14.5s5.9,5.7,11,5.7a16.3,16.3,0,0,0,13-5.7,27.9,27.9,0,0,0,6.3-14.5V554l3.2-20.5H437.8a3.9,3.9,0,0,1-3-1.4,4.3,4.3,0,0,1-.9-3.5l2.8-17.7a6.6,6.6,0,0,1,2-3.5,5.6,5.6,0,0,1,3.5-1.4h35.2a4.2,4.2,0,0,1,3.3,1.4,4.4,4.4,0,0,1,.9,3.5L474.7,554l-.2,1.8-.4,2.1a53.8,53.8,0,0,1-8.6,22.1,49.1,49.1,0,0,1-16.6,15.8,42.8,42.8,0,0,1-21.9,5.9h-6.8a33.4,33.4,0,0,1-19.8-5.9A31.6,31.6,0,0,1,388.8,580a44.9,44.9,0,0,1-1.5-22.1L402.2,464a55.2,55.2,0,0,1,8.6-22.1,49.1,49.1,0,0,1,16.6-15.8,42.4,42.4,0,0,1,21.7-5.9h6.7C463.8,420.2,470.5,422.2,475.9,426.1Z" transform="translate(-294.2 -407.2)" style="fill:#002c2b"/><path d="M598.9,445.3l-19,38-6.7,13.1-23.4,46.7h-.2L541,596.7a5.3,5.3,0,0,1-1.9,3.5,5.5,5.5,0,0,1-3.8,1.5H518a4,4,0,0,1-3.3-1.5,4.2,4.2,0,0,1-.9-3.5l8.6-53.6h-.3l-12.3-66.8,11.3-4a73,73,0,0,1,15.1-2.3l6.2,33.4L557,474.1l4.8-9.5,4.3-8.6C578,451.9,589,448.3,598.9,445.3Z" transform="translate(-294.2 -407.2)" style="fill:#002c2b"/><path d="M609,425.1a4.6,4.6,0,0,0-.2-3.5,3.2,3.2,0,0,0-2.9-1.4H588.3a7.2,7.2,0,0,0-4.1,1.4,6.8,6.8,0,0,0-2.7,3.5l-8.5,17c11.2-3.5,22-6.7,32.3-9.7Z" transform="translate(-294.2 -407.2)" style="fill:#002c2b"/><path d="M527.9,425.1a4.9,4.9,0,0,0-1.5-3.5,5.7,5.7,0,0,0-3.7-1.4H505.1q-3.9,0-4.5,3.9l-.2,1,7.2,39.3c6.5-2.4,15.2-5.4,25.9-9.1Z" transform="translate(-294.2 -407.2)" style="fill:#002c2b"/><path d="M834.2,526.2c2.9-2.8,3.4-4.9,1.5-6.2s-3-.6-5.9.8-9.4,7.8-15.3,16.7l-2.5,4.2a127.6,127.6,0,0,0,14.3-8.9C829.3,530.5,831.9,528.3,834.2,526.2Z" transform="translate(-294.2 -407.2)" style="fill:none"/><path d="M716.2,531.5a19.3,19.3,0,0,0,1.1-2.9,4.1,4.1,0,0,0-2.2-4.4,6.7,6.7,0,0,0-5.4-.2c-3.3,1.1-7.8,4.6-13.6,10.5-7.4,7.4-12.2,14.4-14.5,21-1.3,3.4-1.7,5.9-1.2,7.3,1.3,3.5,4.3,3.6,9.1.3s7.5-6.1,12.8-11.8,8.3-9.7,13-15.8a1.6,1.6,0,0,1-.2-1.5A17.2,17.2,0,0,1,716.2,531.5Z" transform="translate(-294.2 -407.2)" style="fill:none"/><path d="M905.6,458.7l-.3.5-.2.3c7-6.6,11.8-12.3,14.3-17-.4.3-2.3,2.4-5.7,6.1A105.4,105.4,0,0,0,905.6,458.7Z" transform="translate(-294.2 -407.2)" style="fill:none"/><path d="M623,458a131.8,131.8,0,0,1,9.9-18,1.4,1.4,0,0,0,.6,1.9q1.1.6,2.1-.6a37.9,37.9,0,0,0,3.2-7.4,646.3,646.3,0,0,1,71.1-14.5c16.3-2.2,33.2-3.7,51-4.5-6.9,5.3-14.7,10.8-23.4,16.8a1.2,1.2,0,0,0-.8,1.4c.4,1,.9,1.3,1.8.8a385.8,385.8,0,0,1,33.7-19.7,2.9,2.9,0,0,0,1.2-3.3c-.3-1.6-1.1-2.5-2.5-2.6a114.4,114.4,0,0,0-18.4-1.1c-6.9.1-12.4.3-16.4.6l-18.6,1.7a549.5,549.5,0,0,0-54.4,8.6q-26.7,5.5-57.8,14.3c-10.3,3-21.1,6.2-32.3,9.7l-15.7,5.1c-8.8,2.9-16.8,5.6-23.8,8.1-10.7,3.7-19.4,6.7-25.9,9.1l-8.4,3.2a.4.4,0,0,1-.3.2l-.4.2h-.3c-2.9,1.6-3.9,4.1-2.9,7.4s3.2,4.4,6.6,3.4l7.9-2.6,11.3-4a73,73,0,0,1,15.1-2.3c8.2-.4,15.2,1,20.8,4.1l4.8-9.5a58.3,58.3,0,0,0-10.2-3.7,4.3,4.3,0,0,0,1.4-.4,3.8,3.8,0,0,1,1.9-.5l11.2-4c11.9-4.1,22.9-7.7,32.8-10.7l5.2-1.6c6.7-2.1,13.3-4.1,19.9-5.9a88,88,0,0,0-5.9,9.6c-3.3,6.1-7.4,14.9-12.3,26.3-5.9,13.5-12.2,28.9-18.7,46.3-.2-3.1-.4-6.3-.8-9.6-.9-10.9-3-19.9-6.4-27.1l-6.7,13.1a42.1,42.1,0,0,1,1.2,4.8,87,87,0,0,1,1.9,16.4c0,4.7-.2,10.8-.7,18.3s-.5,13-.3,16.6q-7.2,19.2-11.1,30c-3.9,10.5-7.6,19.9-11.1,28.1-1.8,4.6-3.6,8.9-5.4,13a51.1,51.1,0,0,0-2.1,5.6c-.9,2.7-1.8,5.1-2.7,7.1a32.4,32.4,0,0,1-2.8,5.3,2.7,2.7,0,0,0-2,3.2,4.3,4.3,0,0,0,2.2,3.5,4.2,4.2,0,0,0,3.5.8,11,11,0,0,0,2.9-1,8.2,8.2,0,0,0,2.6-2.2,27.4,27.4,0,0,0,2.3-3.1,15.8,15.8,0,0,0,2-3.7,35.2,35.2,0,0,0,1.6-3.8l1.4-3.5a17.4,17.4,0,0,0,.9-3q5.6-12,11.1-27.6c1.5-3.6,2.9-7.2,4.3-10.9s3-7.8,4.6-12.4l3.8-10.8c.9-2.5,2.4-6.6,4.4-12.4s3.4-9.4,4.1-11.1c8.4-23.3,15.3-42,20.9-56.1C613.5,480.3,617.6,470.5,623,458Z" transform="translate(-294.2 -407.2)" style="fill:#fff"/><path d="M677.9,531.6l-.2-.3a4.5,4.5,0,0,0-2.7-2.4c-2.3-.8-5.5.7-9.6,4.7a36,36,0,0,0-5.2,5.6A71.2,71.2,0,0,0,656,545l-4.4,6.9c-2,3-3.3,5.1-4,6.3-6.9,10.5-13.2,21.1-18.9,32-3.5,6.5-6.1,11.2-7.9,14a41.9,41.9,0,0,1-4.7,6.1l-.6.8c-.2.3-.4.5-.6.5a66.1,66.1,0,0,1,2.5-8.1,114.5,114.5,0,0,1,5.6-13.8l6.3-12.8c3-6.1,5.3-10.9,6.8-14.3s1.8-4.4,2.2-5.4l1.5-5.3a11.1,11.1,0,0,0,0-6.3,9.8,9.8,0,0,0-3.7-4.2q-3.7-2.4-12.6,0c-2.6.7-5.2,1.5-7.9,2.5l5.9-7.1,7.9-8.4c.7.6,1.3.6,2-.3s4-3.4,7-6.2l7-6.6,5.2-5.1c3.1-3.1,5.5-5.4,7.1-6.7s3.8-2.4,4.9-3.2h-.2a2.7,2.7,0,0,0,.9-2.8,1.8,1.8,0,0,0-2.4-1.4,35.9,35.9,0,0,0-11.1,4.6,72.2,72.2,0,0,0-9.3,6.5l-9.4,8.1a296.2,296.2,0,0,0-26.8,27.9c-3.3,3.9-4.1,7.2-2.4,9.8a5.6,5.6,0,0,0,4.9,3,15.1,15.1,0,0,0,6.4-1l6.5-3c2.4-1.1,3.9-1.8,4.6-2l3.6-.9,1.3-.5c1.3-.4,2-.2,2.2.5a2.8,2.8,0,0,1,0,1.8l-.6,2-1,2.1a4,4,0,0,1-.9,1.4,170.3,170.3,0,0,1-7.4,15.6c-7,13.7-11.5,23.8-13.5,30.2-.6,2.2-1.2,4.3-1.6,6.4s-.8,4.8-1.1,8,.2,5.5,1.6,6.8,3.7,1.5,6.8.5,5.9-4.1,9.8-9.4a87.5,87.5,0,0,0,8.1-13.5c.9-1.6,3.3-6.7,7.4-15s7.3-14.7,9.6-19c4.3-7.7,8.2-14.2,11.8-19.7,2.3-3.2,4.3-5.8,5.9-7.6l3.5-3.2,2.2-1.7c1-1,1.4-.7,1.2,1s.5,1.7.9,3.3a9.3,9.3,0,0,0,1.6,3.6h0c1.3-2,2.7-3.9,4.2-5.9A27,27,0,0,1,677.9,531.6Z" transform="translate(-294.2 -407.2)" style="fill:#fff"/><path d="M734.3,551.8a19,19,0,0,0-3.1,3.4c-1.6,2-3.1,3.8-4.6,5.4a57.8,57.8,0,0,1-4.9,5.1A14.5,14.5,0,0,1,717,569a83,83,0,0,1,1.8-16.7,156.9,156.9,0,0,1,8.1-23.9,3.6,3.6,0,0,0-.3-2.4,2.5,2.5,0,0,0-1.6-1.7,1.8,1.8,0,0,0-2,.9l-1.8,2.4a8.8,8.8,0,0,0-2.9-8.1c-4.6-4.4-10.2-5.1-16.8-1.9s-11.5,7.8-18.9,16a26.9,26.9,0,0,0-2.7,3.2c-1.5,2-2.9,3.9-4.2,5.9a59.2,59.2,0,0,0-5.2,10.8c-2.9,8.9-1.7,15.3,3.7,19.4a13.3,13.3,0,0,0,9.7,2.4,21.4,21.4,0,0,0,9.5-4.6,35.7,35.7,0,0,0,4.6-4.3c1.5-1.7,2.8-3.1,3.7-4.3s2.1-2.9,3.8-5.3,2.8-4,3.4-4.8a5.7,5.7,0,0,0,.8-.8,4,4,0,0,1,.7-.9q-4.9,12.8-2.7,23.4a5,5,0,0,0,4.2,3.9,11.2,11.2,0,0,0,6.4-1,14.5,14.5,0,0,0,4.5-2.9c.9-1,2.4-2.9,4.6-5.7l3.7-4.9q5.5-7.1,9.9-12.3c.9-3.6,1.9-7,3-10.3C741.3,543.8,738.1,547.5,734.3,551.8Zm-19-16.3c-4.7,6.1-9.1,11.3-13,15.8s-9.5,9.7-12.8,11.8-7.8,3.2-9.1-.3c-.5-1.4-.1-3.9,1.2-7.3,2.3-6.6,7.1-13.6,14.5-21,5.8-5.9,10.3-9.4,13.6-10.5a6.7,6.7,0,0,1,5.4.2,4.1,4.1,0,0,1,2.2,4.4,19.3,19.3,0,0,1-1.1,2.9,17.2,17.2,0,0,0-1.1,2.5A1.6,1.6,0,0,0,715.3,535.5Z" transform="translate(-294.2 -407.2)" style="fill:#fff"/><path d="M790.9,513.1a2.2,2.2,0,0,0-1.5,1.3,13.1,13.1,0,0,0-1.2,3.8c-.4,1.5-.7,3-1.1,4.5a30.9,30.9,0,0,1-1.4,4,100.1,100.1,0,0,1-5.4,8.8c-1.8,2.5-6.4,7.8-13.8,16A96,96,0,0,0,754,568.3c-3.2,5.2-4.8,7.9-5,8.1l-1.7,2.7c0-1,.4-4.9,1.2-11.8a145.7,145.7,0,0,1,3.2-17.5c1.5-6.2,4.6-15.7,9.4-28.3a3.1,3.1,0,0,0-.4-3.3,3.4,3.4,0,0,0-5.8-.9A106.1,106.1,0,0,0,744,540.5c-1.1,3.3-2.1,6.7-3,10.3s-1.6,6.6-2.3,10.1c-4.4,23.1-2,34.1,7.4,33a10.3,10.3,0,0,0,2.1-.7,10,10,0,0,0,1.8-.9,8.5,8.5,0,0,0,1.7-1.4,14.3,14.3,0,0,0,1.5-1.8,18.9,18.9,0,0,1,1.4-1.9,16,16,0,0,0,1.3-2.1,18.1,18.1,0,0,0,1-2l1-1.9,1-1.9c4.2-8,11.3-18.1,21.1-30.2a76.1,76.1,0,0,0,9.9-15.8c3.6-8.4,4.4-14.8,2.5-19.4A1.3,1.3,0,0,0,790.9,513.1Z" transform="translate(-294.2 -407.2)" style="fill:#fff"/><path d="M857.1,536.6c.1-.2.2-.3.2-.5a184.2,184.2,0,0,0-26.6,27c-3.2,4.1-5.9,7.2-7.8,9.3-5.1,5.3-9.1,8.2-11.8,8.7a3.9,3.9,0,0,1-4-1.4,8.6,8.6,0,0,1-1.8-4.7,52.9,52.9,0,0,1-.5-5.6,22.2,22.2,0,0,1,.1-4.6,55.5,55.5,0,0,1,5.7-20.2,81.2,81.2,0,0,0,18.9-9.8l2-1.4,2.6-1.7,2.3-1.8a16.4,16.4,0,0,0,2.3-2.3,14.2,14.2,0,0,0,1.8-2.2,7.7,7.7,0,0,0,1.2-2.6,6.6,6.6,0,0,0,.1-2.8c-.5-2.9-2.4-4.9-5.9-5.9s-6.4-.9-8.8.3c-6.4,1.9-13,7.3-19.7,16.2-11,14.4-15.5,29.5-13.3,45a22.3,22.3,0,0,0,4,10.9,11.8,11.8,0,0,0,9.5,4.6c5.4.4,11.2-2.8,17.2-9.6a103.9,103.9,0,0,0,8.8-11.1c3.7-5.2,6.5-9,8.5-11.5s6.2-6.7,9.6-9.9c.7-1.9,1.3-3.5,1.9-4.9S855.6,539.8,857.1,536.6Zm-42.6.9c5.9-8.9,11-14.4,15.3-16.7s4.9-1.6,5.9-.8,1.4,3.4-1.5,6.2-4.9,4.3-7.9,6.6a127.6,127.6,0,0,1-14.3,8.9Z" transform="translate(-294.2 -407.2)" style="fill:#fff"/><path d="M925.8,436.2a1.8,1.8,0,0,0-1.5-1.1,14.4,14.4,0,0,0-4,.6,17.2,17.2,0,0,0-3.3,1.4,21.9,21.9,0,0,0-3.3,2.4l-3,2.6c-.6.6-1.6,1.6-2.9,3.1a26.5,26.5,0,0,1-2.5,2.7,110.6,110.6,0,0,0-15.2,19.4c-2.2,3.3-4.3,6.9-6.4,10.6s-6,3.8-8.6,4c-1,0-1.6.6-1.6,1.8s.3,1.9,1.3,1.9a12.7,12.7,0,0,0,5.4-.8c-1.8,3.5-3.6,7.2-5.5,11.3s-3.5,7.8-4.9,11.1l-5,11.7c-1.9,4.5-3.5,8.3-4.8,11.2q-.6,1.6-2.7,6c0,.2-.1.3-.2.5-1.5,3.2-2.6,5.7-3.5,7.5s-1.2,3-1.9,4.9-.5,1.4-.8,2.2a56,56,0,0,0-2.1,8,28.4,28.4,0,0,0-.3,7.1,13.9,13.9,0,0,0,8,12.3,18.4,18.4,0,0,0,15.4,1,22.5,22.5,0,0,0,3.8-1.9,29.6,29.6,0,0,0,3.2-2.1,31.6,31.6,0,0,0,3.2-2.8l2.8-2.7a24.3,24.3,0,0,0,2.8-3.1l2.6-2.9c12.2-13.2,20.5-23.2,25.1-30.1a1.7,1.7,0,0,0-.2-2.5,2,2,0,0,0-2.7-.2c-3.2,2.8-7.3,6.7-12.3,11.6s-9.9,9.4-14.4,13.3a115.5,115.5,0,0,1-13.5,10.1c-3.4,2.3-6.1,3-8.1,2.2a7.2,7.2,0,0,1-2.7-1.5l-.5-.7-.2-.7v-1.8a39,39,0,0,1,1.3-7.6c.8-2.8,1.5-5.1,2.2-6.9l3.4-7.9,2.9-6.9c1.2-2.6,3.5-8.3,6.9-17.2s6.5-16.2,9-22,5.1-11.5,7.8-16.9l3.2-6.4,8.1-7.1,6.5-6.2c1.2-1.1,3-3,5.3-5.5a37.4,37.4,0,0,0,5.4-7.4,35.1,35.1,0,0,0,3-7.3A3,3,0,0,0,925.8,436.2Zm-20.7,23.3.2-.3.3-.5a105.4,105.4,0,0,1,8.1-10.1c3.4-3.7,5.3-5.8,5.7-6.1C916.9,447.2,912.1,452.9,905.1,459.5Z" transform="translate(-294.2 -407.2)" style="fill:#fff"/></svg>