<svg width="38" height="36" viewBox="0 0 38 36" fill="none" xmlns="http://www.w3.org/2000/svg">
<g id="Frame 1">
<rect width="38" height="36" fill="white"/>
<rect id="Rectangle 7" x="1" y="1" width="36" height="34" rx="7" fill="white" stroke="#F2F5FA" stroke-width="2"/>
<path id="Union" d="M14 18.0825L13.6464 17.729L13.2929 18.0825L13.6464 18.4361L14 18.0825ZM14.7071 17.3754L15.0607 17.729L14.7071 17.3754ZM14.7071 18.7896L15.0607 18.4361H15.0607L14.7071 18.7896ZM23.0825 27.1651L22.729 27.5186L23.0825 27.8722L23.4361 27.5186L23.0825 27.1651ZM23.7896 26.458L24.1432 26.8115L24.4968 26.458L24.1432 26.1044L23.7896 26.458ZM15.4142 18.0825L15.0607 17.729L14.7071 18.0825L15.0607 18.4361L15.4142 18.0825ZM23.7896 9.70711L24.1432 10.0607L24.4968 9.70711L24.1432 9.35355L23.7896 9.70711ZM23.0825 9L23.4361 8.64645L23.0825 8.29289L22.729 8.64645L23.0825 9ZM14.3536 18.4361L15.0607 17.729L14.3536 17.0219L13.6464 17.729L14.3536 18.4361ZM15.0607 18.4361L14.3536 17.729L13.6464 18.4361L14.3536 19.1432L15.0607 18.4361ZM23.4361 26.8115L15.0607 18.4361L14.3536 19.1432L22.729 27.5186L23.4361 26.8115ZM23.4361 26.1044L22.729 26.8115L23.4361 27.5186L24.1432 26.8115L23.4361 26.1044ZM15.0607 18.4361L23.4361 26.8115L24.1432 26.1044L15.7678 17.729L15.0607 18.4361ZM23.4361 9.35355L15.0607 17.729L15.7678 18.4361L24.1432 10.0607L23.4361 9.35355ZM22.729 9.35355L23.4361 10.0607L24.1432 9.35355L23.4361 8.64645L22.729 9.35355ZM15.0607 17.729L23.4361 9.35355L22.729 8.64645L14.3536 17.0219L15.0607 17.729Z" fill="black" fill-opacity="0.68"/>
</g>
</svg>
