<svg width="360" height="368" viewBox="0 0 360 368" fill="none" xmlns="http://www.w3.org/2000/svg">
<path d="M81.6814 286.481C135.982 310.651 224.018 310.658 278.319 286.481C332.62 262.303 332.612 223.118 278.319 198.948C224.026 174.778 135.982 174.778 81.6814 198.948C27.3803 223.118 27.3882 262.31 81.6814 286.481Z" fill="#F5F5F5"/>
<path d="M278.13 268.618C288.131 268.618 296.238 265.01 296.238 260.559C296.238 256.108 288.131 252.5 278.13 252.5C268.129 252.5 260.021 256.108 260.021 260.559C260.021 265.01 268.129 268.618 278.13 268.618Z" fill="#EBEBEB"/>
<path d="M77.5601 261.714L83.9665 258.262C87.5434 255.536 90.2659 251.958 91.8465 247.907C93.8244 242.814 93.5486 238.942 92.1302 236.999C90.3887 234.607 85.8735 235.027 85.6922 240.061C85.314 249.982 82.2171 256.864 77.5601 261.714Z" fill="#112335"/>
<path opacity="0.2" d="M77.5601 261.714L83.9665 258.262C87.5434 255.536 90.2659 251.958 91.8465 247.907C93.8244 242.814 93.5486 238.942 92.1302 236.999C90.3887 234.607 85.8735 235.027 85.6922 240.061C85.314 249.982 82.2171 256.864 77.5601 261.714Z" fill="black"/>
<path d="M77.5598 262.082C77.4764 262.081 77.3954 262.056 77.3286 262.009C77.2618 261.962 77.2126 261.897 77.1881 261.822C77.1635 261.748 77.165 261.668 77.1921 261.594C77.2193 261.521 77.2708 261.457 77.3392 261.412C92.1536 251.844 89.2853 238.501 89.2537 238.368C89.2429 238.32 89.2423 238.27 89.2521 238.222C89.2618 238.173 89.2817 238.127 89.3106 238.085C89.3395 238.044 89.3769 238.008 89.4205 237.981C89.4642 237.953 89.5133 237.933 89.565 237.923C89.6167 237.913 89.6701 237.912 89.7221 237.921C89.774 237.931 89.8236 237.949 89.8678 237.976C89.9121 238.003 89.9503 238.038 89.9801 238.079C90.0099 238.12 90.0309 238.165 90.0417 238.214C90.0417 238.354 93.0677 252.154 77.812 262.016C77.738 262.063 77.6494 262.087 77.5598 262.082Z" fill="white"/>
<path d="M64.7234 268.64C64.7234 268.64 62.4934 266.947 63.0292 264.651C63.5651 262.355 65.0071 260.706 62.5407 257.747C60.0742 254.788 59.3887 250.844 62.3358 248.709C64.5816 247.053 68.0882 249.394 69.349 245.029C70.2788 241.835 69.9636 234.762 74.3213 232.407C78.6789 230.052 81.4133 233.599 80.7277 238.398C80.1288 242.689 79.2778 246.818 79.9397 247.966C81.2163 250.174 83.399 249.872 83.2966 253.905C83.2099 257.659 79.4039 260.765 79.4039 260.765L64.7234 268.64Z" fill="#112335"/>
<path d="M72.044 265.041C71.9477 265.04 71.8549 265.007 71.7826 264.947C71.7103 264.888 71.6632 264.806 71.65 264.717C70.5232 255.996 73.226 240.937 75.4324 236.462C75.451 236.412 75.4807 236.367 75.5197 236.329C75.5586 236.291 75.6058 236.261 75.658 236.242C75.7103 236.222 75.7664 236.213 75.8227 236.216C75.8789 236.218 75.9339 236.232 75.984 236.256C76.0311 236.276 76.0734 236.304 76.1085 236.339C76.1436 236.375 76.1707 236.416 76.1884 236.462C76.206 236.507 76.2137 236.555 76.2111 236.603C76.2085 236.651 76.1956 236.698 76.1731 236.742C73.9904 241.158 71.3821 256.26 72.4617 264.599C72.4727 264.696 72.4425 264.793 72.3776 264.868C72.3126 264.944 72.2182 264.993 72.1149 265.004L72.044 265.041Z" fill="white"/>
<path d="M71.8312 258.248C71.7709 258.25 71.711 258.238 71.6579 258.211C68.9235 256.967 67.1899 252.529 67.119 252.323C67.0997 252.277 67.0904 252.228 67.0917 252.179C67.093 252.13 67.1048 252.081 67.1265 252.037C67.1482 251.992 67.1792 251.951 67.2179 251.918C67.2566 251.884 67.302 251.859 67.3515 251.842C67.4011 251.825 67.4537 251.818 67.5063 251.82C67.5589 251.823 67.6104 251.835 67.6578 251.857C67.7052 251.879 67.7475 251.909 67.7821 251.946C67.8168 251.983 67.8432 252.026 67.8597 252.073C67.8597 252.117 69.5539 256.415 72.0046 257.526C72.085 257.563 72.1497 257.624 72.1883 257.699C72.2268 257.774 72.2368 257.859 72.2167 257.941C72.1965 258.022 72.1474 258.094 72.0774 258.146C72.0073 258.198 71.9205 258.226 71.8312 258.226V258.248Z" fill="white"/>
<path d="M71.784 261.192C71.705 261.192 71.6279 261.169 71.5631 261.127C71.4983 261.085 71.4489 261.025 71.4215 260.956C71.3823 260.866 71.3826 260.766 71.4225 260.676C71.4623 260.586 71.5384 260.515 71.6342 260.478C76.2362 258.756 79.1045 253.64 79.136 253.581C79.1841 253.495 79.2671 253.429 79.3669 253.399C79.4666 253.37 79.5749 253.378 79.6679 253.423C79.7609 253.468 79.831 253.546 79.8628 253.639C79.8945 253.732 79.8854 253.833 79.8373 253.92C79.7112 254.141 76.8035 259.337 71.9573 261.162C71.9033 261.186 71.8435 261.196 71.784 261.192Z" fill="white"/>
<path d="M232.638 221.595C232.638 221.595 229.195 216.384 228.856 210.724C228.517 205.064 229.849 202.709 231.677 202.032C233.505 201.355 233.647 203.438 234.585 204.667C235.523 205.896 237.437 205.197 238.147 201.362C238.856 197.528 241.44 191.058 246.815 189.8C252.725 188.431 249.557 194.908 248.068 197.432C246.578 199.956 245.428 203.401 246.405 204.336C247.382 205.27 248.903 203.541 250.345 205.145C252.102 207.081 246.641 214.051 243.505 215.736L232.638 221.595Z" fill="#112335"/>
<path d="M237.359 219.409C237.307 219.407 237.256 219.396 237.209 219.375C237.162 219.355 237.12 219.326 237.084 219.291C237.049 219.255 237.022 219.214 237.004 219.168C236.986 219.123 236.978 219.075 236.98 219.026C237.514 209.922 240.554 201.1 245.806 193.413C245.836 193.373 245.874 193.339 245.918 193.314C245.962 193.288 246.012 193.27 246.063 193.263C246.115 193.255 246.167 193.257 246.218 193.269C246.269 193.281 246.316 193.303 246.358 193.332C246.44 193.39 246.495 193.475 246.512 193.57C246.528 193.665 246.504 193.762 246.444 193.84C241.286 201.414 238.301 210.1 237.776 219.063C237.773 219.111 237.76 219.159 237.737 219.202C237.715 219.246 237.683 219.285 237.644 219.317C237.605 219.349 237.56 219.374 237.511 219.39C237.462 219.405 237.41 219.412 237.359 219.409Z" fill="white"/>
<path d="M237.808 215.059C237.742 215.059 237.677 215.043 237.618 215.015C235.412 213.874 234.191 210.489 234.143 210.349C234.126 210.303 234.119 210.254 234.121 210.206C234.124 210.157 234.138 210.109 234.16 210.066C234.183 210.022 234.215 209.983 234.254 209.95C234.293 209.918 234.338 209.893 234.388 209.878C234.487 209.848 234.595 209.855 234.688 209.9C234.781 209.944 234.852 210.021 234.884 210.113C234.884 210.113 236.066 213.374 238.036 214.367C238.125 214.417 238.191 214.496 238.219 214.589C238.247 214.683 238.235 214.782 238.186 214.868C238.15 214.931 238.095 214.983 238.028 215.017C237.961 215.051 237.884 215.066 237.808 215.059Z" fill="white"/>
<path d="M238.194 212.829C238.106 212.828 238.022 212.8 237.953 212.75C237.885 212.699 237.836 212.629 237.815 212.549C237.803 212.503 237.8 212.455 237.807 212.407C237.814 212.36 237.832 212.314 237.858 212.273C237.884 212.232 237.919 212.196 237.961 212.168C238.002 212.139 238.049 212.119 238.099 212.108C243.788 210.761 245.758 207.979 245.774 207.949C245.802 207.908 245.839 207.873 245.881 207.845C245.924 207.817 245.972 207.797 246.023 207.786C246.074 207.776 246.126 207.775 246.178 207.783C246.229 207.792 246.278 207.809 246.322 207.835C246.366 207.861 246.404 207.895 246.434 207.935C246.464 207.975 246.485 208.02 246.496 208.067C246.508 208.115 246.509 208.164 246.5 208.212C246.491 208.26 246.472 208.306 246.444 208.347C246.357 208.472 244.309 211.394 238.296 212.822L238.194 212.829Z" fill="white"/>
<path d="M146.904 210.157C146.904 210.157 139.347 208.435 138.953 195.217C138.535 180.953 140.805 164.305 131.861 162.958C122.917 161.611 117.953 171.79 118.063 183.676C118.166 194.083 122.657 216.678 146.872 221.109L146.904 210.157Z" fill="#112335"/>
<path opacity="0.2" d="M146.904 210.157C146.904 210.157 139.347 208.435 138.953 195.217C138.535 180.953 140.805 164.305 131.861 162.958C122.917 161.611 117.953 171.79 118.063 183.676C118.166 194.083 122.657 216.678 146.872 221.109L146.904 210.157Z" fill="black"/>
<path d="M146.904 219.755H146.833C141.388 218.828 136.951 216.023 133.65 211.431C123.863 197.793 126.944 172.327 127.96 167.882C127.983 167.787 128.044 167.704 128.131 167.651C128.218 167.597 128.323 167.577 128.425 167.595C128.527 167.617 128.616 167.676 128.673 167.758C128.73 167.84 128.752 167.94 128.733 168.036C127.732 172.452 124.667 197.594 134.304 211.019C135.707 213.1 137.557 214.887 139.739 216.266C141.92 217.644 144.384 218.584 146.975 219.026C147.026 219.035 147.075 219.053 147.119 219.08C147.163 219.107 147.2 219.141 147.23 219.182C147.259 219.222 147.28 219.268 147.29 219.315C147.3 219.363 147.3 219.413 147.29 219.46C147.273 219.544 147.225 219.62 147.155 219.674C147.084 219.728 146.995 219.756 146.904 219.755Z" fill="white"/>
<path d="M146.904 253.677C139.095 254.663 126.416 254.649 119.096 249.261C111.775 243.874 113.304 239.237 116.117 237.301C118.93 235.365 121.373 233.157 116.535 228.859C111.696 224.561 103.927 217.657 101.405 207.302C98.8833 196.946 100.128 190.469 105.077 188.313C109.876 186.223 111.145 189.549 114.084 196.409C117.023 203.268 123.634 197.388 129.292 199.53C134.95 201.671 134.722 205.911 135.076 209.554C135.431 213.197 137.298 214.205 140.505 214.205C143.713 214.205 146.904 215.928 146.904 219.357V253.677Z" fill="#112335"/>
<path d="M146.904 241.651C146.87 241.658 146.835 241.658 146.801 241.651C146.463 241.563 138.386 239.369 126.621 229.279C114.092 218.533 108.182 202.415 108.118 202.253C108.088 202.16 108.098 202.06 108.145 201.974C108.192 201.887 108.273 201.821 108.371 201.789C108.469 201.759 108.576 201.765 108.669 201.808C108.762 201.851 108.833 201.926 108.867 202.017C108.922 202.179 114.777 218.121 127.157 228.734C138.756 238.692 146.927 240.922 147.014 240.944C147.064 240.958 147.11 240.98 147.151 241.011C147.191 241.041 147.224 241.078 147.249 241.121C147.274 241.163 147.29 241.21 147.296 241.258C147.301 241.306 147.297 241.354 147.282 241.401C147.257 241.475 147.206 241.54 147.138 241.585C147.069 241.63 146.987 241.653 146.904 241.651Z" fill="white"/>
<path d="M129.907 231.84C129.827 231.841 129.75 231.819 129.685 231.777C129.62 231.735 129.571 231.674 129.544 231.604C127.015 225.54 126.439 212.564 126.392 212.012C126.39 211.915 126.428 211.821 126.499 211.75C126.569 211.678 126.667 211.635 126.77 211.629C126.873 211.631 126.972 211.668 127.048 211.733C127.123 211.798 127.17 211.887 127.18 211.983C127.18 212.115 127.771 225.385 130.253 231.34C130.272 231.385 130.282 231.433 130.28 231.482C130.279 231.531 130.267 231.579 130.246 231.623C130.225 231.668 130.194 231.708 130.156 231.741C130.118 231.775 130.074 231.801 130.025 231.818C129.987 231.831 129.947 231.838 129.907 231.84Z" fill="white"/>
<path d="M129.844 240.562C129.117 240.567 128.391 240.533 127.669 240.459C127.617 240.453 127.567 240.438 127.522 240.414C127.476 240.39 127.436 240.358 127.404 240.32C127.372 240.281 127.348 240.237 127.334 240.191C127.32 240.144 127.316 240.095 127.322 240.046C127.328 239.998 127.345 239.951 127.37 239.909C127.396 239.867 127.43 239.829 127.471 239.799C127.512 239.769 127.559 239.747 127.609 239.734C127.659 239.721 127.712 239.717 127.763 239.723C127.834 239.723 135.171 240.503 138.535 237.301C138.57 237.262 138.614 237.231 138.662 237.208C138.711 237.186 138.764 237.173 138.818 237.171C138.873 237.169 138.927 237.177 138.978 237.195C139.028 237.213 139.074 237.241 139.113 237.277C139.152 237.312 139.182 237.355 139.202 237.402C139.222 237.449 139.232 237.499 139.23 237.55C139.228 237.601 139.216 237.651 139.192 237.696C139.169 237.742 139.136 237.783 139.095 237.816C136.66 240.164 132.413 240.562 129.844 240.562Z" fill="white"/>
<path d="M124.17 101.193L123.319 96.6073L118.938 99.3011C118.538 98.5651 117.97 97.9196 117.275 97.4096L119.371 92.1104L115.431 91.2934L112.547 96.4454C111.504 96.6098 110.492 96.9174 109.545 97.3581L108.292 93.472L103.611 96.9091L103.919 101.472C102.965 102.47 102.101 103.538 101.334 104.667L97.4728 104.483L94.7621 110.157L98.0796 111.482C97.7332 112.656 97.5141 113.859 97.4255 115.074L93.2097 118.695L94.0529 123.287L98.442 120.594C98.8401 121.329 99.408 121.972 100.105 122.478L98.048 127.784L101.988 128.594L106.117 124.84C107.071 124.7 106.834 123.022 107.874 122.544L109.127 126.415L113.8 122.986L113.682 121.19C114.628 120.204 118.205 118.032 118.977 116.899L119.947 115.427L122.657 109.752L121.396 107.618L119.994 104.836L124.17 101.193ZM109.868 116.288C106.275 118.923 105.14 119.504 104.533 115.979C103.927 112.453 105.983 107.095 109.576 104.453C113.17 101.811 114.541 101.627 115.187 105.145C115.833 108.663 113.469 113.683 109.868 116.288Z" fill="#E0E0E0"/>
<path d="M115.463 91.2934L120.577 94.0461L117.693 99.1833L112.579 96.4307L115.463 91.2934Z" fill="#F5F5F5"/>
<path d="M128.433 99.36L124.052 102.054L118.938 99.3011L123.319 96.6073L128.433 99.36Z" fill="#F5F5F5"/>
<path d="M127.732 112.483L124.414 111.165L119.3 108.413L122.618 109.73L127.732 112.483Z" fill="#E0E0E0"/>
<path d="M98.04 127.784L103.154 130.53L105.25 125.23L100.136 122.478L98.04 127.784Z" fill="#E0E0E0"/>
<path d="M114.194 129.168L109.088 126.415L107.835 122.544L112.949 125.297L114.194 129.168Z" fill="#E0E0E0"/>
<path d="M129.277 103.945L128.433 99.36L124.052 102.054C123.649 101.317 123.079 100.672 122.382 100.162L124.478 94.863L120.577 94.0461L117.685 99.1981C116.642 99.3625 115.63 99.67 114.683 100.111L113.438 96.2393L108.757 99.6765L109.064 104.24C108.11 105.244 107.246 106.32 106.48 107.456L102.611 107.272L99.9 112.947L103.217 114.271C102.874 115.448 102.655 116.654 102.563 117.87L98.3555 121.44L99.1986 126.033L103.58 123.339C103.983 124.073 104.553 124.716 105.25 125.223L103.154 130.522L107.094 131.339L109.978 126.187C111.026 126.025 112.041 125.714 112.989 125.267L114.234 129.139L118.914 125.709L118.607 121.146C119.56 120.148 120.425 119.08 121.192 117.951L125.061 118.128L127.772 112.453L124.407 111.136C124.756 109.96 124.977 108.754 125.069 107.537L129.277 103.945ZM114.99 119.07C111.405 121.705 107.969 120.991 107.315 117.473C106.661 113.955 109.049 108.957 112.642 106.323C116.235 103.688 119.663 104.409 120.317 107.927C120.971 111.445 118.583 116.435 114.99 119.07Z" fill="#EBEBEB"/>
<path d="M113.438 96.2246L108.324 93.472L103.643 96.9091L108.757 99.6617L113.438 96.2246Z" fill="#F5F5F5"/>
<path d="M103.643 96.9091L103.95 101.472L109.064 104.225L108.757 99.6617L103.643 96.9091Z" fill="#E0E0E0"/>
<path d="M106.48 107.419L101.366 104.667L97.5044 104.49L102.611 107.243L106.48 107.419Z" fill="#F5F5F5"/>
<path d="M97.5044 104.49L94.7937 110.157L99.8999 112.91L102.611 107.243L97.5044 104.49Z" fill="#E0E0E0"/>
<path d="M102.563 117.826L97.457 115.074L93.2412 118.695L98.3475 121.447L102.563 117.826Z" fill="#F5F5F5"/>
<path d="M99.1985 126.04L94.0844 123.287L93.2412 118.695L98.3475 121.447L99.1985 126.04Z" fill="#E0E0E0"/>
<path d="M120.577 94.0461L115.463 91.2934L119.371 92.1104L124.478 94.863L120.577 94.0461Z" fill="#F5F5F5"/>
<path d="M101.271 80.3785V73.5264L95.4319 75.9846C95.1226 74.8221 94.5885 73.7221 93.8559 72.7389L97.5358 65.8131L93.0442 63.3917L88.4581 69.8317C87.18 69.7274 85.8923 69.8447 84.6599 70.1776L84.0138 64.2233L77.6625 67.6531L77.0242 74.2771C75.6419 75.4211 74.3709 76.6772 73.226 78.0307L68.6399 76.5587L64.1483 83.8304L67.8204 86.7744C67.1418 88.377 66.6145 90.032 66.2444 91.7203L60.4053 95.5549V102.414L66.2444 99.9561C66.5536 101.119 67.0877 102.219 67.8204 103.202L64.164 110.135L68.6556 112.556L73.2418 106.116C74.5198 106.22 75.8075 106.103 77.0399 105.771L77.6782 111.725L84.0295 108.295L84.6757 101.671C86.658 100.995 88.4141 99.8428 89.7662 98.3296L93.06 99.4115L97.5516 92.1472L94.7936 89.9392C95.3923 88.098 95.6142 86.1679 95.4476 84.2499L101.271 80.3785ZM80.8381 97.4979C75.9683 100.125 72.9581 98.2339 72.9581 93.0009C72.9581 87.768 76.9848 81.2985 81.8625 78.671C86.7402 76.0435 89.6873 77.935 89.6873 83.2121C89.6873 88.4893 85.7158 94.863 80.8381 97.4979Z" fill="#E0E0E0"/>
<path d="M98.1504 66.1369L93.0442 63.3917L88.458 69.8317L93.5642 72.5843L98.1504 66.1369Z" fill="#F5F5F5"/>
<path d="M106.385 76.279L101.271 73.5264L95.4319 75.9846L100.546 78.7373L106.385 76.279Z" fill="#F5F5F5"/>
<path d="M82.7687 114.477L77.6624 111.725L77.0242 105.771L82.1304 108.523L82.7687 114.477Z" fill="#E0E0E0"/>
<path d="M64.1404 110.135L69.2545 112.888L72.9345 105.962L67.8203 103.209L64.1404 110.135Z" fill="#E0E0E0"/>
<path d="M106.385 83.168V76.3158L100.546 78.752C100.24 77.5884 99.7055 76.4879 98.9699 75.5062L102.65 68.5805L98.1582 66.1517L93.5721 72.599C92.294 72.4911 91.0056 72.6085 89.7739 72.945L89.1278 66.976L82.7765 70.4058L82.1303 77.0298C80.7501 78.1756 79.4792 79.4316 78.3322 80.7834L73.746 79.3114L69.2544 86.583L72.9344 89.527C72.2523 91.1285 71.7248 92.7837 71.3584 94.473L65.5193 98.3075V105.167L71.3584 102.709C71.6642 103.872 72.1986 104.973 72.9344 105.955L69.2544 112.88L73.746 115.302L78.3322 108.862C79.6102 108.966 80.8979 108.849 82.1303 108.516L82.7765 114.47L89.1278 111.04L89.7661 104.416C91.1483 103.272 92.4193 102.016 93.5642 100.663L98.1504 102.135L102.642 94.8704L98.962 91.9264C99.6439 90.3249 100.171 88.6696 100.538 86.9805L106.385 83.168ZM85.9521 100.287C81.0744 102.915 77.1186 100.78 77.1186 95.5254C77.1186 90.2704 81.0586 83.8746 85.9521 81.2397C90.8456 78.6048 94.7777 80.7466 94.7777 86.0016C94.7777 91.2566 90.822 97.6157 85.9521 100.251V100.287Z" fill="#EBEBEB"/>
<path d="M73.2261 78.0454L78.3323 80.7981L73.7461 79.304L68.6399 76.544L73.2261 78.0454Z" fill="#F0F0F0"/>
<path d="M68.6393 76.5515L64.1465 83.8256L69.2589 86.5803L73.7517 79.3062L68.6393 76.5515Z" fill="#F5F5F5"/>
<path d="M64.1404 83.8157L69.2545 86.5683L72.9345 89.527L67.8203 86.7817L64.1404 83.8157Z" fill="#E0E0E0"/>
<path d="M66.2444 91.7277L71.3585 94.4803L65.5194 98.3149L60.4053 95.5622L66.2444 91.7277Z" fill="#F5F5F5"/>
<path d="M60.4053 95.5622L65.5194 98.3149V105.174L60.4053 102.422V95.5622Z" fill="#E0E0E0"/>
<path d="M89.1277 66.976L84.0136 64.2234L77.6624 67.6531L82.7686 70.4058L89.1277 66.976Z" fill="#F5F5F5"/>
<path d="M154.689 263.525L228.761 223.575C228.925 223.521 229.066 223.422 229.166 223.29C229.266 223.158 229.32 223 229.32 222.839C229.32 222.677 229.266 222.52 229.166 222.388C229.066 222.256 228.925 222.156 228.761 222.103L221.914 218.423C221.489 218.223 221.021 218.12 220.546 218.12C220.072 218.12 219.603 218.223 219.179 218.423L145.084 258.336C144.92 258.39 144.779 258.489 144.679 258.621C144.579 258.753 144.525 258.91 144.525 259.072C144.525 259.234 144.579 259.391 144.679 259.523C144.779 259.655 144.92 259.754 145.084 259.808L151.955 263.488C152.376 263.693 152.843 263.803 153.318 263.81C153.792 263.816 154.262 263.718 154.689 263.525Z" fill="#E0E0E0"/>
<path d="M226.728 69.3312L159.937 105.351C158.945 105.956 158.118 106.771 157.525 107.73C156.933 108.689 156.59 109.765 156.525 110.871V258.859C156.525 260.89 158.054 261.714 159.937 260.699L226.728 224.679C227.722 224.075 228.55 223.26 229.143 222.301C229.736 221.341 230.078 220.265 230.14 219.159V71.1712C230.14 69.1398 228.619 68.3155 226.728 69.3312Z" fill="#455A64"/>
<path d="M159.937 105.351L226.728 69.3312C228.415 68.4186 229.809 68.9853 230.093 70.5677C229.936 69.5728 229.554 68.6203 228.974 67.7729C228.394 66.9256 227.629 66.2024 226.728 65.6512L223.955 64.1792C222.897 63.6781 221.728 63.417 220.543 63.417C219.357 63.417 218.188 63.6781 217.13 64.1792L150.332 100.17C149.326 100.759 148.496 101.577 147.92 102.547L157.526 107.699C158.102 106.736 158.932 105.928 159.937 105.351Z" fill="#37474F"/>
<path d="M146.904 253.677C146.968 254.783 147.311 255.859 147.904 256.818C148.497 257.777 149.323 258.592 150.316 259.197L153.097 260.669C154.06 261.119 155.114 261.374 156.189 261.417C157.265 261.46 158.338 261.29 159.338 260.919C157.762 261.493 156.51 260.647 156.51 258.829V110.871C156.549 109.761 156.894 108.678 157.51 107.728L147.905 102.576C147.297 103.519 146.952 104.59 146.904 105.69V253.677Z" fill="#263238"/>
<path d="M161.773 125.068L224.916 91.0285C226.051 90.425 226.965 90.9181 226.965 92.1325V201.664C226.927 202.328 226.721 202.974 226.365 203.549C226.009 204.125 225.513 204.614 224.916 204.976L161.797 239.016C160.662 239.627 159.748 239.134 159.748 237.912V128.38C159.784 127.719 159.986 127.074 160.338 126.499C160.69 125.924 161.181 125.434 161.773 125.068Z" fill="white"/>
<path d="M193.333 92.9494C192.984 93.1631 192.694 93.4503 192.486 93.7878C192.278 94.1253 192.158 94.5036 192.135 94.8925C192.135 95.6285 192.671 95.9008 193.333 95.5402C193.683 95.3278 193.974 95.0409 194.182 94.7032C194.39 94.3654 194.51 93.9864 194.531 93.5971C194.531 92.8832 193.995 92.5962 193.333 92.9494Z" fill="#37474F"/>
<path d="M193.333 227.233C191.955 228.074 190.81 229.207 189.988 230.54C189.167 231.872 188.693 233.366 188.605 234.902C188.605 237.721 190.725 238.869 193.333 237.456C194.71 236.614 195.856 235.481 196.677 234.148C197.498 232.816 197.972 231.322 198.061 229.787C198.077 226.968 195.949 225.82 193.333 227.233Z" fill="#37474F"/>
<path d="M181.994 104.343C181.301 104.772 180.726 105.348 180.316 106.023C179.905 106.698 179.67 107.453 179.63 108.229C179.63 109.657 180.701 110.238 181.994 109.524C182.693 109.099 183.276 108.525 183.694 107.85C184.111 107.175 184.352 106.417 184.397 105.638C184.397 104.21 183.325 103.629 181.994 104.343Z" fill="#37474F"/>
<path d="M187.88 103.857C187.88 104.814 188.668 105.174 189.59 104.667L205.35 96.151C205.838 95.8663 206.247 95.4779 206.544 95.0175C206.842 94.557 207.018 94.0376 207.06 93.5014C207.06 92.552 206.272 92.1913 205.35 92.6992L189.59 101.215C189.103 101.499 188.694 101.886 188.397 102.345C188.1 102.804 187.923 103.322 187.88 103.857Z" fill="#37474F"/>
<path d="M152.231 129.808C152.79 130.149 153.255 130.607 153.59 131.147C153.924 131.686 154.117 132.292 154.153 132.914C154.153 134.062 153.295 134.526 152.231 133.952C151.673 133.611 151.21 133.152 150.877 132.612C150.545 132.073 150.352 131.468 150.316 130.846C150.316 129.705 151.175 129.242 152.231 129.808Z" fill="#37474F"/>
<path d="M152.231 143.63C152.79 143.971 153.255 144.429 153.59 144.969C153.924 145.508 154.117 146.114 154.153 146.736C154.153 147.877 153.295 148.341 152.231 147.774C151.673 147.433 151.21 146.974 150.877 146.434C150.545 145.895 150.352 145.29 150.316 144.668C150.316 143.52 151.175 143.056 152.231 143.63Z" fill="#37474F"/>
<path d="M151.632 130.088C152.191 130.428 152.657 130.887 152.991 131.426C153.325 131.966 153.518 132.572 153.555 133.194C153.555 134.335 152.696 134.798 151.632 134.232C151.073 133.891 150.607 133.433 150.273 132.893C149.939 132.354 149.746 131.748 149.709 131.126C149.717 129.978 150.576 129.536 151.632 130.088Z" fill="#455A64"/>
<path d="M151.632 143.903C152.192 144.244 152.658 144.703 152.992 145.244C153.327 145.785 153.519 146.392 153.555 147.016C153.555 148.157 152.696 148.62 151.632 148.046C151.071 147.707 150.605 147.249 150.271 146.709C149.936 146.169 149.744 145.563 149.709 144.94C149.717 143.8 150.576 143.336 151.632 143.903Z" fill="#455A64"/>
<path d="M239.746 95.599C239.746 94.3773 238.832 93.8842 237.697 94.495L230.14 98.5651L174.579 128.535C173.982 128.897 173.485 129.386 173.129 129.962C172.773 130.537 172.568 131.183 172.53 131.847V241.349C172.53 242.571 173.444 243.064 174.579 242.453L230.164 212.476L237.697 208.413C238.294 208.051 238.791 207.562 239.147 206.987C239.503 206.411 239.708 205.765 239.746 205.101V95.599Z" fill="white"/>
<path d="M240.534 95.599C240.584 95.2299 240.516 94.8554 240.338 94.5222C240.161 94.189 239.883 93.912 239.538 93.7259C239.193 93.5397 238.797 93.4526 238.4 93.4756C238.002 93.4985 237.621 93.6304 237.303 93.8547L230.093 97.7481L174.184 127.924C173.465 128.349 172.866 128.93 172.441 129.619C172.015 130.307 171.775 131.082 171.742 131.876V241.349C171.71 241.717 171.786 242.085 171.96 242.416C172.135 242.746 172.403 243.026 172.735 243.226C173.017 243.379 173.338 243.458 173.664 243.454C174.126 243.441 174.577 243.316 174.972 243.093L230.92 212.917L238.115 209.039C238.831 208.61 239.426 208.028 239.851 207.34C240.276 206.652 240.518 205.88 240.558 205.086L240.534 95.599ZM230.109 211.659L229.463 212.012L174.216 241.805C174.123 241.872 174.016 241.919 173.901 241.941C173.787 241.964 173.668 241.963 173.554 241.938C173.452 241.879 173.349 241.673 173.349 241.334V131.847C173.39 131.313 173.56 130.794 173.847 130.33C174.133 129.866 174.529 129.468 175.004 129.168L230.195 99.36L238.075 95.0986C238.168 95.0319 238.276 94.9855 238.39 94.9625C238.505 94.9396 238.623 94.9408 238.737 94.9661C238.84 95.025 238.942 95.231 238.942 95.5696V205.101C238.901 205.636 238.731 206.154 238.445 206.618C238.158 207.082 237.762 207.48 237.287 207.78L230.093 211.659H230.109Z" fill="#112335"/>
<path d="M206.138 121.043C213.23 117.23 218.943 120.307 218.943 127.954C218.943 135.601 213.206 144.882 206.138 148.665C199.069 152.448 193.333 149.401 193.333 141.761C193.333 134.121 199.069 124.862 206.138 121.043Z" fill="#112335"/>
<path d="M206.138 127.048C208.431 125.812 210.291 126.813 210.291 129.256C210.213 130.602 209.796 131.912 209.075 133.08C208.353 134.248 207.347 135.24 206.138 135.976C203.845 137.212 201.985 136.212 201.985 133.768C202.063 132.422 202.48 131.112 203.201 129.944C203.923 128.777 204.929 127.785 206.138 127.048Z" fill="#112335"/>
<path d="M214.231 140.237C214.231 136.175 211.181 134.526 207.407 136.557L205.043 137.831C201.276 139.862 198.219 144.808 198.219 148.871V149.967C200.401 150.637 203.144 150.276 206.099 148.665C209.372 146.779 212.14 144.218 214.191 141.18L214.231 140.237Z" fill="#112335"/>
<path opacity="0.7" d="M206.138 127.048C208.431 125.812 210.291 126.813 210.291 129.256C210.213 130.602 209.796 131.912 209.075 133.08C208.353 134.248 207.347 135.24 206.138 135.976C203.845 137.212 201.985 136.212 201.985 133.768C202.063 132.422 202.48 131.112 203.201 129.944C203.923 128.777 204.929 127.785 206.138 127.048Z" fill="white"/>
<path opacity="0.7" d="M214.231 140.237C214.231 136.175 211.181 134.526 207.407 136.557L205.043 137.831C201.276 139.862 198.219 144.808 198.219 148.871V149.967C200.401 150.637 203.144 150.276 206.099 148.665C209.372 146.779 212.14 144.218 214.191 141.18L214.231 140.237Z" fill="white"/>
<path d="M181.363 165.482L197.84 156.599C198.628 156.194 199.204 156.518 199.204 157.335V157.843C199.179 158.285 199.042 158.715 198.805 159.099C198.568 159.483 198.238 159.809 197.84 160.051L181.363 168.934C180.615 169.339 180 169.008 180 168.198V167.69C180.026 167.248 180.162 166.818 180.399 166.434C180.636 166.05 180.966 165.724 181.363 165.482Z" fill="#112335"/>
<path opacity="0.1" d="M181.363 165.482L197.84 156.599C198.628 156.194 199.204 156.518 199.204 157.335V157.843C199.179 158.285 199.042 158.715 198.805 159.099C198.568 159.483 198.238 159.809 197.84 160.051L181.363 168.934C180.615 169.339 180 169.008 180 168.198V167.69C180.026 167.248 180.162 166.818 180.399 166.434C180.636 166.05 180.966 165.724 181.363 165.482Z" fill="black"/>
<path d="M180.686 176.206L230.534 149.327C230.905 149.121 231.212 149.283 231.212 149.695V155.127C231.198 155.347 231.13 155.562 231.012 155.753C230.895 155.945 230.731 156.108 230.534 156.231L180.686 183.109C180.307 183.316 180 183.146 180 182.741V177.31C180.014 177.088 180.083 176.873 180.202 176.681C180.321 176.49 180.487 176.327 180.686 176.206Z" fill="#112335"/>
<path opacity="0.2" d="M180.686 176.206L230.534 149.327C230.905 149.121 231.212 149.283 231.212 149.695V155.127C231.198 155.347 231.13 155.562 231.012 155.753C230.895 155.945 230.731 156.108 230.534 156.231L180.686 183.109C180.307 183.316 180 183.146 180 182.741V177.31C180.014 177.088 180.083 176.873 180.202 176.681C180.321 176.49 180.487 176.327 180.686 176.206Z" fill="white"/>
<path d="M181.363 189.645L197.84 180.762C198.628 180.357 199.204 180.688 199.204 181.498V182.005C199.179 182.448 199.043 182.879 198.806 183.262C198.569 183.646 198.238 183.972 197.84 184.213L181.363 193.097C180.615 193.509 180 193.178 180 192.361V191.853C180.027 191.411 180.164 190.981 180.401 190.598C180.638 190.214 180.967 189.888 181.363 189.645Z" fill="#112335"/>
<path opacity="0.1" d="M181.363 189.645L197.84 180.762C198.628 180.357 199.204 180.688 199.204 181.498V182.005C199.179 182.448 199.043 182.879 198.806 183.262C198.569 183.646 198.238 183.972 197.84 184.213L181.363 193.097C180.615 193.509 180 193.178 180 192.361V191.853C180.027 191.411 180.164 190.981 180.401 190.598C180.638 190.214 180.967 189.888 181.363 189.645Z" fill="black"/>
<path d="M180.686 200.369L230.534 173.49C230.905 173.284 231.212 173.453 231.212 173.858V179.29C231.198 179.51 231.13 179.724 231.012 179.916C230.895 180.108 230.731 180.271 230.534 180.394L180.686 207.272C180.307 207.478 180 207.316 180 206.904V201.473C180.014 201.251 180.083 201.036 180.202 200.844C180.321 200.652 180.487 200.49 180.686 200.369Z" fill="#112335"/>
<path opacity="0.2" d="M180.686 200.369L230.534 173.49C230.905 173.284 231.212 173.453 231.212 173.858V179.29C231.198 179.51 231.13 179.724 231.012 179.916C230.895 180.108 230.731 180.271 230.534 180.394L180.686 207.272C180.307 207.478 180 207.316 180 206.904V201.473C180.014 201.251 180.083 201.036 180.202 200.844C180.321 200.652 180.487 200.49 180.686 200.369Z" fill="white"/>
<path d="M200.567 203.452L220.267 192.847C221.055 192.435 221.638 192.766 221.638 193.583V199.265C221.612 199.708 221.474 200.139 221.236 200.522C220.998 200.906 220.665 201.232 220.267 201.473L200.567 212.086C199.779 212.491 199.203 212.159 199.203 211.35V205.66C199.231 205.219 199.368 204.789 199.605 204.406C199.842 204.022 200.171 203.696 200.567 203.452Z" fill="#112335"/>
<path opacity="0.1" d="M200.567 203.452L220.267 192.847C221.055 192.435 221.638 192.766 221.638 193.583V199.265C221.612 199.708 221.474 200.139 221.236 200.522C220.998 200.906 220.665 201.232 220.267 201.473L200.567 212.086C199.779 212.491 199.203 212.159 199.203 211.35V205.66C199.231 205.219 199.368 204.789 199.605 204.406C199.842 204.022 200.171 203.696 200.567 203.452Z" fill="black"/>
<path d="M247.216 179.474C247.216 179.474 237.54 167.006 236.972 165.49C236.523 164.371 236.972 162.708 237.114 161.935C237.256 161.162 237.382 159.44 237.524 158.991C237.76 158.152 236.602 158.321 235.948 159.086C235.294 159.852 235.073 161.383 234.734 161.633C234.396 161.883 231.819 158.372 230.471 156.753C229.124 155.134 228.281 154.148 227.453 154.751C226.862 155.186 227.304 156.128 228.281 157.511C228.851 158.256 229.378 159.03 229.857 159.83C230.006 160.132 229.203 160.154 228.769 160.779C228.43 161.265 228.769 162.052 228.297 162.428C228.006 162.635 227.806 162.934 227.736 163.269C227.667 163.605 227.731 163.952 227.918 164.246C228.795 165.532 229.927 166.651 231.252 167.543C232.701 168.478 233.285 168.809 234.143 170.082C235.002 171.356 242.709 184.361 243.229 185.141C243.749 185.921 244.75 187.511 246.271 187.555C247.792 187.599 260.242 177.589 260.88 177.089C262.929 175.492 263.583 175.264 263.93 176.699C264.05 177.209 264.139 177.725 264.198 178.244C264.442 180.07 265.774 186.591 265.774 186.591C265.774 186.591 272.078 189.439 277.255 188.063C282.432 186.686 284.181 184.633 284.181 184.633L281.589 180.688C282.29 179.061 285.529 172.467 286.577 167.852L270.344 165.401C270.013 165.335 269.477 165.21 268.768 165.041C267.878 164.82 265.616 164.091 263.906 165.49C258.327 170.031 247.232 179.474 247.232 179.474" fill="#FFA8A7"/>
<path d="M279.398 255.973L276.49 259.749C277.812 260.325 279.256 260.615 280.714 260.596C283.322 260.684 284.04 259.86 284.134 259.698C284.575 258.814 283.89 257.225 283.701 255.856L279.398 255.973Z" fill="#37474F"/>
<path d="M276.656 257.939C276.656 257.939 273.126 257.725 270.691 257.445C268.256 257.166 266.325 258.27 266.893 259.204C267.46 260.139 268.808 260.919 270.904 261.574C272.692 262.141 274.844 262.546 276.703 263.046C278.563 263.547 279.855 264.202 280.935 263.849C282.141 263.459 282.661 263.01 282.558 262.185C282.295 261.013 281.969 259.853 281.581 258.711L276.656 257.939Z" fill="#37474F"/>
<path d="M284.134 252.183C284.134 252.183 283.693 255.613 283.661 256.349C283.63 257.085 280.076 257.32 279.398 255.973L279.288 251.778L284.134 252.183Z" fill="#F28F8F"/>
<path d="M280.557 254.288L281.825 259.499C281.825 259.499 281.943 260.132 279.044 260.537C276.144 260.941 271.589 259.116 270.809 258.748C270.029 258.38 269.942 257.637 272.795 257.784C275.647 257.931 276.656 257.939 276.656 257.939L275.726 255.635L280.557 254.288Z" fill="#FFA8A7"/>
<path d="M286.53 167.808L288.539 167.285C288.539 167.285 292.739 179.702 293.204 180.901C293.669 182.101 294.197 183.367 293.291 184.846C292.211 186.605 286.53 193.678 286.53 193.678L282.921 190.381L287.018 183.374L283.393 176.53L286.53 167.808Z" fill="#F28F8F"/>
<path d="M265.892 151.682C265.421 150.856 265.182 149.932 265.197 148.996C265.212 148.061 265.481 147.144 265.979 146.332C267.98 142.865 272.44 141.18 277.751 141.82C280.21 142.122 283.11 144.028 284.694 146.876C286.443 150.034 286.609 156.393 287.058 158.799L265.892 151.682Z" fill="#37474F"/>
<path d="M265.75 153.044C265.75 153.044 264.489 155.289 264.71 155.495C265.037 155.673 265.394 155.797 265.766 155.863L265.75 153.044Z" fill="#FFA8A7"/>
<path d="M269.58 145.949C268.209 146.78 265.845 148.311 265.742 153.353C265.632 158.505 266.42 160.205 267.24 160.801C267.791 161.206 271.03 161 272.417 160.698C273.804 160.396 277.799 158.549 279.241 155.745C280.935 152.448 280.588 147.649 278.075 146.177C276.795 145.47 275.344 145.079 273.859 145.039C272.373 144.999 270.901 145.312 269.58 145.949Z" fill="#FFA8A7"/>
<path d="M284.134 184.604C286.561 188.136 288.862 191.228 289.366 195.217C290.407 203.6 287.002 213.182 286.27 219.387C287.648 221.152 288.442 223.255 288.555 225.437C288.555 228.005 284.134 252.183 284.134 252.183C284.134 252.183 280.919 253.096 279.288 251.778L276.254 207.302L277.83 201.885L284.134 184.604Z" fill="#112335"/>
<path opacity="0.2" d="M284.134 184.604C286.561 188.136 288.862 191.228 289.366 195.217C290.407 203.6 287.002 213.182 286.27 219.387C287.648 221.152 288.442 223.255 288.555 225.437C288.555 228.005 284.134 252.183 284.134 252.183C284.134 252.183 280.919 253.096 279.288 251.778L276.254 207.302L277.83 201.885L284.134 184.604Z" fill="black"/>
<path d="M276.254 207.302L277.83 201.885C280.848 201.143 283.758 200.063 286.498 198.668C286.498 198.668 284.859 201.458 280.147 202.989L277.712 209.944L277.507 225.878L276.254 207.302Z" fill="#112335"/>
<path opacity="0.3" d="M276.254 207.302L277.83 201.885C280.848 201.143 283.758 200.063 286.498 198.668C286.498 198.668 284.859 201.458 280.147 202.989L277.712 209.944L277.507 225.878L276.254 207.302Z" fill="black"/>
<path d="M284.134 184.604C285.434 186.591 288.539 189.976 287.877 193.237C287.089 197.182 284.804 199.956 277.854 201.885L271.329 223.965C271.329 223.965 274.725 226.909 275.766 229.757C276.806 232.605 280.557 254.303 280.557 254.303C280.557 254.303 279.39 256.076 275.726 255.65C275.726 255.65 262.953 228.418 262.054 226.644C260.964 224.847 260.582 222.751 260.975 220.719C261.377 217.863 265.703 186.605 265.703 186.605L284.134 184.604Z" fill="#112335"/>
<path opacity="0.2" d="M284.134 184.604C285.434 186.591 288.539 189.976 287.877 193.237C287.089 197.182 284.804 199.956 277.854 201.885L271.329 223.965C271.329 223.965 274.725 226.909 275.766 229.757C276.806 232.605 280.557 254.303 280.557 254.303C280.557 254.303 279.39 256.076 275.726 255.65C275.726 255.65 262.953 228.418 262.054 226.644C260.964 224.847 260.582 222.751 260.975 220.719C261.377 217.863 265.703 186.605 265.703 186.605L284.134 184.604Z" fill="black"/>
<path d="M286.53 167.808L270.297 165.357C269.966 165.291 269.43 165.166 268.721 164.996C268.721 164.996 268.027 174.506 263.859 176.684C263.961 177.14 264.048 177.648 264.127 178.23C264.371 180.055 265.703 186.576 265.703 186.576C265.703 186.576 272.007 189.424 277.184 188.048C282.361 186.672 284.11 184.618 284.11 184.618L281.518 180.673C282.243 179.032 285.505 172.437 286.53 167.808Z" fill="#112335"/>
<path opacity="0.7" d="M286.53 167.808L270.297 165.357C269.966 165.291 269.43 165.166 268.721 164.996C268.721 164.996 268.027 174.506 263.859 176.684C263.961 177.14 264.048 177.648 264.127 178.23C264.371 180.055 265.703 186.576 265.703 186.576C265.703 186.576 272.007 189.424 277.184 188.048C282.361 186.672 284.11 184.618 284.11 184.618L281.518 180.673C282.243 179.032 285.505 172.437 286.53 167.808Z" fill="white"/>
<path d="M282.251 179.106C280.095 180.315 277.837 181.356 275.498 182.219C277.621 182.179 279.699 181.643 281.542 180.659L282.251 179.106Z" fill="#112335"/>
<path d="M269.178 146.199C269.178 146.199 268.39 150.983 270.25 153.795C270.25 153.795 270.943 151.888 272.669 152.249C274.395 152.61 274.489 154.737 273.276 155.929C272.967 156.263 272.564 156.51 272.112 156.64C271.661 156.77 271.179 156.779 270.722 156.665C270.722 156.665 270.447 160.124 270.297 163.024C270.147 165.924 269.328 172.246 272.819 174.8C276.309 177.354 285.072 178.252 289.177 172.894C291.463 169.913 288.429 164.643 287.018 158.733C285.718 153.301 284.985 145.25 278.815 143.954C272.645 142.659 269.178 146.199 269.178 146.199Z" fill="#37474F"/>
<path d="M291.817 80.8349L290.517 81.5709C290.626 81.1388 290.687 80.6973 290.698 80.2534C290.698 77.7878 288.846 76.7942 286.561 78.0454C285.866 78.4372 285.245 78.9348 284.725 79.5174C284.725 76.2054 282.235 74.8586 279.162 76.5146C277.542 77.501 276.195 78.8301 275.228 80.394C274.262 81.958 273.703 83.7127 273.599 85.5158C273.599 85.6851 273.599 85.847 273.599 86.009C272.807 85.9159 272.006 86.088 271.337 86.4947C270.133 87.2276 269.131 88.2153 268.412 89.3778C267.693 90.5402 267.278 91.8445 267.2 93.185C267.2 93.4966 267.234 93.8074 267.303 94.1123L266.609 94.4877C264.726 95.5034 263.197 97.4832 263.197 98.9037C263.197 100.324 264.726 100.663 266.609 99.6397L291.825 86.0605C293.708 85.0448 295.237 83.065 295.237 81.6445C295.237 80.224 293.701 79.8118 291.817 80.8349Z" fill="#EBEBEB"/>
</svg>
